JetBrainsMonoitalic-Regular.ufo
<glyph name="quotedbl" format="2">
  <advance width="600" height="975"/>
  <unicode hex="0022"/>
  <outline>
    <contour>
      <point x="215.632" y="730" type="line"/>
      <point x="312.632" y="730" type="line"/>
      <point x="288.872" y="580" type="line"/>
      <point x="254.112" y="430" type="line"/>
      <point x="180.112" y="430" type="line"/>
      <point x="191.872" y="580" type="line"/>
    </contour>
    <contour>
      <point x="418.632" y="730" type="line"/>
      <point x="515.632" y="730" type="line"/>
      <point x="491.872" y="580" type="line"/>
      <point x="457.112" y="430" type="line"/>
      <point x="383.112" y="430" type="line"/>
      <point x="394.872" y="580" type="line"/>
    </contour>
  </outline>
</glyph>
<glyph name="percent" format="2">
  <advance width="600" height="975"/>
  <unicode hex="0025"/>
  <outline>
    <contour>
      <point x="597.882" y="569" type="line"/>
      <point x="586.794" y="499" type="line"/>
      <point x="4.1952" y="148" type="line"/>
      <point x="15.2832" y="218" type="line"/>
    </contour>
    <contour>
      <point x="212.88" y="670" type="curve" smooth="yes"/>
      <point x="166.88" y="670"/>
      <point x="137.97" y="639"/>
      <point x="130.208" y="590" type="curve" smooth="yes"/>
      <point x="119.912" y="525" type="line" smooth="yes"/>
      <point x="112.15" y="476"/>
      <point x="131.24" y="445"/>
      <point x="177.24" y="445" type="curve" smooth="yes"/>
      <point x="228.24" y="445"/>
      <point x="252.942" y="481"/>
      <point x="259.912" y="525" type="curve" smooth="yes"/>
      <point x="270.208" y="590" type="line" smooth="yes"/>
      <point x="277.97" y="639"/>
      <point x="258.88" y="670"/>
    </contour>
    <contour>
      <point x="168.528" y="390" type="curve" smooth="yes"/>
      <point x="84.528" y="390"/>
      <point x="46.6064" y="441"/>
      <point x="59.912" y="525" type="curve" smooth="yes"/>
      <point x="70.208" y="590" type="line" smooth="yes"/>
      <point x="83.5136" y="674"/>
      <point x="137.592" y="725"/>
      <point x="221.592" y="725" type="curve" smooth="yes"/>
      <point x="305.592" y="725"/>
      <point x="343.514" y="674"/>
      <point x="330.208" y="590" type="curve" smooth="yes"/>
      <point x="319.912" y="525" type="line" smooth="yes"/>
      <point x="306.606" y="441"/>
      <point x="252.528" y="390"/>
    </contour>
    <contour>
      <point x="422.312" y="275" type="curve" smooth="yes"/>
      <point x="376.312" y="275"/>
      <point x="347.402" y="244"/>
      <point x="339.64" y="195" type="curve" smooth="yes"/>
      <point x="329.344" y="130" type="line" smooth="yes"/>
      <point x="321.582" y="81"/>
      <point x="340.672" y="50"/>
      <point x="386.672" y="50" type="curve" smooth="yes"/>
      <point x="437.672" y="50"/>
      <point x="462.374" y="86"/>
      <point x="469.344" y="130" type="curve" smooth="yes"/>
      <point x="479.64" y="195" type="line" smooth="yes"/>
      <point x="487.402" y="244"/>
      <point x="468.312" y="275"/>
    </contour>
    <contour>
      <point x="377.96" y="-5" type="curve" smooth="yes"/>
      <point x="293.96" y="-5"/>
      <point x="256.038" y="46"/>
      <point x="269.344" y="130" type="curve" smooth="yes"/>
      <point x="279.64" y="195" type="line" smooth="yes"/>
      <point x="292.946" y="279"/>
      <point x="347.024" y="330"/>
      <point x="431.024" y="330" type="curve" smooth="yes"/>
      <point x="515.024" y="330"/>
      <point x="552.946" y="279"/>
      <point x="539.64" y="195" type="curve" smooth="yes"/>
      <point x="529.344" y="130" type="line" smooth="yes"/>
      <point x="516.038" y="46"/>
      <point x="461.96" y="-5"/>
    </contour>
  </outline>
</glyph>
<glyph name="quotesingle" format="2">
  <advance width="600" height="975"/>
  <unicode hex="0027"/>
  <outline>
    <contour>
      <point x="325" y="730" type="line"/>
      <point x="422" y="730" type="line"/>
      <point x="398" y="580" type="line"/>
      <point x="363" y="430" type="line"/>
      <point x="289" y="430" type="line"/>
      <point x="301" y="580" type="line"/>
    </contour>
  </outline>
</glyph>
<glyph name="parenleft" format="2">
  <advance width="600" height="750"/>
  <unicode hex="0028"/>
  <outline>
    <contour>
      <point x="264" y="265" type="curve" smooth="yes"/>
      <point x="294" y="455" type="line" smooth="yes"/>
      <point x="320" y="620"/>
      <point x="411" y="721"/>
      <point x="551" y="754" type="curve"/>
      <point x="565" y="845" type="line"/>
      <point x="361" y="796"/>
      <point x="236" y="662"/>
      <point x="204" y="455" type="curve" smooth="yes"/>
      <point x="174" y="265" type="line" smooth="yes"/>
      <point x="142" y="66"/>
      <point x="230" y="-78"/>
      <point x="412" y="-125" type="curve"/>
      <point x="426" y="-36" type="line"/>
      <point x="303" y="-6"/>
      <point x="239" y="108"/>
    </contour>
  </outline>
  <guideline angle="0" x="0" y="845"/>
  <guideline angle="0" x="0" y="-125"/>
</glyph>
<glyph name="parenright" format="2">
  <advance width="600" height="975"/>
  <unicode hex="0029"/>
  <outline>
    <contour>
      <point x="198" y="845" type="curve"/>
      <point x="185" y="760" type="line"/>
      <point x="311" y="729"/>
      <point x="372" y="614"/>
      <point x="346" y="455" type="curve" smooth="yes"/>
      <point x="316" y="265" type="line" smooth="yes"/>
      <point x="291" y="105"/>
      <point x="200" y="1"/>
      <point x="59" y="-32" type="curve"/>
      <point x="45" y="-125" type="line"/>
      <point x="254" y="-75"/>
      <point x="373" y="54"/>
      <point x="406" y="265" type="curve" smooth="yes"/>
      <point x="436" y="455" type="line" smooth="yes"/>
      <point x="467" y="650"/>
      <point x="376" y="799"/>
    </contour>
  </outline>
</glyph>
<glyph name="period" format="2">
  <advance width="600" height="975"/>
  <unicode hex="002E"/>
  <outline>
    <contour>
      <point x="263.76" y="150" type="curve" smooth="yes"/>
      <point x="283.76" y="150" type="line" smooth="yes"/>
      <point x="327.064" y="150"/>
      <point x="353.405" y="116.191"/>
      <point x="346.088" y="70" type="curve" smooth="yes"/>
      <point x="338.792" y="23.9407"/>
      <point x="301.597" y="-10"/>
      <point x="258.416" y="-10" type="curve" smooth="yes"/>
      <point x="238.416" y="-10" type="line" smooth="yes"/>
      <point x="195.235" y="-10"/>
      <point x="168.792" y="23.9407"/>
      <point x="176.088" y="70" type="curve" smooth="yes"/>
      <point x="183.405" y="116.191"/>
      <point x="220.456" y="150"/>
    </contour>
  </outline>
</glyph>
<glyph name="slash" format="2">
  <advance width="600" height="975"/>
  <unicode hex="002F"/>
  <outline>
    <contour>
      <point x="495.472" y="830" type="line"/>
      <point x="592.472" y="830" type="line"/>
      <point x="90.576" y="-110" type="line"/>
      <point x="-6.424" y="-110" type="line"/>
    </contour>
  </outline>
</glyph>
<glyph name="zero" format="2">
  <advance width="600" height="975"/>
  <unicode hex="0030"/>
  <outline>
    <contour>
      <point x="260.192" y="380" type="line" smooth="yes" name="sh02"/>
      <point x="265.419" y="413"/>
      <point x="288.904" y="435"/>
      <point x="318.904" y="435" type="curve" smooth="yes" name="dv02"/>
      <point x="348.904" y="435"/>
      <point x="365.419" y="413"/>
      <point x="360.192" y="380" type="curve" smooth="yes" name="sh03"/>
      <point x="353.856" y="340" type="line" smooth="yes"/>
      <point x="348.629" y="307"/>
      <point x="325.144" y="285"/>
      <point x="295.144" y="285" type="curve" smooth="yes" name="dv01"/>
      <point x="265.144" y="285"/>
      <point x="248.629" y="307"/>
      <point x="253.856" y="340" type="curve" smooth="yes"/>
    </contour>
    <contour>
      <point x="149.472" y="205" type="line" smooth="yes" name="sh04"/>
      <point x="136.642" y="124"/>
      <point x="180.613" y="67"/>
      <point x="260.613" y="67" type="curve" smooth="yes" name="sv01"/>
      <point x="340.613" y="67"/>
      <point x="402.642" y="124"/>
      <point x="415.472" y="205" type="curve" smooth="yes" name="sh05"/>
      <point x="464.576" y="515" type="line" smooth="yes" name="sh07"/>
      <point x="477.406" y="596"/>
      <point x="433.435" y="653"/>
      <point x="353.435" y="653" type="curve" smooth="yes" name="sv02"/>
      <point x="273.435" y="653"/>
      <point x="211.406" y="596"/>
      <point x="198.576" y="515" type="curve" smooth="yes"/>
    </contour>
    <contour>
      <point x="62.472" y="205" type="curve" smooth="yes" name="sh01"/>
      <point x="111.576" y="515" type="line" smooth="yes"/>
      <point x="132.326" y="646"/>
      <point x="230.632" y="730"/>
      <point x="365.632" y="730" type="curve" smooth="yes" name="at01"/>
      <point x="500.632" y="730"/>
      <point x="572.326" y="646"/>
      <point x="551.576" y="515" type="curve" smooth="yes"/>
      <point x="502.472" y="205" type="line" smooth="yes" name="sh06"/>
      <point x="481.88" y="75"/>
      <point x="382.416" y="-10"/>
      <point x="248.416" y="-10" type="curve" smooth="yes" name="ab01"/>
      <point x="113.416" y="-10"/>
      <point x="41.7216" y="74"/>
    </contour>
  </outline>
</glyph>
<glyph name="one" format="2">
  <advance width="600" height="975"/>
  <unicode hex="0031"/>
  <outline>
    <contour>
      <point x="138.832" y="605" type="line"/>
      <point x="327.048" y="720" type="line" name="at01"/>
      <point x="442.048" y="720" type="line"/>
      <point x="340.672" y="80" type="line" name="sv01"/>
      <point x="502.672" y="80" type="line"/>
      <point x="490" y="0" type="line" name="ab01"/>
      <point x="40" y="0" type="line"/>
      <point x="52.672" y="80" type="line" name="sv02"/>
      <point x="250.672" y="80" type="line" name="sv03"/>
      <point x="328.288" y="570" type="line" smooth="yes"/>
      <point x="333.04" y="600"/>
      <point x="347.693" y="642"/>
      <point x="347.851" y="643" type="curve" name="sh01"/>
      <point x="339.851" y="643" type="line"/>
      <point x="339.851" y="643"/>
      <point x="316.525" y="622"/>
      <point x="295.624" y="610" type="curve" smooth="yes"/>
      <point x="123.626" y="509" type="line" name="iv01"/>
    </contour>
  </outline>
</glyph>
<glyph name="two" format="2">
  <advance width="600" height="975"/>
  <unicode hex="0032"/>
  <outline>
    <contour>
      <point x="545.952" y="530" type="curve" smooth="yes"/>
      <point x="527.736" y="415"/>
      <point x="463.797" y="327"/>
      <point x="312.422" y="211" type="curve" smooth="yes"/>
      <point x="176.949" y="107" type="line" smooth="yes"/>
      <point x="163.365" y="97"/>
      <point x="134.306" y="84"/>
      <point x="134.306" y="84" type="curve"/>
      <point x="133.672" y="80" type="line"/>
      <point x="133.672" y="80"/>
      <point x="187.989" y="82"/>
      <point x="219.989" y="82" type="curve" smooth="yes"/>
      <point x="482.989" y="82" type="line"/>
      <point x="470" y="0" type="line"/>
      <point x="20" y="0" type="line"/>
      <point x="35.84" y="100" type="line"/>
      <point x="252.501" y="262" type="line" smooth="yes"/>
      <point x="384.024" y="360"/>
      <point x="438.429" y="432"/>
      <point x="453.794" y="529" type="curve" smooth="yes"/>
      <point x="464.882" y="599"/>
      <point x="420.96" y="650"/>
      <point x="348.96" y="650" type="curve" smooth="yes"/>
      <point x="263.96" y="650"/>
      <point x="203.674" y="604"/>
      <point x="191.952" y="530" type="curve"/>
      <point x="98.952" y="530" type="line"/>
      <point x="122.594" y="654"/>
      <point x="222.632" y="730"/>
      <point x="361.632" y="730" type="curve" smooth="yes"/>
      <point x="485.632" y="730"/>
      <point x="564.01" y="644"/>
    </contour>
  </outline>
</glyph>
<glyph name="six" format="2">
  <advance width="600" height="975"/>
  <unicode hex="0036"/>
  <outline>
    <contour>
      <point x="249.416" y="-10" type="curve" smooth="yes"/>
      <point x="112.416" y="-10"/>
      <point x="32.672" y="80"/>
      <point x="54.056" y="215" type="curve" smooth="yes"/>
      <point x="66.728" y="295"/>
      <point x="119.826" y="384"/>
      <point x="203.091" y="493" type="curve" smooth="yes"/>
      <point x="375.048" y="720" type="line"/>
      <point x="484.048" y="720" type="line"/>
      <point x="294.032" y="480" type="line" smooth="yes"/>
      <point x="225.251" y="393"/>
      <point x="209.192" y="380"/>
      <point x="209.192" y="380" type="curve"/>
      <point x="224.192" y="380" type="line"/>
      <point x="224.192" y="380"/>
      <point x="257.062" y="436"/>
      <point x="348.062" y="436" type="curve" smooth="yes"/>
      <point x="465.062" y="436"/>
      <point x="535.123" y="348"/>
      <point x="514.056" y="215" type="curve" smooth="yes"/>
      <point x="492.989" y="82"/>
      <point x="382.416" y="-10"/>
    </contour>
    <contour>
      <point x="144.056" y="215" type="curve" smooth="yes"/>
      <point x="130.275" y="128"/>
      <point x="179.088" y="70"/>
      <point x="262.088" y="70" type="curve" smooth="yes"/>
      <point x="343.088" y="70"/>
      <point x="410.275" y="128"/>
      <point x="424.056" y="215" type="curve" smooth="yes"/>
      <point x="437.837" y="302"/>
      <point x="389.024" y="360"/>
      <point x="308.024" y="360" type="curve" smooth="yes"/>
      <point x="226.024" y="360"/>
      <point x="157.678" y="301"/>
    </contour>
  </outline>
</glyph>
<glyph name="eight" format="2">
  <advance width="600" height="975"/>
  <unicode hex="0038"/>
  <outline>
    <contour>
      <point x="304.173" y="342" type="curve" smooth="yes"/>
      <point x="386.173" y="342"/>
      <point x="432.461" y="287"/>
      <point x="419.472" y="205" type="curve" smooth="yes"/>
      <point x="406.642" y="124"/>
      <point x="342.296" y="65"/>
      <point x="260.296" y="65" type="curve" smooth="yes"/>
      <point x="178.296" y="65"/>
      <point x="132.642" y="124"/>
      <point x="145.472" y="205" type="curve" smooth="yes"/>
      <point x="158.461" y="287"/>
      <point x="222.173" y="342"/>
    </contour>
    <contour>
      <point x="353.752" y="655" type="curve" smooth="yes"/>
      <point x="428.752" y="655"/>
      <point x="468.149" y="607"/>
      <point x="456.744" y="535" type="curve" smooth="yes"/>
      <point x="445.181" y="462"/>
      <point x="387.627" y="408"/>
      <point x="314.627" y="408" type="curve" smooth="yes"/>
      <point x="241.627" y="408"/>
      <point x="201.181" y="462"/>
      <point x="212.744" y="535" type="curve" smooth="yes"/>
      <point x="224.149" y="607"/>
      <point x="278.752" y="655"/>
    </contour>
    <contour>
      <point x="365.632" y="730" type="curve" smooth="yes"/>
      <point x="237.632" y="730"/>
      <point x="138.435" y="653"/>
      <point x="120.378" y="539" type="curve" smooth="yes"/>
      <point x="107.706" y="459"/>
      <point x="149.093" y="392"/>
      <point x="225.034" y="379" type="curve"/>
      <point x="224.242" y="374" type="line"/>
      <point x="135.024" y="360"/>
      <point x="65.7776" y="289"/>
      <point x="51.2048" y="197" type="curve" smooth="yes"/>
      <point x="31.5632" y="73"/>
      <point x="107.416" y="-10"/>
      <point x="248.416" y="-10" type="curve" smooth="yes"/>
      <point x="389.416" y="-10"/>
      <point x="492.038" y="76"/>
      <point x="511.68" y="200" type="curve" smooth="yes"/>
      <point x="526.094" y="291"/>
      <point x="480.024" y="360"/>
      <point x="394.242" y="374" type="curve"/>
      <point x="395.034" y="379" type="line"/>
      <point x="475.093" y="392"/>
      <point x="537.547" y="458"/>
      <point x="550.378" y="539" type="curve" smooth="yes"/>
      <point x="568.435" y="653"/>
      <point x="493.632" y="730"/>
    </contour>
  </outline>
</glyph>
<glyph name="colon" format="2">
  <advance width="600" height="975"/>
  <unicode hex="003A"/>
  <outline>
    <contour>
      <point x="262.176" y="140" type="curve" smooth="yes"/>
      <point x="282.176" y="140" type="line" smooth="yes"/>
      <point x="325.423" y="140"/>
      <point x="352.146" y="108.247"/>
      <point x="345.296" y="65" type="curve" smooth="yes"/>
      <point x="338.347" y="21.1301"/>
      <point x="302.286" y="-10"/>
      <point x="258.416" y="-10" type="curve" smooth="yes"/>
      <point x="238.416" y="-10" type="line" smooth="yes"/>
      <point x="194.546" y="-10"/>
      <point x="168.347" y="21.1301"/>
      <point x="175.296" y="65" type="curve" smooth="yes"/>
      <point x="182.146" y="108.247"/>
      <point x="218.929" y="140"/>
    </contour>
    <contour>
      <point x="328.704" y="560" type="curve" smooth="yes"/>
      <point x="348.704" y="560" type="line" smooth="yes"/>
      <point x="391.951" y="560"/>
      <point x="418.674" y="528.247"/>
      <point x="411.824" y="485" type="curve" smooth="yes"/>
      <point x="404.875" y="441.13"/>
      <point x="368.814" y="410"/>
      <point x="324.944" y="410" type="curve" smooth="yes"/>
      <point x="304.944" y="410" type="line" smooth="yes"/>
      <point x="261.074" y="410"/>
      <point x="234.875" y="441.13"/>
      <point x="241.824" y="485" type="curve" smooth="yes"/>
      <point x="248.674" y="528.247"/>
      <point x="285.457" y="560"/>
    </contour>
  </outline>
</glyph>
<glyph name="semicolon" format="2">
  <advance width="600" height="975"/>
  <unicode hex="003B"/>
  <outline>
    <contour>
      <point x="353.918" y="151" type="line" name="iv01"/>
      <point x="174.656" y="-160" type="line" name="av01"/>
      <point x="94.656" y="-160" type="line"/>
      <point x="223.918" y="151" type="line"/>
    </contour>
    <contour>
      <point x="328.704" y="560" type="curve" smooth="yes"/>
      <point x="348.704" y="560" type="line" smooth="yes"/>
      <point x="391.951" y="560"/>
      <point x="418.674" y="528.247"/>
      <point x="411.824" y="485" type="curve" smooth="yes"/>
      <point x="404.875" y="441.13"/>
      <point x="368.814" y="410"/>
      <point x="324.944" y="410" type="curve" smooth="yes"/>
      <point x="304.944" y="410" type="line" smooth="yes"/>
      <point x="261.074" y="410"/>
      <point x="234.875" y="441.13"/>
      <point x="241.824" y="485" type="curve" smooth="yes"/>
      <point x="248.674" y="528.247"/>
      <point x="285.457" y="560"/>
    </contour>
  </outline>
</glyph>
<glyph name="greater" format="2">
  <advance width="600" height="975"/>
  <unicode hex="003E"/>
  <outline>
    <contour>
      <point x="129.248" y="595" type="line"/>
      <point x="115.784" y="510" type="line"/>
      <point x="401.549" y="357" type="line" smooth="yes"/>
      <point x="431.014" y="341"/>
      <point x="453.539" y="338"/>
      <point x="453.539" y="338" type="curve"/>
      <point x="452.43" y="331" type="line"/>
      <point x="452.43" y="331"/>
      <point x="428.48" y="325"/>
      <point x="393.946" y="309" type="curve" smooth="yes"/>
      <point x="60.1856" y="159" type="line"/>
      <point x="45.296" y="65" type="line"/>
      <point x="509.352" y="280" type="line"/>
      <point x="525.192" y="380" type="line"/>
    </contour>
  </outline>
</glyph>
<glyph name="at" format="2">
  <advance width="600" height="975"/>
  <unicode hex="0040"/>
  <outline>
    <contour>
      <point x="507.616" y="490" type="curve" smooth="yes"/>
      <point x="510.784" y="510" type="line" smooth="yes"/>
      <point x="526.782" y="611"/>
      <point x="473.544" y="660"/>
      <point x="369.544" y="660" type="curve" smooth="yes"/>
      <point x="249.544" y="660"/>
      <point x="166.714" y="579"/>
      <point x="144.696" y="440" type="curve" smooth="yes"/>
      <point x="94.8" y="125" type="line" smooth="yes"/>
      <point x="74.3664" y="-4"/>
      <point x="140.744" y="-90"/>
      <point x="260.744" y="-90" type="curve" smooth="yes"/>
      <point x="330.744" y="-90" type="line"/>
      <point x="318.864" y="-165" type="line"/>
      <point x="248.864" y="-165" type="line" smooth="yes"/>
      <point x="77.864" y="-165"/>
      <point x="-13.2368" y="-52"/>
      <point x="14.8" y="125" type="curve" smooth="yes"/>
      <point x="64.696" y="440" type="line" smooth="yes"/>
      <point x="93.208" y="620"/>
      <point x="212.632" y="730"/>
      <point x="380.632" y="730" type="curve" smooth="yes"/>
      <point x="532.632" y="730"/>
      <point x="613.435" y="653"/>
      <point x="590.784" y="510" type="curve" smooth="yes"/>
      <point x="521.88" y="75" type="line"/>
      <point x="450.88" y="75" type="line"/>
      <point x="472.006" y="221" type="line"/>
      <point x="465.006" y="221" type="line"/>
      <point x="492.093" y="392" type="line"/>
      <point x="497.093" y="392" type="line"/>
      <point x="497.093" y="392"/>
      <point x="499.696" y="440"/>
    </contour>
    <contour>
      <point x="409.429" y="432" type="curve" smooth="yes"/>
      <point x="364.429" y="432"/>
      <point x="331.934" y="391"/>
      <point x="320.688" y="320" type="curve" smooth="yes"/>
      <point x="308.016" y="240" type="line" smooth="yes"/>
      <point x="296.77" y="169"/>
      <point x="316.275" y="128"/>
      <point x="361.275" y="128" type="curve" smooth="yes"/>
      <point x="421.275" y="128"/>
      <point x="456.611" y="168"/>
      <point x="469.6" y="250" type="curve"/>
      <point x="484.6" y="250" type="line"/>
      <point x="465.434" y="129"/>
      <point x="412.296" y="65"/>
      <point x="330.296" y="65" type="curve" smooth="yes"/>
      <point x="247.296" y="65"/>
      <point x="210.434" y="129"/>
      <point x="228.016" y="240" type="curve" smooth="yes"/>
      <point x="240.688" y="320" type="line" smooth="yes"/>
      <point x="258.112" y="430"/>
      <point x="316.408" y="495"/>
      <point x="398.408" y="495" type="curve" smooth="yes"/>
      <point x="480.408" y="495"/>
      <point x="513.429" y="432"/>
      <point x="494.262" y="311" type="curve"/>
      <point x="479.262" y="311" type="line"/>
      <point x="492.093" y="392"/>
      <point x="469.429" y="432"/>
    </contour>
  </outline>
</glyph>
<glyph name="C" format="2">
  <advance width="600" height="975"/>
  <unicode hex="0043"/>
  <outline>
    <contour>
      <point x="371.632" y="730" type="curve" smooth="yes"/>
      <point x="236.632" y="730"/>
      <point x="141.118" y="651"/>
      <point x="120.368" y="520" type="curve" smooth="yes"/>
      <point x="69.68" y="200" type="line" smooth="yes"/>
      <point x="48.9296" y="69"/>
      <point x="119.416" y="-10"/>
      <point x="254.416" y="-10" type="curve" smooth="yes"/>
      <point x="377.416" y="-10"/>
      <point x="469.821" y="62"/>
      <point x="503.304" y="185" type="curve"/>
      <point x="415.304" y="185" type="line"/>
      <point x="395.899" y="113"/>
      <point x="339.771" y="68"/>
      <point x="266.771" y="68" type="curve" smooth="yes"/>
      <point x="186.771" y="68"/>
      <point x="145.008" y="120"/>
      <point x="158.472" y="205" type="curve" smooth="yes"/>
      <point x="207.576" y="515" type="line" smooth="yes"/>
      <point x="220.882" y="599"/>
      <point x="279.277" y="652"/>
      <point x="359.277" y="652" type="curve" smooth="yes"/>
      <point x="430.277" y="652"/>
      <point x="474.149" y="607"/>
      <point x="470.744" y="535" type="curve"/>
      <point x="558.744" y="535" type="line"/>
      <point x="563.91" y="656"/>
      <point x="492.632" y="730"/>
    </contour>
  </outline>
</glyph>
<glyph name="F" format="2">
  <advance width="600" height="975"/>
  <unicode hex="0046"/>
  <outline>
    <contour>
      <point x="161.206" y="721" type="line"/>
      <point x="589.206" y="721" type="line"/>
      <point x="576.534" y="641" type="line"/>
      <point x="234.534" y="641" type="line"/>
      <point x="197.627" y="408" type="line"/>
      <point x="513.627" y="408" type="line"/>
      <point x="500.955" y="328" type="line"/>
      <point x="186.955" y="328" type="line"/>
      <point x="135" y="0" type="line"/>
      <point x="47" y="0" type="line"/>
    </contour>
  </outline>
</glyph>
<glyph name="G" format="2">
  <advance width="600" height="975"/>
  <unicode hex="0047"/>
  <outline>
    <contour>
      <point x="292.608" y="370" type="line"/>
      <point x="528.608" y="370" type="line"/>
      <point x="502.472" y="205" type="line" smooth="yes"/>
      <point x="481.246" y="71"/>
      <point x="385.416" y="-10"/>
      <point x="248.416" y="-10" type="curve" smooth="yes"/>
      <point x="114.416" y="-10"/>
      <point x="41.7216" y="74"/>
      <point x="62.472" y="205" type="curve" smooth="yes"/>
      <point x="111.576" y="515" type="line" smooth="yes"/>
      <point x="132.643" y="648"/>
      <point x="229.632" y="730"/>
      <point x="365.632" y="730" type="curve" smooth="yes"/>
      <point x="486.632" y="730"/>
      <point x="556.494" y="666"/>
      <point x="562.12" y="550" type="curve"/>
      <point x="470.12" y="550" type="line"/>
      <point x="466.941" y="612"/>
      <point x="422.96" y="650"/>
      <point x="352.96" y="650" type="curve" smooth="yes"/>
      <point x="272.96" y="650"/>
      <point x="214.882" y="599"/>
      <point x="201.576" y="515" type="curve" smooth="yes"/>
      <point x="152.472" y="205" type="line" smooth="yes"/>
      <point x="139.166" y="121"/>
      <point x="181.088" y="70"/>
      <point x="261.088" y="70" type="curve" smooth="yes"/>
      <point x="341.088" y="70"/>
      <point x="399.166" y="121"/>
      <point x="412.472" y="205" type="curve" smooth="yes"/>
      <point x="425.936" y="290" type="line"/>
      <point x="279.936" y="290" type="line"/>
    </contour>
  </outline>
</glyph>
<glyph name="I" format="2">
  <advance width="600" height="975"/>
  <unicode hex="0049"/>
  <outline>
    <contour>
      <point x="160.048" y="720" type="line"/>
      <point x="568.048" y="720" type="line"/>
      <point x="555.534" y="641" type="line"/>
      <point x="396.534" y="641" type="line"/>
      <point x="307.514" y="79" type="line"/>
      <point x="466.514" y="79" type="line"/>
      <point x="454" y="0" type="line"/>
      <point x="46" y="0" type="line"/>
      <point x="58.5136" y="79" type="line"/>
      <point x="217.514" y="79" type="line"/>
      <point x="306.534" y="641" type="line"/>
      <point x="147.534" y="641" type="line"/>
    </contour>
  </outline>
</glyph>
<glyph name="L" format="2">
  <advance width="600" height="975"/>
  <unicode hex="004C"/>
  <outline>
    <contour>
      <point x="259.048" y="720" type="line" name="at01"/>
      <point x="157.989" y="82" type="line" name="sv01"/>
      <point x="497.989" y="82" type="line"/>
      <point x="485" y="0" type="line" name="ab01"/>
      <point x="55" y="0" type="line" name="dh01"/>
      <point x="169.048" y="720" type="line"/>
    </contour>
  </outline>
</glyph>
<glyph name="N" format="2">
  <advance width="600" height="975"/>
  <unicode hex="004E"/>
  <outline>
    <contour>
      <point x="579.048" y="720" type="line"/>
      <point x="465" y="0" type="line"/>
      <point x="351" y="0" type="line"/>
      <point x="237.666" y="484" type="line" smooth="yes"/>
      <point x="224.011" y="543"/>
      <point x="219.366" y="621"/>
      <point x="219.366" y="621" type="curve"/>
      <point x="211.366" y="621" type="line"/>
      <point x="211.366" y="621"/>
      <point x="210.813" y="567"/>
      <point x="198.933" y="492" type="curve" smooth="yes"/>
      <point x="121" y="0" type="line"/>
      <point x="35" y="0" type="line"/>
      <point x="149.048" y="720" type="line"/>
      <point x="263.048" y="720" type="line"/>
      <point x="379.541" y="237" type="line" smooth="yes"/>
      <point x="390.938" y="189"/>
      <point x="396.84" y="100"/>
      <point x="396.84" y="100" type="curve"/>
      <point x="404.84" y="100" type="line"/>
      <point x="405.84" y="100"/>
      <point x="404.344" y="160"/>
      <point x="415.432" y="230" type="curve" smooth="yes"/>
      <point x="493.048" y="720" type="line"/>
    </contour>
  </outline>
</glyph>
<glyph name="P" format="2">
  <advance width="600" height="975"/>
  <unicode hex="0050"/>
  <outline>
    <contour>
      <point x="130" y="0" type="line"/>
      <point x="40" y="0" type="line"/>
      <point x="154.048" y="720" type="line"/>
      <point x="397.048" y="720" type="line" smooth="yes"/>
      <point x="527.048" y="720"/>
      <point x="600.584" y="635"/>
      <point x="580.784" y="510" type="curve" smooth="yes"/>
      <point x="560.35" y="381"/>
      <point x="463.52" y="300"/>
      <point x="330.52" y="300" type="curve" smooth="yes"/>
      <point x="177.52" y="300" type="line"/>
    </contour>
    <contour>
      <point x="343.192" y="380" type="line" smooth="yes"/>
      <point x="417.192" y="380"/>
      <point x="475.429" y="432"/>
      <point x="487.784" y="510" type="curve" smooth="yes"/>
      <point x="500.139" y="588"/>
      <point x="458.376" y="640"/>
      <point x="384.376" y="640" type="curve" smooth="yes"/>
      <point x="231.376" y="640" type="line"/>
      <point x="190.192" y="380" type="line"/>
    </contour>
  </outline>
</glyph>
<glyph name="R" format="2">
  <advance width="600" height="975"/>
  <unicode hex="0052"/>
  <outline>
    <contour>
      <point x="130" y="0" type="line"/>
      <point x="40" y="0" type="line"/>
      <point x="154.048" y="720" type="line"/>
      <point x="384.048" y="720" type="line" smooth="yes"/>
      <point x="514.048" y="720"/>
      <point x="587.584" y="635"/>
      <point x="567.784" y="510" type="curve" smooth="yes"/>
      <point x="547.35" y="381"/>
      <point x="450.52" y="300"/>
      <point x="317.52" y="300" type="curve" smooth="yes"/>
      <point x="177.52" y="300" type="line"/>
    </contour>
    <contour>
      <point x="330.192" y="380" type="line" smooth="yes"/>
      <point x="405.192" y="380"/>
      <point x="462.429" y="432"/>
      <point x="474.784" y="510" type="curve" smooth="yes"/>
      <point x="487.139" y="588"/>
      <point x="445.376" y="640"/>
      <point x="371.376" y="640" type="curve" smooth="yes"/>
      <point x="231.376" y="640" type="line"/>
      <point x="190.192" y="380" type="line"/>
    </contour>
    <contour>
      <point x="293.114" y="329" type="line"/>
      <point x="387.114" y="329" type="line"/>
      <point x="497" y="0" type="line"/>
      <point x="397" y="0" type="line"/>
    </contour>
  </outline>
</glyph>
<glyph name="V" format="2">
  <advance width="600" height="975"/>
  <unicode hex="0056"/>
  <outline>
    <contour>
      <point x="252.504" y="60" type="curve"/>
      <point x="256.504" y="60" type="line"/>
      <point x="256.504" y="60"/>
      <point x="268.998" y="101"/>
      <point x="291.869" y="157" type="curve" smooth="yes"/>
      <point x="524.048" y="720" type="line"/>
      <point x="620.048" y="720" type="line"/>
      <point x="310" y="0" type="line"/>
      <point x="184" y="0" type="line"/>
      <point x="108.048" y="720" type="line"/>
      <point x="200.048" y="720" type="line"/>
      <point x="248.869" y="157" type="line" smooth="yes"/>
      <point x="253.998" y="101"/>
      <point x="252.504" y="60"/>
    </contour>
  </outline>
</glyph>
<glyph name="W" format="2">
  <advance width="600" height="975"/>
  <unicode hex="0057"/>
  <outline>
    <contour>
      <point x="408.048" y="720" type="line" name="at01"/>
      <point x="390.73" y="194" type="line" smooth="yes"/>
      <point x="388.384" y="135"/>
      <point x="380.712" y="55"/>
      <point x="380.712" y="55" type="curve" name="mh03"/>
      <point x="394.712" y="55" type="line" name="mh04"/>
      <point x="394.712" y="55"/>
      <point x="412.226" y="134"/>
      <point x="426.73" y="194" type="curve" smooth="yes"/>
      <point x="556.048" y="720" type="line" name="at02"/>
      <point x="638.048" y="720" type="line"/>
      <point x="452" y="0" type="line" name="ab01"/>
      <point x="324" y="0" type="line"/>
      <point x="345.794" y="529" type="line" smooth="yes"/>
      <point x="348.99" y="606"/>
      <point x="360.861" y="662"/>
      <point x="361.861" y="662" type="curve"/>
      <point x="344.861" y="662" type="line"/>
      <point x="344.861" y="662"/>
      <point x="338.99" y="606"/>
      <point x="317.794" y="529" type="curve" smooth="yes"/>
      <point x="173" y="0" type="line" name="ab02"/>
      <point x="45" y="0" type="line"/>
      <point x="89.048" y="720" type="line" name="at03"/>
      <point x="174.048" y="720" type="line"/>
      <point x="137.73" y="194" type="line" smooth="yes"/>
      <point x="133.226" y="134"/>
      <point x="122.712" y="55"/>
      <point x="122.712" y="55" type="curve" name="mh02"/>
      <point x="135.712" y="55" type="line" name="mh01"/>
      <point x="135.712" y="55"/>
      <point x="151.226" y="134"/>
      <point x="168.73" y="194" type="curve" smooth="yes"/>
      <point x="320.048" y="720" type="line" name="mh05"/>
    </contour>
  </outline>
</glyph>
<glyph name="Z" format="2">
  <advance width="600" height="975"/>
  <unicode hex="005A"/>
  <outline>
    <contour>
      <point x="568.048" y="720" type="line"/>
      <point x="555.218" y="639" type="line"/>
      <point x="147.197" y="77" type="line"/>
      <point x="146.88" y="75" type="line"/>
      <point x="217.514" y="79" type="line"/>
      <point x="477.514" y="79" type="line"/>
      <point x="465" y="0" type="line"/>
      <point x="35" y="0" type="line"/>
      <point x="47.672" y="80" type="line"/>
      <point x="455.693" y="642" type="line"/>
      <point x="456.01" y="644" type="line"/>
      <point x="383.534" y="641" type="line"/>
      <point x="144.534" y="641" type="line"/>
      <point x="157.048" y="720" type="line"/>
    </contour>
  </outline>
</glyph>
<glyph name="backslash" format="2">
  <advance width="600" height="975"/>
  <unicode hex="005C"/>
  <outline>
    <contour>
      <point x="233.472" y="830" type="line"/>
      <point x="142.472" y="830" type="line"/>
      <point x="348.576" y="-110" type="line"/>
      <point x="439.576" y="-110" type="line"/>
    </contour>
  </outline>
</glyph>
<glyph name="underscore" format="2">
  <advance width="600" height="975"/>
  <unicode hex="005F"/>
  <outline>
    <contour>
      <point x="16.232" y="-25" type="line"/>
      <point x="496.232" y="-25" type="line"/>
      <point x="484.352" y="-100" type="line"/>
      <point x="4.352" y="-100" type="line"/>
    </contour>
  </outline>
</glyph>
<glyph name="grave" format="2">
  <advance width="600" height="975"/>
  <unicode hex="0060"/>
  <outline>
    <contour>
      <point x="256.344" y="785" type="line" name="av01"/>
      <point x="354.168" y="645" type="line"/>
      <point x="445.168" y="645" type="line" name="av02"/>
      <point x="352.344" y="785" type="line"/>
    </contour>
  </outline>
</glyph>
<glyph name="a" format="2">
  <advance width="600" height="975"/>
  <unicode hex="0061"/>
  <outline>
    <contour>
      <point x="205.416" y="-10" type="curve" smooth="yes"/>
      <point x="284.416" y="-10"/>
      <point x="340.752" y="30"/>
      <point x="368.048" y="95" type="curve"/>
      <point x="376.149" y="95" type="line"/>
      <point x="369.381" y="37.6255"/>
      <point x="405.177" y="-3"/>
      <point x="462.525" y="-3" type="curve" smooth="yes"/>
      <point x="526.525" y="-3" type="line"/>
      <point x="538.88" y="75" type="line"/>
      <point x="495.88" y="75" type="line" smooth="yes"/>
      <point x="471.88" y="75"/>
      <point x="458.414" y="91"/>
      <point x="462.533" y="117" type="curve" smooth="yes"/>
      <point x="531.12" y="550" type="line"/>
      <point x="448.12" y="550" type="line"/>
      <point x="433.072" y="455" type="line"/>
      <point x="425.072" y="455" type="line"/>
      <point x="418.368" y="520"/>
      <point x="374.704" y="560"/>
      <point x="295.704" y="560" type="curve" smooth="yes"/>
      <point x="185.704" y="560"/>
      <point x="101.24" y="475"/>
      <point x="80.648" y="345" type="curve" smooth="yes"/>
      <point x="58.472" y="205" type="line" smooth="yes"/>
      <point x="37.88" y="75"/>
      <point x="95.416" y="-10"/>
    </contour>
    <contour>
      <point x="249.771" y="68" type="curve" smooth="yes"/>
      <point x="171.771" y="68"/>
      <point x="133.008" y="120"/>
      <point x="146.472" y="205" type="curve" smooth="yes"/>
      <point x="168.648" y="345" type="line" smooth="yes"/>
      <point x="182.112" y="430"/>
      <point x="237.349" y="482"/>
      <point x="315.349" y="482" type="curve" smooth="yes"/>
      <point x="387.349" y="482"/>
      <point x="424.112" y="430"/>
      <point x="410.648" y="345" type="curve" smooth="yes"/>
      <point x="388.472" y="205" type="line" smooth="yes"/>
      <point x="375.008" y="120"/>
      <point x="321.771" y="68"/>
    </contour>
  </outline>
</glyph>
<glyph name="d" format="2">
  <advance width="600" height="975"/>
  <unicode hex="0064"/>
  <outline>
    <contour>
      <point x="84.648" y="345" type="line" smooth="yes" name="dh01"/>
      <point x="105.715" y="478"/>
      <point x="192.704" y="560"/>
      <point x="303.704" y="560" type="curve" smooth="yes" name="at02"/>
      <point x="384.704" y="560"/>
      <point x="434.526" y="521"/>
      <point x="441.072" y="455" type="curve"/>
      <point x="449.072" y="455" type="line"/>
      <point x="449.072" y="455"/>
      <point x="453.576" y="515"/>
      <point x="459.12" y="550" type="curve" smooth="yes"/>
      <point x="486.048" y="720" type="line" name="at01"/>
      <point x="576.048" y="720" type="line" name="dh03"/>
      <point x="462" y="0" type="line"/>
      <point x="377" y="0" type="line" name="sh01"/>
      <point x="392.048" y="95" type="line"/>
      <point x="384.048" y="95" type="line"/>
      <point x="356.594" y="29"/>
      <point x="294.416" y="-10"/>
      <point x="213.416" y="-10" type="curve" smooth="yes" name="ab01"/>
      <point x="102.416" y="-10"/>
      <point x="41.4048" y="72"/>
      <point x="62.472" y="205" type="curve" smooth="yes"/>
    </contour>
    <contour>
      <point x="259.771" y="68" type="curve" smooth="yes" name="sv01"/>
      <point x="333.771" y="68"/>
      <point x="391.325" y="122"/>
      <point x="404.472" y="205" type="curve" smooth="yes" name="sh02"/>
      <point x="426.648" y="345" type="line" smooth="yes"/>
      <point x="439.795" y="428"/>
      <point x="399.349" y="482"/>
      <point x="325.349" y="482" type="curve" smooth="yes" name="sv02"/>
      <point x="244.349" y="482"/>
      <point x="188.27" y="431"/>
      <point x="174.648" y="345" type="curve" smooth="yes" name="dh02"/>
      <point x="152.472" y="205" type="line" smooth="yes"/>
      <point x="139.166" y="121"/>
      <point x="179.771" y="68"/>
    </contour>
  </outline>
</glyph>
<glyph name="f" format="2">
  <advance width="600" height="975"/>
  <unicode hex="0066"/>
  <outline>
    <contour>
      <point x="599.048" y="720" type="line"/>
      <point x="438.048" y="720" type="line" smooth="yes"/>
      <point x="342.048" y="720"/>
      <point x="275.653" y="667"/>
      <point x="261.872" y="580" type="curve" smooth="yes"/>
      <point x="248.408" y="495" type="line"/>
      <point x="88.408" y="495" type="line"/>
      <point x="75.4192" y="413" type="line"/>
      <point x="235.419" y="413" type="line"/>
      <point x="172.376" y="15" type="line" smooth="yes"/>
      <point x="161.763" y="-52"/>
      <point x="117.744" y="-90"/>
      <point x="50.744" y="-90" type="curve" smooth="yes"/>
      <point x="4.744" y="-90" type="line"/>
      <point x="-7.928" y="-170" type="line"/>
      <point x="37.072" y="-170" type="line" smooth="yes"/>
      <point x="162.072" y="-170"/>
      <point x="243.685" y="-103"/>
      <point x="262.376" y="15" type="curve" smooth="yes"/>
      <point x="325.419" y="413" type="line"/>
      <point x="550.419" y="413" type="line"/>
      <point x="563.408" y="495" type="line"/>
      <point x="338.408" y="495" type="line"/>
      <point x="351.872" y="580" type="line" smooth="yes"/>
      <point x="357.891" y="618"/>
      <point x="384.059" y="638"/>
      <point x="425.059" y="638" type="curve" smooth="yes"/>
      <point x="586.059" y="638" type="line"/>
    </contour>
  </outline>
</glyph>
<glyph name="h" format="2">
  <advance width="600" height="975"/>
  <unicode hex="0068"/>
  <outline>
    <contour>
      <point x="152.048" y="720" type="line" name="at01"/>
      <point x="242.048" y="720" type="line" name="dh01"/>
      <point x="215.12" y="550" type="line" smooth="yes"/>
      <point x="209.259" y="513"/>
      <point x="195.072" y="455"/>
      <point x="195.072" y="455" type="curve"/>
      <point x="203.072" y="455" type="line"/>
      <point x="230.526" y="521"/>
      <point x="292.704" y="560"/>
      <point x="370.704" y="560" type="curve" smooth="yes" name="at02"/>
      <point x="477.704" y="560"/>
      <point x="538.874" y="479"/>
      <point x="520.974" y="366" type="curve" smooth="yes"/>
      <point x="463" y="0" type="line" name="ab01"/>
      <point x="373" y="0" type="line" name="dh02"/>
      <point x="428.598" y="351" type="line" smooth="yes"/>
      <point x="441.746" y="434"/>
      <point x="404.666" y="484"/>
      <point x="328.666" y="484" type="curve" smooth="yes" name="sv01"/>
      <point x="252.666" y="484"/>
      <point x="196.112" y="430"/>
      <point x="182.648" y="345" type="curve" smooth="yes" name="sh01"/>
      <point x="128" y="0" type="line" name="ab02"/>
      <point x="38" y="0" type="line"/>
    </contour>
  </outline>
</glyph>
<glyph name="i" format="2">
  <advance width="600" height="750"/>
  <unicode hex="0069"/>
  <outline>
    <contour>
      <point x="157.12" y="550" type="line"/>
      <point x="422.12" y="550" type="line"/>
      <point x="347.989" y="82" type="line"/>
      <point x="512.989" y="82" type="line"/>
      <point x="500" y="0" type="line"/>
      <point x="45" y="0" type="line"/>
      <point x="57.9888" y="82" type="line"/>
      <point x="257.989" y="82" type="line"/>
      <point x="319.131" y="468" type="line"/>
      <point x="144.131" y="468" type="line"/>
    </contour>
    <contour>
      <point x="386.176" y="765" type="curve" smooth="yes"/>
      <point x="406.176" y="765" type="line" smooth="yes"/>
      <point x="445.176" y="765"/>
      <point x="467.216" y="740"/>
      <point x="461.514" y="704" type="curve" smooth="yes"/>
      <point x="455.811" y="668"/>
      <point x="426.168" y="645"/>
      <point x="387.168" y="645" type="curve" smooth="yes"/>
      <point x="367.168" y="645" type="line" smooth="yes"/>
      <point x="328.168" y="645"/>
      <point x="305.653" y="667"/>
      <point x="311.434" y="703.5" type="curve" smooth="yes"/>
      <point x="317.216" y="740"/>
      <point x="347.176" y="765"/>
    </contour>
  </outline>
</glyph>
<glyph name="k" format="2">
  <advance width="600" height="975"/>
  <unicode hex="006B"/>
  <outline>
    <contour>
      <point x="248.632" y="730" type="line"/>
      <point x="183.688" y="320" type="line"/>
      <point x="287.688" y="320" type="line"/>
      <point x="492.12" y="550" type="line"/>
      <point x="599.12" y="550" type="line"/>
      <point x="360.035" y="278" type="line"/>
      <point x="515" y="0" type="line"/>
      <point x="413" y="0" type="line"/>
      <point x="282.016" y="240" type="line"/>
      <point x="171.016" y="240" type="line"/>
      <point x="133" y="0" type="line"/>
      <point x="43" y="0" type="line"/>
      <point x="158.632" y="730" type="line"/>
    </contour>
  </outline>
</glyph>
<glyph name="o" format="2">
  <advance width="600" height="750"/>
  <unicode hex="006F"/>
  <outline>
    <contour>
      <point x="152.472" y="205" type="curve" smooth="yes"/>
      <point x="174.648" y="345" type="line" smooth="yes"/>
      <point x="187.795" y="428"/>
      <point x="247.032" y="480"/>
      <point x="326.032" y="480" type="curve" smooth="yes"/>
      <point x="406.032" y="480"/>
      <point x="447.954" y="429"/>
      <point x="434.648" y="345" type="curve" smooth="yes"/>
      <point x="412.472" y="205" type="line" smooth="yes"/>
      <point x="399.166" y="121"/>
      <point x="341.088" y="70"/>
      <point x="261.088" y="70" type="curve" smooth="yes"/>
      <point x="180.088" y="70"/>
      <point x="139.166" y="121"/>
    </contour>
    <contour>
      <point x="62.472" y="205" type="line" smooth="yes"/>
      <point x="41.2464" y="71"/>
      <point x="111.416" y="-10"/>
      <point x="248.416" y="-10" type="curve" smooth="yes"/>
      <point x="384.416" y="-10"/>
      <point x="481.405" y="72"/>
      <point x="502.472" y="205" type="curve" smooth="yes"/>
      <point x="524.806" y="346" type="line" smooth="yes"/>
      <point x="546.032" y="480"/>
      <point x="475.704" y="560"/>
      <point x="338.704" y="560" type="curve" smooth="yes"/>
      <point x="203.704" y="560"/>
      <point x="105.557" y="477"/>
      <point x="84.648" y="345" type="curve" smooth="yes"/>
    </contour>
  </outline>
</glyph>
<glyph name="p" format="2">
  <advance width="600" height="750"/>
  <unicode hex="0070"/>
  <outline>
    <contour>
      <point x="125.12" y="550" type="line"/>
      <point x="210.12" y="550" type="line" name="sh02"/>
      <point x="195.072" y="455" type="line"/>
      <point x="203.072" y="455" type="line" name="sh03"/>
      <point x="230.526" y="521"/>
      <point x="292.704" y="560"/>
      <point x="373.704" y="560" type="curve" smooth="yes" name="at01"/>
      <point x="484.704" y="560"/>
      <point x="544.765" y="472"/>
      <point x="524.648" y="345" type="curve" smooth="yes"/>
      <point x="502.472" y="205" type="line" smooth="yes" name="sh04"/>
      <point x="481.088" y="70"/>
      <point x="398.416" y="-10"/>
      <point x="283.416" y="-10" type="curve" smooth="yes" name="ab02"/>
      <point x="202.416" y="-10"/>
      <point x="152.594" y="29"/>
      <point x="146.048" y="95" type="curve" name="sh05"/>
      <point x="138.048" y="95" type="line" name="sh06"/>
      <point x="138.048" y="95"/>
      <point x="133.544" y="35"/>
      <point x="128" y="0" type="curve" smooth="yes"/>
      <point x="101.072" y="-170" type="line" name="ab01"/>
      <point x="11.072" y="-170" type="line" name="sh01"/>
    </contour>
    <contour>
      <point x="182.648" y="345" type="curve" smooth="yes"/>
      <point x="160.472" y="205" type="line" smooth="yes" name="sh07"/>
      <point x="147.325" y="122"/>
      <point x="187.771" y="68"/>
      <point x="261.771" y="68" type="curve" smooth="yes" name="sv01"/>
      <point x="341.771" y="68"/>
      <point x="399.166" y="121"/>
      <point x="412.472" y="205" type="curve" smooth="yes" name="ah01"/>
      <point x="434.648" y="345" type="line" smooth="yes"/>
      <point x="448.27" y="431"/>
      <point x="408.349" y="482"/>
      <point x="327.349" y="482" type="curve" smooth="yes" name="sv02"/>
      <point x="253.349" y="482"/>
      <point x="195.795" y="428"/>
    </contour>
  </outline>
</glyph>
<glyph name="s" format="2">
  <advance width="600" height="975"/>
  <unicode hex="0073"/>
  <outline>
    <contour>
      <point x="233.416" y="-10" type="line" smooth="yes"/>
      <point x="120.416" y="-10"/>
      <point x="49.4448" y="47"/>
      <point x="53.384" y="135" type="curve"/>
      <point x="141.384" y="135" type="line"/>
      <point x="143.206" y="96"/>
      <point x="185.088" y="70"/>
      <point x="246.088" y="70" type="curve" smooth="yes"/>
      <point x="274.088" y="70" type="line" smooth="yes"/>
      <point x="345.088" y="70"/>
      <point x="393.157" y="102"/>
      <point x="401.295" y="153.377" type="curve" smooth="yes"/>
      <point x="408.205" y="197"/>
      <point x="381.64" y="225"/>
      <point x="322.066" y="234" type="curve" smooth="yes"/>
      <point x="240.966" y="246" type="line" smooth="yes"/>
      <point x="137.342" y="261"/>
      <point x="93.5792" y="313"/>
      <point x="107.994" y="404" type="curve" smooth="yes"/>
      <point x="123.517" y="502"/>
      <point x="204.704" y="560"/>
      <point x="328.704" y="560" type="curve" smooth="yes"/>
      <point x="356.704" y="560" type="line" smooth="yes"/>
      <point x="460.704" y="560"/>
      <point x="528.15" y="506"/>
      <point x="527.686" y="421" type="curve"/>
      <point x="439.686" y="421" type="line"/>
      <point x="437.389" y="457"/>
      <point x="399.032" y="480"/>
      <point x="344.032" y="480" type="curve" smooth="yes"/>
      <point x="316.032" y="480" type="line" smooth="yes"/>
      <point x="248.032" y="480"/>
      <point x="203.755" y="453"/>
      <point x="195.351" y="399.944" type="curve" smooth="yes"/>
      <point x="188.707" y="358"/>
      <point x="210.064" y="335"/>
      <point x="266.797" y="327" type="curve" smooth="yes"/>
      <point x="347.896" y="315" type="line" smooth="yes"/>
      <point x="458.362" y="299"/>
      <point x="503.966" y="246"/>
      <point x="489.394" y="154" type="curve" smooth="yes"/>
      <point x="472.92" y="50"/>
      <point x="389.416" y="-10"/>
      <point x="261.416" y="-10" type="curve" smooth="yes"/>
    </contour>
  </outline>
</glyph>
<glyph name="t" format="2">
  <advance width="600" height="975"/>
  <unicode hex="0074"/>
  <outline>
    <contour>
      <point x="284.048" y="720" type="line"/>
      <point x="374.048" y="720" type="line"/>
      <point x="347.12" y="550" type="line"/>
      <point x="562.12" y="550" type="line"/>
      <point x="549.131" y="468" type="line"/>
      <point x="334.131" y="468" type="line"/>
      <point x="282.493" y="142" type="line" smooth="yes"/>
      <point x="276.632" y="105"/>
      <point x="297.989" y="82"/>
      <point x="337.989" y="82" type="curve" smooth="yes"/>
      <point x="477.989" y="82" type="line"/>
      <point x="465" y="0" type="line"/>
      <point x="325" y="0" type="line" smooth="yes"/>
      <point x="231" y="0"/>
      <point x="179.029" y="57"/>
      <point x="192.493" y="142" type="curve" smooth="yes"/>
      <point x="244.131" y="468" type="line"/>
      <point x="84.1312" y="468" type="line"/>
      <point x="97.12" y="550" type="line"/>
      <point x="257.12" y="550" type="line"/>
    </contour>
  </outline>
</glyph>
<glyph name="w" format="2">
  <advance width="600" height="975"/>
  <unicode hex="0077"/>
  <outline>
    <contour>
      <point x="376.12" y="550" type="line"/>
      <point x="375.403" y="173" type="line" smooth="yes"/>
      <point x="375.325" y="122"/>
      <point x="371.603" y="48"/>
      <point x="371.603" y="48" type="curve"/>
      <point x="385.603" y="48" type="line"/>
      <point x="385.603" y="48"/>
      <point x="401.483" y="123"/>
      <point x="416.403" y="173" type="curve" smooth="yes"/>
      <point x="526.12" y="550" type="line"/>
      <point x="606.12" y="550" type="line"/>
      <point x="442" y="0" type="line"/>
      <point x="319" y="0" type="line"/>
      <point x="321.618" y="389" type="line" smooth="yes"/>
      <point x="321.746" y="434"/>
      <point x="327.616" y="490"/>
      <point x="327.616" y="490" type="curve"/>
      <point x="314.616" y="490" type="line"/>
      <point x="314.616" y="490"/>
      <point x="309.746" y="434"/>
      <point x="295.618" y="389" type="curve" smooth="yes"/>
      <point x="177" y="0" type="line"/>
      <point x="57" y="0" type="line"/>
      <point x="67.12" y="550" type="line"/>
      <point x="148.12" y="550" type="line"/>
      <point x="137.403" y="173" type="line" smooth="yes"/>
      <point x="135.642" y="124"/>
      <point x="125.603" y="48"/>
      <point x="125.603" y="48" type="curve"/>
      <point x="138.603" y="48" type="line"/>
      <point x="138.603" y="48"/>
      <point x="157.642" y="124"/>
      <point x="173.403" y="173" type="curve" smooth="yes"/>
      <point x="291.12" y="550" type="line"/>
    </contour>
  </outline>
</glyph>
<glyph name="z" format="2">
  <advance width="600" height="975"/>
  <unicode hex="007A"/>
  <outline>
    <contour>
      <point x="125.12" y="550" type="line"/>
      <point x="546.12" y="550" type="line"/>
      <point x="529.646" y="446" type="line"/>
      <point x="139.989" y="82" type="line"/>
      <point x="139.038" y="76" type="line"/>
      <point x="139.038" y="76"/>
      <point x="177.672" y="80"/>
      <point x="214.672" y="80" type="curve" smooth="yes"/>
      <point x="482.672" y="80" type="line"/>
      <point x="470" y="0" type="line"/>
      <point x="30" y="0" type="line"/>
      <point x="46.3152" y="103" type="line"/>
      <point x="431.973" y="467" type="line"/>
      <point x="432.923" y="473" type="line"/>
      <point x="432.923" y="473"/>
      <point x="396.448" y="470"/>
      <point x="358.448" y="470" type="curve" smooth="yes"/>
      <point x="112.448" y="470" type="line"/>
    </contour>
  </outline>
</glyph>
<glyph name="bar" format="2">
  <advance width="600" height="975"/>
  <unicode hex="007C"/>
  <outline>
    <contour>
      <point x="336.056" y="830" type="line"/>
      <point x="426.056" y="830" type="line"/>
      <point x="277.16" y="-110" type="line"/>
      <point x="187.16" y="-110" type="line"/>
    </contour>
  </outline>
</glyph>
<glyph name="asciitilde" format="2">
  <advance width="600" height="975"/>
  <unicode hex="007E"/>
  <outline>
    <contour>
      <point x="398.6" y="250" type="curve" smooth="yes"/>
      <point x="281.6" y="250"/>
      <point x="276.192" y="380"/>
      <point x="207.192" y="380" type="curve" smooth="yes"/>
      <point x="177.192" y="380"/>
      <point x="157.182" y="361"/>
      <point x="151.48" y="325" type="curve" smooth="yes"/>
      <point x="140.392" y="255" type="line"/>
      <point x="55.392" y="255" type="line"/>
      <point x="66.48" y="325" type="line" smooth="yes"/>
      <point x="79.3104" y="406"/>
      <point x="134.072" y="455"/>
      <point x="213.072" y="455" type="curve" smooth="yes"/>
      <point x="330.072" y="455"/>
      <point x="334.48" y="325"/>
      <point x="404.48" y="325" type="curve" smooth="yes"/>
      <point x="434.48" y="325"/>
      <point x="454.49" y="344"/>
      <point x="460.192" y="380" type="curve" smooth="yes"/>
      <point x="471.28" y="450" type="line"/>
      <point x="556.28" y="450" type="line"/>
      <point x="545.192" y="380" type="line" smooth="yes"/>
      <point x="532.362" y="299"/>
      <point x="476.6" y="250"/>
    </contour>
  </outline>
</glyph>
<glyph name="sterling" format="2">
  <advance width="600" height="985"/>
  <unicode hex="00A3"/>
  <outline>
    <contour>
      <point x="40.84" y="100" type="curve"/>
      <point x="25" y="0" type="line"/>
      <point x="485" y="0" type="line"/>
      <point x="497.672" y="80" type="line"/>
      <point x="127.672" y="80" type="line"/>
      <point x="127.672" y="80"/>
      <point x="244.642" y="124"/>
      <point x="263.491" y="243" type="curve" smooth="yes"/>
      <point x="287.885" y="397"/>
      <point x="190.677" y="402"/>
      <point x="210.16" y="525" type="curve" smooth="yes"/>
      <point x="221.565" y="597"/>
      <point x="274.376" y="640"/>
      <point x="350.376" y="640" type="curve" smooth="yes"/>
      <point x="423.376" y="640"/>
      <point x="465.406" y="596"/>
      <point x="454.794" y="529" type="curve"/>
      <point x="549.794" y="529" type="line"/>
      <point x="566.643" y="648"/>
      <point x="496.048" y="720"/>
      <point x="364.048" y="720" type="curve" smooth="yes"/>
      <point x="229.048" y="720"/>
      <point x="139.643" y="648"/>
      <point x="120.16" y="525" type="curve" smooth="yes"/>
      <point x="102.102" y="411"/>
      <point x="193.875" y="378"/>
      <point x="171.066" y="234" type="curve" smooth="yes"/>
      <point x="160.294" y="166"/>
      <point x="40.84" y="100"/>
    </contour>
    <contour>
      <point x="69.352" y="280" type="line"/>
      <point x="429.352" y="280" type="line"/>
      <point x="442.024" y="360" type="line"/>
      <point x="82.024" y="360" type="line"/>
    </contour>
  </outline>
</glyph>
<glyph name="yen" format="2">
  <advance width="600" height="985"/>
  <unicode hex="00A5"/>
  <outline>
    <contour>
      <point x="536.048" y="720" type="line"/>
      <point x="634.048" y="720" type="line"/>
      <point x="337.768" y="270" type="line"/>
      <point x="295" y="0" type="line"/>
      <point x="205" y="0" type="line"/>
      <point x="247.768" y="270" type="line"/>
      <point x="94.048" y="720" type="line"/>
      <point x="187.048" y="720" type="line"/>
      <point x="288.003" y="423" type="line" smooth="yes"/>
      <point x="300.301" y="387"/>
      <point x="302.49" y="344"/>
      <point x="302.49" y="344" type="curve"/>
      <point x="306.49" y="344" type="line"/>
      <point x="306.49" y="344"/>
      <point x="323.301" y="387"/>
      <point x="346.003" y="423" type="curve" smooth="yes"/>
    </contour>
    <contour>
      <point x="40.888" y="195" type="line"/>
      <point x="520.888" y="195" type="line"/>
      <point x="509.008" y="120" type="line"/>
      <point x="29.008" y="120" type="line"/>
    </contour>
    <contour>
      <point x="64.648" y="345" type="line"/>
      <point x="544.648" y="345" type="line"/>
      <point x="532.768" y="270" type="line"/>
      <point x="52.768" y="270" type="line"/>
    </contour>
  </outline>
</glyph>
<glyph name="section" format="2">
  <advance width="600" height="985"/>
  <unicode hex="00A7"/>
  <outline>
    <contour>
      <point x="25.416" y="-10" type="curve"/>
      <point x="120.416" y="-10" type="line"/>
      <point x="125.446" y="-54"/>
      <point x="165.694" y="-84"/>
      <point x="221.694" y="-84" type="curve" smooth="yes"/>
      <point x="251.694" y="-84" type="line" smooth="yes"/>
      <point x="327.694" y="-84"/>
      <point x="374.08" y="-50"/>
      <point x="382.317" y="2" type="curve" smooth="yes"/>
      <point x="389.92" y="50"/>
      <point x="360.989" y="82"/>
      <point x="296.048" y="95" type="curve" smooth="yes"/>
      <point x="222.424" y="110" type="line" smooth="yes"/>
      <point x="124.592" y="130"/>
      <point x="67.0464" y="196"/>
      <point x="79.56" y="275" type="curve" smooth="yes"/>
      <point x="91.5984" y="351"/>
      <point x="156.261" y="412"/>
      <point x="231.37" y="419" type="curve"/>
      <point x="232.478" y="426" type="line"/>
      <point x="232.478" y="426"/>
      <point x="107.162" y="424"/>
      <point x="130.13" y="569" type="curve" smooth="yes"/>
      <point x="145.653" y="667"/>
      <point x="229.632" y="730"/>
      <point x="354.632" y="730" type="curve" smooth="yes"/>
      <point x="384.632" y="730" type="line" smooth="yes"/>
      <point x="489.632" y="730"/>
      <point x="559.445" y="672"/>
      <point x="559.664" y="585" type="curve"/>
      <point x="464.664" y="585" type="line"/>
      <point x="460.842" y="624"/>
      <point x="423.96" y="650"/>
      <point x="371.96" y="650" type="curve" smooth="yes"/>
      <point x="341.96" y="650" type="line" smooth="yes"/>
      <point x="273.96" y="650"/>
      <point x="228.891" y="618"/>
      <point x="220.971" y="568" type="curve" smooth="yes"/>
      <point x="214.16" y="525"/>
      <point x="244.774" y="491"/>
      <point x="303.874" y="479" type="curve" smooth="yes"/>
      <point x="375.498" y="464" type="line" smooth="yes"/>
      <point x="473.33" y="444"/>
      <point x="530.717" y="377"/>
      <point x="518.203" y="298" type="curve" smooth="yes"/>
      <point x="506.006" y="221"/>
      <point x="443.344" y="160"/>
      <point x="363.344" y="160" type="curve"/>
      <point x="362.235" y="153" type="line"/>
      <point x="362.235" y="153"/>
      <point x="495.968" y="145"/>
      <point x="473.792" y="5" type="curve" smooth="yes"/>
      <point x="457.318" y="-99"/>
      <point x="370.022" y="-164"/>
      <point x="239.022" y="-164" type="curve" smooth="yes"/>
      <point x="209.022" y="-164" type="line" smooth="yes"/>
      <point x="100.022" y="-164"/>
      <point x="25.8432" y="-102"/>
    </contour>
    <contour>
      <point x="172.936" y="290" type="curve" smooth="yes"/>
      <point x="164.858" y="239"/>
      <point x="189.522" y="199"/>
      <point x="234.096" y="190" type="curve" smooth="yes"/>
      <point x="307.72" y="175" type="line" smooth="yes"/>
      <point x="364.819" y="163"/>
      <point x="414.531" y="218"/>
      <point x="425.778" y="289" type="curve" smooth="yes"/>
      <point x="433.222" y="336"/>
      <point x="407.242" y="374"/>
      <point x="361.826" y="384" type="curve" smooth="yes"/>
      <point x="290.202" y="399" type="line" smooth="yes"/>
      <point x="233.102" y="411"/>
      <point x="183.707" y="358"/>
    </contour>
  </outline>
</glyph>
<glyph name="dieresis" format="2">
  <advance width="600" height="975"/>
  <unicode hex="00A8"/>
  <outline>
    <contour>
      <point x="200.88" y="700" type="curve" smooth="yes"/>
      <point x="206.392" y="734.8"/>
      <point x="235.584" y="760"/>
      <point x="270.384" y="760" type="curve" smooth="yes"/>
      <point x="305.184" y="760"/>
      <point x="326.392" y="734.8"/>
      <point x="320.88" y="700" type="curve" smooth="yes"/>
      <point x="315.368" y="665.2"/>
      <point x="286.176" y="640"/>
      <point x="251.376" y="640" type="curve" smooth="yes"/>
      <point x="216.576" y="640"/>
      <point x="195.368" y="665.2"/>
    </contour>
    <contour>
      <point x="410.88" y="700" type="curve" smooth="yes"/>
      <point x="416.392" y="734.8"/>
      <point x="445.584" y="760"/>
      <point x="480.384" y="760" type="curve" smooth="yes"/>
      <point x="515.184" y="760"/>
      <point x="536.392" y="734.8"/>
      <point x="530.88" y="700" type="curve" smooth="yes"/>
      <point x="525.368" y="665.2"/>
      <point x="496.176" y="640"/>
      <point x="461.376" y="640" type="curve" smooth="yes"/>
      <point x="426.576" y="640"/>
      <point x="405.368" y="665.2"/>
    </contour>
  </outline>
</glyph>
<glyph name="copyright" format="2">
  <advance width="600" height="975"/>
  <unicode hex="00A9"/>
  <outline>
    <contour>
      <point x="245.936" y="360" type="curve" smooth="yes"/>
      <point x="266.528" y="490" type="line" smooth="yes"/>
      <point x="272.23" y="526"/>
      <point x="300.032" y="550"/>
      <point x="336.032" y="550" type="curve" smooth="yes"/>
      <point x="364.032" y="550"/>
      <point x="383.656" y="535"/>
      <point x="388.696" y="510" type="curve"/>
      <point x="453.696" y="510" type="line"/>
      <point x="446.517" y="572"/>
      <point x="408.744" y="605"/>
      <point x="344.744" y="605" type="curve" smooth="yes"/>
      <point x="269.744" y="605"/>
      <point x="212.458" y="559"/>
      <point x="201.528" y="490" type="curve" smooth="yes"/>
      <point x="180.936" y="360" type="line" smooth="yes"/>
      <point x="170.006" y="291"/>
      <point x="212.72" y="245"/>
      <point x="287.72" y="245" type="curve" smooth="yes"/>
      <point x="351.72" y="245"/>
      <point x="399.947" y="278"/>
      <point x="426.768" y="340" type="curve"/>
      <point x="361.768" y="340" type="line"/>
      <point x="348.808" y="315"/>
      <point x="324.432" y="300"/>
      <point x="296.432" y="300" type="curve" smooth="yes"/>
      <point x="260.432" y="300"/>
      <point x="240.234" y="324"/>
    </contour>
    <contour>
      <point x="99.104" y="350" type="curve" smooth="yes"/>
      <point x="122.864" y="500" type="line" smooth="yes"/>
      <point x="140.922" y="614"/>
      <point x="233.96" y="690"/>
      <point x="352.96" y="690" type="curve" smooth="yes"/>
      <point x="472.96" y="690"/>
      <point x="540.922" y="614"/>
      <point x="522.864" y="500" type="curve" smooth="yes"/>
      <point x="499.104" y="350" type="line" smooth="yes"/>
      <point x="481.046" y="236"/>
      <point x="389.008" y="160"/>
      <point x="269.008" y="160" type="curve" smooth="yes"/>
      <point x="150.008" y="160"/>
      <point x="81.0464" y="236"/>
    </contour>
    <contour>
      <point x="44.104" y="350" type="line" smooth="yes"/>
      <point x="21.2944" y="206"/>
      <point x="108.088" y="110"/>
      <point x="261.088" y="110" type="curve" smooth="yes"/>
      <point x="414.088" y="110"/>
      <point x="531.294" y="206"/>
      <point x="554.104" y="350" type="curve" smooth="yes"/>
      <point x="577.864" y="500" type="line" smooth="yes"/>
      <point x="600.674" y="644"/>
      <point x="513.88" y="740"/>
      <point x="360.88" y="740" type="curve" smooth="yes"/>
      <point x="207.88" y="740"/>
      <point x="90.6736" y="644"/>
      <point x="67.864" y="500" type="curve" smooth="yes"/>
    </contour>
  </outline>
</glyph>
<glyph name="ordfeminine" format="2">
  <advance width="600" height="985"/>
  <unicode hex="00AA"/>
  <outline>
    <contour>
      <point x="417.96" y="650" type="line" smooth="yes"/>
      <point x="422.87" y="681"/>
      <point x="400.88" y="700"/>
      <point x="360.88" y="700" type="curve" smooth="yes"/>
      <point x="325.88" y="700"/>
      <point x="297.346" y="684"/>
      <point x="289.544" y="660" type="curve"/>
      <point x="239.544" y="660" type="line"/>
      <point x="254.622" y="711"/>
      <point x="301.216" y="740"/>
      <point x="367.216" y="740" type="curve" smooth="yes"/>
      <point x="438.216" y="740"/>
      <point x="476.83" y="706"/>
      <point x="467.96" y="650" type="curve" smooth="yes"/>
      <point x="437.072" y="455" type="line"/>
      <point x="390.072" y="455" type="line"/>
      <point x="398.784" y="510" type="line"/>
      <point x="395.784" y="510" type="line"/>
    </contour>
    <contour>
      <point x="323.366" y="621" type="curve" smooth="yes"/>
      <point x="424.366" y="621" type="line"/>
      <point x="418.03" y="581" type="line"/>
      <point x="317.03" y="581" type="line" smooth="yes"/>
      <point x="282.03" y="581"/>
      <point x="259.338" y="564"/>
      <point x="254.902" y="536" type="curve" smooth="yes"/>
      <point x="250.15" y="506"/>
      <point x="271.299" y="488"/>
      <point x="309.299" y="488" type="curve" smooth="yes"/>
      <point x="361.299" y="488"/>
      <point x="396.259" y="513"/>
      <point x="402.912" y="555" type="curve"/>
      <point x="413.912" y="555" type="line"/>
      <point x="406.784" y="510" type="line"/>
      <point x="395.784" y="510" type="line"/>
      <point x="375.923" y="473"/>
      <point x="336.28" y="450"/>
      <point x="290.28" y="450" type="curve" smooth="yes"/>
      <point x="230.28" y="450"/>
      <point x="196.666" y="484"/>
      <point x="204.902" y="536" type="curve" smooth="yes"/>
      <point x="213.139" y="588"/>
      <point x="258.366" y="621"/>
    </contour>
  </outline>
</glyph>
<glyph name="guillemotleft" format="2">
  <advance width="600" height="975"/>
  <unicode hex="00AB"/>
  <outline>
    <contour>
      <point x="22.352" y="280" type="line"/>
      <point x="186.336" y="40" type="line"/>
      <point x="290.336" y="40" type="line"/>
      <point x="145.65" y="244" type="line" smooth="yes"/>
      <point x="128.451" y="268"/>
      <point x="117.194" y="279"/>
      <point x="117.194" y="279" type="curve"/>
      <point x="117.51" y="281" type="line"/>
      <point x="117.51" y="281"/>
      <point x="138.094" y="291"/>
      <point x="163.054" y="316" type="curve" smooth="yes"/>
      <point x="367.368" y="520" type="line"/>
      <point x="261.368" y="520" type="line"/>
    </contour>
    <contour>
      <point x="255.352" y="280" type="line"/>
      <point x="419.336" y="40" type="line"/>
      <point x="523.336" y="40" type="line"/>
      <point x="378.65" y="244" type="line" smooth="yes"/>
      <point x="361.451" y="268"/>
      <point x="350.194" y="279"/>
      <point x="350.194" y="279" type="curve"/>
      <point x="350.51" y="281" type="line"/>
      <point x="350.51" y="281"/>
      <point x="370.094" y="291"/>
      <point x="395.054" y="316" type="curve" smooth="yes"/>
      <point x="600.368" y="520" type="line"/>
      <point x="494.368" y="520" type="line"/>
    </contour>
  </outline>
</glyph>
<glyph name="registered" format="2">
  <advance width="600" height="975"/>
  <unicode hex="00AE"/>
  <outline>
    <contour>
      <point x="94.104" y="350" type="curve" smooth="yes"/>
      <point x="117.864" y="500" type="line" smooth="yes"/>
      <point x="135.922" y="614"/>
      <point x="228.96" y="690"/>
      <point x="347.96" y="690" type="curve" smooth="yes"/>
      <point x="467.96" y="690"/>
      <point x="535.922" y="614"/>
      <point x="517.864" y="500" type="curve" smooth="yes"/>
      <point x="494.104" y="350" type="line" smooth="yes"/>
      <point x="476.046" y="236"/>
      <point x="384.008" y="160"/>
      <point x="264.008" y="160" type="curve" smooth="yes"/>
      <point x="145.008" y="160"/>
      <point x="76.0464" y="236"/>
    </contour>
    <contour>
      <point x="39.104" y="350" type="line" smooth="yes"/>
      <point x="16.2944" y="206"/>
      <point x="103.088" y="110"/>
      <point x="256.088" y="110" type="curve" smooth="yes"/>
      <point x="409.088" y="110"/>
      <point x="526.294" y="206"/>
      <point x="549.104" y="350" type="curve" smooth="yes"/>
      <point x="572.864" y="500" type="line" smooth="yes"/>
      <point x="595.674" y="644"/>
      <point x="508.88" y="740"/>
      <point x="355.88" y="740" type="curve" smooth="yes"/>
      <point x="202.88" y="740"/>
      <point x="85.6736" y="644"/>
      <point x="62.864" y="500" type="curve" smooth="yes"/>
    </contour>
    <contour>
      <point x="250.688" y="390" type="line"/>
      <point x="304.688" y="390" type="line" smooth="yes"/>
      <point x="376.688" y="390"/>
      <point x="428.182" y="431"/>
      <point x="438.32" y="495" type="curve" smooth="yes"/>
      <point x="448.458" y="559"/>
      <point x="409.952" y="600"/>
      <point x="337.952" y="600" type="curve" smooth="yes"/>
      <point x="223.952" y="600" type="line"/>
      <point x="168.512" y="250" type="line"/>
      <point x="228.512" y="250" type="line"/>
    </contour>
    <contour>
      <point x="258.608" y="440" type="line"/>
      <point x="276.032" y="550" type="line"/>
      <point x="330.032" y="550" type="line" smooth="yes"/>
      <point x="365.032" y="550"/>
      <point x="382.864" y="530"/>
      <point x="377.32" y="495" type="curve" smooth="yes"/>
      <point x="371.776" y="460"/>
      <point x="347.608" y="440"/>
      <point x="312.608" y="440" type="curve" smooth="yes"/>
    </contour>
    <contour>
      <point x="341.512" y="250" type="line"/>
      <point x="405.512" y="250" type="line"/>
      <point x="362.747" y="403" type="line"/>
      <point x="301.747" y="403" type="line"/>
    </contour>
  </outline>
</glyph>
<glyph name="macron" format="2">
  <advance width="600" height="975"/>
  <unicode hex="00AF"/>
  <outline>
    <contour>
      <point x="237.216" y="740" type="line"/>
      <point x="497.216" y="740" type="line"/>
      <point x="485.336" y="665" type="line"/>
      <point x="225.336" y="665" type="line"/>
    </contour>
  </outline>
</glyph>
<glyph name="degree" format="2">
  <advance width="600" height="975"/>
  <unicode hex="00B0"/>
  <outline>
    <contour>
      <point x="181.376" y="595" type="curve" smooth="yes"/>
      <point x="195.157" y="682"/>
      <point x="264.344" y="740"/>
      <point x="354.344" y="740" type="curve" smooth="yes"/>
      <point x="444.344" y="740"/>
      <point x="495.157" y="682"/>
      <point x="481.376" y="595" type="curve" smooth="yes"/>
      <point x="467.595" y="508"/>
      <point x="398.408" y="450"/>
      <point x="308.408" y="450" type="curve" smooth="yes"/>
      <point x="218.408" y="450"/>
      <point x="167.595" y="508"/>
    </contour>
    <contour>
      <point x="241.376" y="595" type="curve" smooth="yes"/>
      <point x="232.506" y="539"/>
      <point x="262.486" y="501"/>
      <point x="315.486" y="501" type="curve" smooth="yes"/>
      <point x="370.486" y="501"/>
      <point x="412.506" y="539"/>
      <point x="421.376" y="595" type="curve" smooth="yes"/>
      <point x="430.405" y="652"/>
      <point x="400.424" y="690"/>
      <point x="345.424" y="690" type="curve" smooth="yes"/>
      <point x="292.424" y="690"/>
      <point x="250.405" y="652"/>
    </contour>
  </outline>
</glyph>
<glyph name="threesuperior" format="2">
  <advance width="600" height="985"/>
  <unicode hex="00B3"/>
  <outline>
    <contour>
      <point x="294.192" y="435" type="curve" smooth="yes"/>
      <point x="372.192" y="435"/>
      <point x="426.528" y="475"/>
      <point x="436.824" y="540" type="curve" smooth="yes"/>
      <point x="446.645" y="602"/>
      <point x="403.456" y="645"/>
      <point x="331.456" y="645" type="curve"/>
      <point x="330.347" y="638" type="line"/>
      <point x="330.347" y="638"/>
      <point x="362.614" y="646"/>
      <point x="383.99" y="661" type="curve" smooth="yes"/>
      <point x="447.96" y="705" type="line"/>
      <point x="457.464" y="765" type="line"/>
      <point x="242.464" y="765" type="line"/>
      <point x="234.544" y="715" type="line"/>
      <point x="334.544" y="715" type="line" smooth="yes"/>
      <point x="370.544" y="715"/>
      <point x="404.286" y="726"/>
      <point x="404.286" y="726" type="curve"/>
      <point x="403.178" y="719" type="line"/>
      <point x="300.04" y="655" type="line"/>
      <point x="290.536" y="595" type="line"/>
      <point x="320.536" y="595" type="line" smooth="yes"/>
      <point x="359.536" y="595"/>
      <point x="382.051" y="573"/>
      <point x="376.824" y="540" type="curve" smooth="yes"/>
      <point x="371.597" y="507"/>
      <point x="342.112" y="485"/>
      <point x="302.112" y="485" type="curve" smooth="yes"/>
      <point x="261.112" y="485"/>
      <point x="236.597" y="507"/>
      <point x="241.824" y="540" type="curve"/>
      <point x="181.824" y="540" type="line"/>
      <point x="172.162" y="479"/>
      <point x="219.192" y="435"/>
    </contour>
  </outline>
</glyph>
<glyph name="acute" format="2">
  <advance width="600" height="975"/>
  <unicode hex="00B4"/>
  <outline>
    <contour>
      <point x="499.344" y="785" type="line" name="av01"/>
      <point x="391.344" y="785" type="line"/>
      <point x="254.168" y="645" type="line" name="av02"/>
      <point x="352.168" y="645" type="line"/>
    </contour>
  </outline>
</glyph>
<glyph name="paragraph" format="2">
  <advance width="600" height="975"/>
  <unicode hex="00B6"/>
  <outline>
    <contour>
      <point x="399.048" y="720" type="line"/>
      <point x="319.048" y="720" type="line" smooth="yes"/>
      <point x="205.048" y="720"/>
      <point x="118.277" y="652"/>
      <point x="102.12" y="550" type="curve" smooth="yes"/>
      <point x="89.448" y="470" type="line" smooth="yes"/>
      <point x="73.2912" y="368"/>
      <point x="138.52" y="300"/>
      <point x="252.52" y="300" type="curve"/>
      <point x="205" y="0" type="line"/>
      <point x="285" y="0" type="line"/>
    </contour>
    <contour>
      <point x="569.048" y="720" type="line"/>
      <point x="489.048" y="720" type="line"/>
      <point x="375" y="0" type="line"/>
      <point x="455" y="0" type="line"/>
    </contour>
  </outline>
</glyph>
<glyph name="onesuperior" format="2">
  <advance width="600" height="985"/>
  <unicode hex="00B9"/>
  <outline>
    <contour>
      <point x="185.736" y="440" type="line"/>
      <point x="470.736" y="440" type="line"/>
      <point x="478.656" y="490" type="line"/>
      <point x="371.656" y="490" type="line"/>
      <point x="415.216" y="765" type="line"/>
      <point x="330.216" y="765" type="line"/>
      <point x="250.554" y="704" type="line"/>
      <point x="239.466" y="634" type="line"/>
      <point x="310.019" y="688" type="line" smooth="yes"/>
      <point x="332.87" y="706"/>
      <point x="348.246" y="721"/>
      <point x="348.246" y="721" type="curve"/>
      <point x="354.246" y="721" type="line"/>
      <point x="354.088" y="720"/>
      <point x="345.712" y="705"/>
      <point x="340.643" y="673" type="curve" smooth="yes"/>
      <point x="311.656" y="490" type="line"/>
      <point x="193.656" y="490" type="line"/>
    </contour>
  </outline>
</glyph>
<glyph name="ordmasculine" format="2">
  <advance width="600" height="985"/>
  <unicode hex="00BA"/>
  <outline>
    <contour>
      <point x="274.792" y="630" type="line" smooth="yes"/>
      <point x="280.97" y="669"/>
      <point x="311.088" y="695"/>
      <point x="350.088" y="695" type="curve" smooth="yes"/>
      <point x="389.088" y="695"/>
      <point x="410.97" y="669"/>
      <point x="404.792" y="630" type="curve" smooth="yes"/>
      <point x="392.12" y="550" type="line" smooth="yes"/>
      <point x="385.942" y="511"/>
      <point x="355.824" y="485"/>
      <point x="316.824" y="485" type="curve" smooth="yes"/>
      <point x="277.824" y="485"/>
      <point x="255.942" y="511"/>
      <point x="262.12" y="550" type="curve" smooth="yes"/>
    </contour>
    <contour>
      <point x="454.792" y="630" type="line" smooth="yes"/>
      <point x="464.771" y="693"/>
      <point x="425.424" y="735"/>
      <point x="356.424" y="735" type="curve" smooth="yes"/>
      <point x="287.424" y="735"/>
      <point x="234.771" y="693"/>
      <point x="224.792" y="630" type="curve" smooth="yes"/>
      <point x="212.12" y="550" type="line" smooth="yes"/>
      <point x="202.141" y="487"/>
      <point x="241.488" y="445"/>
      <point x="310.488" y="445" type="curve" smooth="yes"/>
      <point x="379.488" y="445"/>
      <point x="432.141" y="487"/>
      <point x="442.12" y="550" type="curve" smooth="yes"/>
    </contour>
  </outline>
</glyph>
<glyph name="guillemotright" format="2">
  <advance width="600" height="975"/>
  <unicode hex="00BB"/>
  <outline>
    <contour>
      <point x="338.352" y="280" type="line"/>
      <point x="99.336" y="40" type="line"/>
      <point x="-10.664" y="40" type="line"/>
      <point x="198.65" y="244" type="line" smooth="yes"/>
      <point x="223.451" y="268"/>
      <point x="243.194" y="279"/>
      <point x="243.194" y="279" type="curve"/>
      <point x="243.51" y="281" type="line"/>
      <point x="243.51" y="281"/>
      <point x="233.094" y="291"/>
      <point x="216.054" y="316" type="curve" smooth="yes"/>
      <point x="71.368" y="520" type="line"/>
      <point x="175.368" y="520" type="line"/>
    </contour>
    <contour>
      <point x="571.352" y="280" type="line"/>
      <point x="332.336" y="40" type="line"/>
      <point x="222.336" y="40" type="line"/>
      <point x="431.65" y="244" type="line" smooth="yes"/>
      <point x="456.451" y="268"/>
      <point x="476.194" y="279"/>
      <point x="476.194" y="279" type="curve"/>
      <point x="476.51" y="281" type="line"/>
      <point x="476.51" y="281"/>
      <point x="466.094" y="291"/>
      <point x="449.054" y="316" type="curve" smooth="yes"/>
      <point x="304.368" y="520" type="line"/>
      <point x="408.368" y="520" type="line"/>
    </contour>
  </outline>
</glyph>
<glyph name="questiondown" format="2">
  <advance width="600" height="975"/>
  <unicode hex="00BF"/>
  <outline>
    <contour>
      <point x="377.116" y="440" type="curve" smooth="yes"/>
      <point x="357.116" y="440" type="line" smooth="yes"/>
      <point x="318.116" y="440"/>
      <point x="296.976" y="465"/>
      <point x="303.974" y="501" type="curve" smooth="yes"/>
      <point x="310.973" y="537"/>
      <point x="341.444" y="560"/>
      <point x="380.444" y="560" type="curve" smooth="yes"/>
      <point x="400.444" y="560" type="line" smooth="yes"/>
      <point x="439.444" y="560"/>
      <point x="461.167" y="538"/>
      <point x="454.072" y="501.5" type="curve" smooth="yes"/>
      <point x="446.976" y="465"/>
      <point x="416.116" y="440"/>
    </contour>
    <contour>
      <point x="83.272" y="55" type="curve" smooth="yes"/>
      <point x="100.628" y="170"/>
      <point x="179.042" y="239"/>
      <point x="300.208" y="245" type="curve"/>
      <point x="316.62" y="350" type="line"/>
      <point x="406.62" y="350" type="line"/>
      <point x="377.628" y="170" type="line"/>
      <point x="327.628" y="170" type="line" smooth="yes"/>
      <point x="241.628" y="170"/>
      <point x="181.491" y="123"/>
      <point x="169.328" y="45" type="curve" smooth="yes"/>
      <point x="157.165" y="-33"/>
      <point x="202.028" y="-80"/>
      <point x="289.028" y="-80" type="curve" smooth="yes"/>
      <point x="414.028" y="-80" type="line"/>
      <point x="400.504" y="-165" type="line"/>
      <point x="275.504" y="-165" type="line" smooth="yes"/>
      <point x="137.504" y="-165"/>
      <point x="61.4168" y="-78"/>
    </contour>
  </outline>
</glyph>
<glyph name="AE" format="2">
  <advance width="600" height="975"/>
  <unicode hex="00C6"/>
  <outline>
    <contour>
      <point x="-20" y="0" type="line"/>
      <point x="239.048" y="720" type="line"/>
      <point x="634.048" y="720" type="line"/>
      <point x="621.059" y="638" type="line"/>
      <point x="439.059" y="638" type="line"/>
      <point x="403.261" y="412" type="line"/>
      <point x="560.261" y="412" type="line"/>
      <point x="547.272" y="330" type="line"/>
      <point x="390.272" y="330" type="line"/>
      <point x="350.989" y="82" type="line"/>
      <point x="532.989" y="82" type="line"/>
      <point x="520" y="0" type="line"/>
      <point x="252" y="0" type="line"/>
      <point x="284.155" y="203" type="line"/>
      <point x="143.155" y="203" type="line"/>
      <point x="71" y="0" type="line"/>
    </contour>
    <contour>
      <point x="169.035" y="278" type="line"/>
      <point x="296.035" y="278" type="line"/>
      <point x="353.059" y="638" type="line"/>
      <point x="297.059" y="638" type="line"/>
    </contour>
  </outline>
</glyph>
<glyph name="multiply" format="2">
  <advance width="600" height="975"/>
  <unicode hex="00D7"/>
  <outline>
    <contour>
      <point x="519.606" y="471" type="line"/>
      <point x="351.638" y="326" type="line"/>
      <point x="471.304" y="185" type="line"/>
      <point x="415.542" y="136" type="line"/>
      <point x="297.035" y="278" type="line"/>
      <point x="132.542" y="136" type="line"/>
      <point x="86.2544" y="191" type="line"/>
      <point x="249.589" y="332" type="line"/>
      <point x="131.082" y="474" type="line"/>
      <point x="185.685" y="522" type="line"/>
      <point x="305.35" y="381" type="line"/>
      <point x="473.318" y="526" type="line"/>
    </contour>
  </outline>
</glyph>
<glyph name="germandbls" format="2">
  <advance width="600" height="975"/>
  <unicode hex="00DF"/>
  <outline>
    <contour>
      <point x="47.376" y="15" type="line" smooth="yes"/>
      <point x="36.7632" y="-52"/>
      <point x="-7.256" y="-90"/>
      <point x="-74.256" y="-90" type="curve" smooth="yes"/>
      <point x="-104.256" y="-90" type="line"/>
      <point x="-116.928" y="-170" type="line"/>
      <point x="-87.928" y="-170" type="line" smooth="yes"/>
      <point x="37.072" y="-170"/>
      <point x="118.685" y="-103"/>
      <point x="137.376" y="15" type="curve" smooth="yes"/>
      <point x="218.002" y="524" type="line" smooth="yes"/>
      <point x="230.182" y="600.897"/>
      <point x="283.227" y="648"/>
      <point x="357.643" y="648" type="curve" smooth="yes"/>
      <point x="430.932" y="648"/>
      <point x="469.037" y="599.984"/>
      <point x="456.843" y="523" type="curve" smooth="yes" name="dh02"/>
      <point x="445.579" y="451.889"/>
      <point x="393.212" y="408"/>
      <point x="319.627" y="408" type="curve" smooth="yes" name="dv02"/>
      <point x="276.627" y="408" type="line"/>
      <point x="264.272" y="330" type="line"/>
      <point x="309.272" y="330" type="line" smooth="yes" name="dv01"/>
      <point x="390.395" y="330"/>
      <point x="431.887" y="283.379"/>
      <point x="419.63" y="206" type="curve" smooth="yes" name="ih01"/>
      <point x="407.485" y="129.327"/>
      <point x="350.372" y="82"/>
      <point x="269.989" y="82" type="curve" smooth="yes"/>
      <point x="212.528" y="82" type="line"/>
      <point x="199.539" y="0" type="line"/>
      <point x="267" y="0" type="line" smooth="yes" name="ab01"/>
      <point x="396" y="0"/>
      <point x="494.862" y="81.2"/>
      <point x="514.155" y="203" type="curve" smooth="yes" name="sh01"/>
      <point x="529.645" y="300.787"/>
      <point x="482.079" y="369.187"/>
      <point x="395.242" y="374" type="curve" name="iv01"/>
      <point x="396.192" y="380" type="line"/>
      <point x="476.94" y="385.985"/>
      <point x="539.644" y="445.985"/>
      <point x="552.952" y="530" type="curve" smooth="yes" name="dh03"/>
      <point x="571.96" y="650"/>
      <point x="498.89" y="730"/>
      <point x="370.278" y="730" type="curve" smooth="yes"/>
      <point x="244.49" y="730"/>
      <point x="147.58" y="647.6"/>
      <point x="128.002" y="524" type="curve" smooth="yes"/>
    </contour>
  </outline>
</glyph>
<glyph name="eth" format="2">
  <advance width="600" height="975"/>
  <unicode hex="00F0"/>
  <outline>
    <contour>
      <point x="247.416" y="-10" type="curve" smooth="yes"/>
      <point x="386.016" y="-10"/>
      <point x="493.179" y="83.2"/>
      <point x="515.323" y="223" type="curve" smooth="yes"/>
      <point x="528.742" y="307.714"/>
      <point x="508.356" y="409.207"/>
      <point x="461.091" y="493" type="curve" smooth="yes"/>
      <point x="333.048" y="720" type="line"/>
      <point x="229.048" y="720" type="line"/>
      <point x="371.032" y="480" type="line" smooth="yes"/>
      <point x="411.202" y="412.099"/>
      <point x="419.192" y="380"/>
      <point x="419.192" y="380" type="curve"/>
      <point x="405.192" y="380" type="line"/>
      <point x="405.192" y="380"/>
      <point x="380.062" y="436"/>
      <point x="300.062" y="436" type="curve" smooth="yes"/>
      <point x="173.071" y="436"/>
      <point x="75.1247" y="348.009"/>
      <point x="54.056" y="215" type="curve" smooth="yes"/>
      <point x="32.672" y="80"/>
      <point x="110.016" y="-10"/>
    </contour>
    <contour>
      <point x="424.056" y="215" type="curve" smooth="yes"/>
      <point x="410.275" y="128"/>
      <point x="345.088" y="70"/>
      <point x="260.088" y="70" type="curve" smooth="yes"/>
      <point x="177.088" y="70"/>
      <point x="130.275" y="128"/>
      <point x="144.056" y="215" type="curve" smooth="yes"/>
      <point x="157.804" y="301.791"/>
      <point x="222.824" y="360"/>
      <point x="306.024" y="360" type="curve" smooth="yes"/>
      <point x="391.024" y="360"/>
      <point x="437.837" y="302"/>
    </contour>
    <contour>
      <point x="145.408" y="495" type="line"/>
      <point x="514.752" y="655" type="line"/>
      <point x="527.424" y="735" type="line"/>
      <point x="158.08" y="575" type="line"/>
    </contour>
  </outline>
</glyph>
<glyph name="dcaron" format="2">
  <advance width="600" height="975"/>
  <unicode hex="010F"/>
  <outline>
    <component base="d" xOffset="-20"/>
    <contour>
      <point x="724.75" y="756" type="line"/>
      <point x="631.624" y="610" type="line"/>
      <point x="561.624" y="610" type="line"/>
      <point x="634.75" y="756" type="line"/>
    </contour>
  </outline>
</glyph>
<glyph name="dcroat" format="2">
  <advance width="600" height="975"/>
  <unicode hex="0111"/>
  <outline>
    <contour>
      <point x="213.416" y="-10" type="curve" smooth="yes"/>
      <point x="294.416" y="-10"/>
      <point x="356.594" y="29"/>
      <point x="384.048" y="95" type="curve"/>
      <point x="392.048" y="95" type="line"/>
      <point x="377" y="0" type="line"/>
      <point x="462" y="0" type="line"/>
      <point x="554.664" y="585" type="line"/>
      <point x="632.664" y="585" type="line"/>
      <point x="642.96" y="650" type="line"/>
      <point x="564.96" y="650" type="line"/>
      <point x="576.048" y="720" type="line"/>
      <point x="486.048" y="720" type="line"/>
      <point x="474.96" y="650" type="line"/>
      <point x="337.96" y="650" type="line"/>
      <point x="327.664" y="585" type="line"/>
      <point x="464.664" y="585" type="line"/>
      <point x="453.576" y="515" type="line" smooth="yes"/>
      <point x="448.032" y="480"/>
      <point x="443.528" y="420"/>
      <point x="443.528" y="420" type="curve"/>
      <point x="435.528" y="420" type="line"/>
      <point x="428.982" y="486"/>
      <point x="379.16" y="525"/>
      <point x="298.16" y="525" type="curve" smooth="yes"/>
      <point x="187.16" y="525"/>
      <point x="100.171" y="443"/>
      <point x="79.104" y="310" type="curve" smooth="yes"/>
      <point x="62.472" y="205" type="line" smooth="yes"/>
      <point x="41.4048" y="72"/>
      <point x="102.416" y="-10"/>
    </contour>
    <contour>
      <point x="259.771" y="68" type="curve" smooth="yes"/>
      <point x="179.771" y="68"/>
      <point x="139.166" y="121"/>
      <point x="152.472" y="205" type="curve" smooth="yes"/>
      <point x="169.104" y="310" type="line" smooth="yes"/>
      <point x="182.726" y="396"/>
      <point x="238.805" y="447"/>
      <point x="319.805" y="447" type="curve" smooth="yes"/>
      <point x="393.805" y="447"/>
      <point x="434.251" y="393"/>
      <point x="421.104" y="310" type="curve" smooth="yes"/>
      <point x="404.472" y="205" type="line" smooth="yes"/>
      <point x="391.325" y="122"/>
      <point x="333.771" y="68"/>
    </contour>
  </outline>
</glyph>
<glyph name="eogonek" format="2">
  <advance width="600" height="975"/>
  <unicode hex="0119"/>
  <outline>
    <component base="e"/>
    <contour>
      <point x="417.32" y="-200" type="line"/>
      <point x="323.32" y="-200" type="line" smooth="yes"/>
      <point x="250.32" y="-200"/>
      <point x="210.29" y="-156"/>
      <point x="217.893" y="-108" type="curve" smooth="yes"/>
      <point x="222.803" y="-77"/>
      <point x="242.872" y="-45"/>
      <point x="276.149" y="-18" type="curve" smooth="yes"/>
      <point x="386.246" y="71" type="line"/>
      <point x="415.336" y="40" type="line"/>
      <point x="368" y="0" type="line" smooth="yes"/>
      <point x="327.614" y="-34"/>
      <point x="308.654" y="-59"/>
      <point x="304.408" y="-85.8063" type="curve" smooth="yes"/>
      <point x="299.15" y="-119"/>
      <point x="318.824" y="-140"/>
      <point x="356.824" y="-140" type="curve" smooth="yes"/>
      <point x="426.824" y="-140" type="line"/>
    </contour>
  </outline>
</glyph>
<glyph name="hbar" format="2">
  <advance width="600" height="975"/>
  <unicode hex="0127"/>
  <outline>
    <contour>
      <point x="221.456" y="590" type="line"/>
      <point x="213.536" y="540" type="line" smooth="yes"/>
      <point x="207.675" y="503"/>
      <point x="193.488" y="445"/>
      <point x="193.488" y="445" type="curve"/>
      <point x="201.488" y="445" type="line"/>
      <point x="228.942" y="511"/>
      <point x="291.12" y="550"/>
      <point x="369.12" y="550" type="curve" smooth="yes"/>
      <point x="478.12" y="550"/>
      <point x="537.923" y="473"/>
      <point x="519.39" y="356" type="curve" smooth="yes"/>
      <point x="463" y="0" type="line"/>
      <point x="373" y="0" type="line"/>
      <point x="427.014" y="341" type="line" smooth="yes"/>
      <point x="440.162" y="424"/>
      <point x="403.082" y="474"/>
      <point x="327.082" y="474" type="curve" smooth="yes"/>
      <point x="251.082" y="474"/>
      <point x="194.528" y="420"/>
      <point x="181.064" y="335" type="curve" smooth="yes"/>
      <point x="128" y="0" type="line"/>
      <point x="38" y="0" type="line"/>
      <point x="131.456" y="590" type="line"/>
      <point x="63.456" y="590" type="line"/>
      <point x="75.336" y="665" type="line"/>
      <point x="143.336" y="665" type="line"/>
      <point x="152.048" y="720" type="line"/>
      <point x="242.048" y="720" type="line"/>
      <point x="233.336" y="665" type="line"/>
      <point x="335.336" y="665" type="line"/>
      <point x="323.456" y="590" type="line"/>
    </contour>
  </outline>
</glyph>
<glyph name="IJ" format="2">
  <advance width="600" height="985"/>
  <unicode hex="0132"/>
  <outline>
    <contour>
      <point x="226.048" y="720" type="line"/>
      <point x="112" y="0" type="line"/>
      <point x="20" y="0" type="line"/>
      <point x="134.048" y="720" type="line"/>
    </contour>
    <contour>
      <point x="281.722" y="74" type="line" smooth="yes"/>
      <point x="361.722" y="74"/>
      <point x="413.691" y="118"/>
      <point x="425.888" y="195" type="curve" smooth="yes"/>
      <point x="496.376" y="640" type="line"/>
      <point x="351.376" y="640" type="line"/>
      <point x="364.048" y="720" type="line"/>
      <point x="599.048" y="720" type="line"/>
      <point x="515.888" y="195" type="line" smooth="yes"/>
      <point x="495.454" y="66"/>
      <point x="406.05" y="-6"/>
      <point x="269.05" y="-6" type="curve" smooth="yes"/>
      <point x="209.05" y="-6" type="line"/>
      <point x="221.722" y="74" type="line"/>
    </contour>
  </outline>
</glyph>
<glyph name="Lslash" format="2">
  <advance width="600" height="975"/>
  <unicode hex="0141"/>
  <outline>
    <component base="L"/>
    <contour>
      <point x="37.52" y="310" type="line"/>
      <point x="447.12" y="560" type="line"/>
      <point x="434.448" y="480" type="line"/>
      <point x="24.848" y="230" type="line"/>
    </contour>
  </outline>
</glyph>
<glyph name="Eng" format="2">
  <advance width="600" height="985"/>
  <unicode hex="014A"/>
  <outline>
    <contour>
      <point x="379.752" y="30" type="line"/>
      <point x="368.664" y="-40"/>
      <point x="317.853" y="-83"/>
      <point x="246.853" y="-83" type="curve" smooth="yes"/>
      <point x="176.853" y="-83" type="line"/>
      <point x="163.864" y="-165" type="line"/>
      <point x="233.864" y="-165" type="line" smooth="yes"/>
      <point x="357.864" y="-165"/>
      <point x="451.061" y="-88"/>
      <point x="469.752" y="30" type="curve" smooth="yes"/>
      <point x="577.464" y="710" type="line"/>
      <point x="491.464" y="710" type="line"/>
      <point x="429.054" y="316" type="line" smooth="yes"/>
      <point x="417.966" y="246"/>
      <point x="415.72" y="175"/>
      <point x="414.72" y="175" type="curve"/>
      <point x="407.72" y="175" type="line"/>
      <point x="407.72" y="175"/>
      <point x="403.333" y="242"/>
      <point x="392.827" y="283" type="curve" smooth="yes"/>
      <point x="277.464" y="710" type="line"/>
      <point x="147.464" y="710" type="line"/>
      <point x="35" y="0" type="line"/>
      <point x="121" y="0" type="line"/>
      <point x="197.349" y="482" type="line" smooth="yes"/>
      <point x="209.229" y="557"/>
      <point x="216.208" y="620"/>
      <point x="216.208" y="620" type="curve"/>
      <point x="223.208" y="620" type="line"/>
      <point x="223.208" y="620"/>
      <point x="223.021" y="562"/>
      <point x="237.418" y="514" type="curve" smooth="yes"/>
    </contour>
  </outline>
</glyph>
<glyph name="eng" format="2">
  <advance width="600" height="985"/>
  <unicode hex="014B"/>
  <outline>
    <contour>
      <point x="125.12" y="550" type="line"/>
      <point x="38" y="0" type="line"/>
      <point x="128" y="0" type="line"/>
      <point x="185.024" y="360" type="line" smooth="yes"/>
      <point x="196.904" y="435"/>
      <point x="251.349" y="482"/>
      <point x="327.349" y="482" type="curve" smooth="yes"/>
      <point x="403.349" y="482"/>
      <point x="441.746" y="434"/>
      <point x="429.39" y="356" type="curve" smooth="yes"/>
      <point x="377.752" y="30" type="line" smooth="yes"/>
      <point x="366.664" y="-40"/>
      <point x="315.853" y="-83"/>
      <point x="244.853" y="-83" type="curve" smooth="yes"/>
      <point x="174.853" y="-83" type="line"/>
      <point x="161.864" y="-165" type="line"/>
      <point x="231.864" y="-165" type="line" smooth="yes"/>
      <point x="355.864" y="-165"/>
      <point x="449.061" y="-88"/>
      <point x="467.752" y="30" type="curve" smooth="yes"/>
      <point x="521.766" y="371" type="line" smooth="yes"/>
      <point x="539.982" y="486"/>
      <point x="480.704" y="560"/>
      <point x="368.704" y="560" type="curve" smooth="yes"/>
      <point x="292.704" y="560"/>
      <point x="230.526" y="521"/>
      <point x="203.072" y="455" type="curve"/>
      <point x="195.072" y="455" type="line"/>
      <point x="210.12" y="550" type="line"/>
    </contour>
  </outline>
</glyph>
<glyph name="tcaron" format="2">
  <advance width="600" height="975"/>
  <unicode hex="0165"/>
  <outline>
    <component base="t"/>
    <contour>
      <point x="626.918" y="776" type="line"/>
      <point x="502.208" y="620" type="line"/>
      <point x="418.208" y="620" type="line"/>
      <point x="532.918" y="776" type="line"/>
    </contour>
  </outline>
</glyph>
<glyph name="Ohorn" format="2">
  <advance width="600"/>
  <unicode hex="01A0"/>
  <outline>
    <contour>
      <point x="352.96" y="650" type="curve" smooth="yes" name="sv01"/>
      <point x="431.96" y="650"/>
      <point x="474.565" y="597"/>
      <point x="461.576" y="515" type="curve" smooth="yes" name="ah01"/>
      <point x="412.472" y="205" type="line" smooth="yes"/>
      <point x="399.483" y="123"/>
      <point x="340.088" y="70"/>
      <point x="261.088" y="70" type="curve" smooth="yes" name="sv02"/>
      <point x="182.088" y="70"/>
      <point x="139.483" y="123"/>
      <point x="152.472" y="205" type="curve" smooth="yes" name="sh02"/>
      <point x="201.576" y="515" type="line" smooth="yes"/>
      <point x="214.565" y="597"/>
      <point x="273.96" y="650"/>
    </contour>
    <contour>
      <point x="365.632" y="730" type="curve" smooth="yes" name="at01"/>
      <point x="230.632" y="730"/>
      <point x="132.326" y="646"/>
      <point x="111.576" y="515" type="curve" smooth="yes"/>
      <point x="62.472" y="205" type="line" smooth="yes" name="sh01"/>
      <point x="41.7216" y="74"/>
      <point x="113.416" y="-10"/>
      <point x="248.416" y="-10" type="curve" smooth="yes" name="ab01"/>
      <point x="382.416" y="-10"/>
      <point x="481.88" y="75"/>
      <point x="502.472" y="205" type="curve" smooth="yes"/>
      <point x="551.576" y="515" type="line" smooth="yes" name="sh03"/>
      <point x="572.326" y="646"/>
      <point x="500.632" y="730"/>
    </contour>
    <contour>
      <point x="567.972" y="830" type="line"/>
      <point x="553.716" y="740" type="line" smooth="yes"/>
      <point x="548.724" y="708.486"/>
      <point x="527.31" y="690"/>
      <point x="495.796" y="690" type="curve" smooth="yes"/>
      <point x="459.164" y="690" type="line"/>
      <point x="448.868" y="625" type="line"/>
      <point x="491.071" y="625" type="line" smooth="yes"/>
      <point x="562.729" y="625"/>
      <point x="617.47" y="669"/>
      <point x="627.924" y="735" type="curve" smooth="yes"/>
      <point x="642.972" y="830" type="line"/>
    </contour>
  </outline>
</glyph>
<glyph name="ohorn" format="2">
  <advance width="600"/>
  <unicode hex="01A1"/>
  <outline>
    <contour>
      <point x="152.472" y="205" type="curve" smooth="yes" name="sh02"/>
      <point x="174.648" y="345" type="line" smooth="yes"/>
      <point x="187.954" y="429"/>
      <point x="246.032" y="480"/>
      <point x="326.032" y="480" type="curve" smooth="yes" name="sv01"/>
      <point x="406.032" y="480"/>
      <point x="447.954" y="429"/>
      <point x="434.648" y="345" type="curve" smooth="yes" name="ah01"/>
      <point x="412.472" y="205" type="line" smooth="yes" name="mv01"/>
      <point x="399.166" y="121"/>
      <point x="341.088" y="70"/>
      <point x="261.088" y="70" type="curve" smooth="yes" name="sv02"/>
      <point x="180.088" y="70"/>
      <point x="139.166" y="121"/>
    </contour>
    <contour>
      <point x="62.472" y="205" type="line" smooth="yes" name="sh01"/>
      <point x="41.5632" y="73"/>
      <point x="113.416" y="-10"/>
      <point x="248.416" y="-10" type="curve" smooth="yes" name="ab01"/>
      <point x="385.416" y="-10"/>
      <point x="481.405" y="72"/>
      <point x="502.472" y="205" type="curve" smooth="yes"/>
      <point x="524.806" y="346" type="line" smooth="yes" name="sh03"/>
      <point x="545.874" y="479"/>
      <point x="474.704" y="560"/>
      <point x="338.704" y="560" type="curve" smooth="yes" name="at01"/>
      <point x="203.704" y="560"/>
      <point x="105.557" y="477"/>
      <point x="84.648" y="345" type="curve" smooth="yes"/>
    </contour>
    <contour>
      <point x="530.044" y="660" type="line"/>
      <point x="515.63" y="569" type="line" smooth="yes"/>
      <point x="511.27" y="541.48"/>
      <point x="491.174" y="524"/>
      <point x="463.502" y="524" type="curve" smooth="yes"/>
      <point x="427.869" y="524" type="line"/>
      <point x="417.573" y="459" type="line"/>
      <point x="458.777" y="459" type="line" smooth="yes"/>
      <point x="527.434" y="459"/>
      <point x="579.858" y="501"/>
      <point x="589.838" y="564" type="curve" smooth="yes"/>
      <point x="605.044" y="660" type="line"/>
    </contour>
  </outline>
</glyph>
<glyph name="uni0259" format="2">
  <advance width="600"/>
  <unicode hex="0259"/>
  <outline>
    <contour>
      <point x="428.678" y="301" type="line" name="dv01"/>
      <point x="77.6784" y="301" type="line"/>
      <point x="62.3136" y="204" type="line" smooth="yes" name="sh02"/>
      <point x="41.5632" y="73"/>
      <point x="113.416" y="-10"/>
      <point x="248.416" y="-10" type="curve" smooth="yes" name="at01"/>
      <point x="383.416" y="-10"/>
      <point x="481.563" y="73"/>
      <point x="502.314" y="204" type="curve" smooth="yes" name="sh01"/>
      <point x="524.648" y="345" type="line" smooth="yes"/>
      <point x="545.398" y="476"/>
      <point x="473.704" y="560"/>
      <point x="338.704" y="560" type="curve" smooth="yes" name="ab01"/>
      <point x="228.704" y="560"/>
      <point x="136.467" y="508"/>
      <point x="100.32" y="425" type="curve" name="iv01"/>
      <point x="190.32" y="425" type="line" name="sh03"/>
      <point x="215.022" y="461"/>
      <point x="265.507" y="483"/>
      <point x="326.507" y="483" type="curve" smooth="yes" name="sv01"/>
      <point x="406.507" y="483"/>
      <point x="449.112" y="430"/>
      <point x="435.648" y="345" type="curve" smooth="yes"/>
    </contour>
    <contour>
      <point x="416.957" y="227" type="line" name="dv02"/>
      <point x="413.314" y="204" type="line" smooth="yes" name="sh04"/>
      <point x="400.008" y="120"/>
      <point x="340.454" y="66"/>
      <point x="260.454" y="66" type="curve" smooth="yes" name="sv02"/>
      <point x="180.454" y="66"/>
      <point x="138.008" y="120"/>
      <point x="151.314" y="204" type="curve" smooth="yes" name="ah01"/>
      <point x="156.224" y="235" type="line" name="iv02"/>
      <point x="147.957" y="227" type="line" name="sh05"/>
    </contour>
  </outline>
</glyph>
<glyph name="uni02BA" format="2">
  <advance width="600"/>
  <unicode hex="02BA"/>
  <outline>
    <contour>
      <point x="634.048" y="720" type="line"/>
      <point x="454.786" y="409" type="line"/>
      <point x="374.786" y="409" type="line"/>
      <point x="504.048" y="720" type="line"/>
    </contour>
    <contour>
      <point x="359.048" y="720" type="line"/>
      <point x="179.786" y="409" type="line"/>
      <point x="99.7856" y="409" type="line"/>
      <point x="229.048" y="720" type="line"/>
    </contour>
  </outline>
</glyph>
<glyph name="uni02BC" format="2">
  <advance width="600"/>
  <unicode hex="02BC"/>
  <outline>
    <contour>
      <point x="497.918" y="776" type="line"/>
      <point x="318.656" y="465" type="line"/>
      <point x="238.656" y="465" type="line"/>
      <point x="367.918" y="776" type="line"/>
    </contour>
  </outline>
</glyph>
<glyph name="circumflex" format="2">
  <advance width="600" height="975"/>
  <unicode hex="02C6"/>
  <outline>
    <contour>
      <point x="334.344" y="785" type="line"/>
      <point x="416.344" y="785" type="line"/>
      <point x="535.168" y="645" type="line"/>
      <point x="432.168" y="645" type="line"/>
      <point x="369.048" y="720" type="line"/>
      <point x="363.048" y="720" type="line"/>
      <point x="274.01" y="645" type="line"/>
      <point x="169.168" y="645" type="line"/>
    </contour>
  </outline>
</glyph>
<glyph name="caron" format="2">
  <advance width="600" height="975"/>
  <unicode hex="02C7"/>
  <outline>
    <contour>
      <point x="393.168" y="645" type="line"/>
      <point x="311.168" y="645" type="line"/>
      <point x="191.344" y="785" type="line"/>
      <point x="282.344" y="785" type="line"/>
      <point x="352.989" y="707" type="line"/>
      <point x="362.989" y="707" type="line"/>
      <point x="457.012" y="785" type="line"/>
      <point x="557.344" y="785" type="line"/>
    </contour>
  </outline>
</glyph>
<glyph name="breve" format="2">
  <advance width="600" height="975"/>
  <unicode hex="02D8"/>
  <outline>
    <contour>
      <point x="359.011" y="699" type="curve" smooth="yes"/>
      <point x="417.75" y="699"/>
      <point x="457.895" y="731.663"/>
      <point x="466.344" y="785" type="curve" name="av01"/>
      <point x="539.344" y="785" type="line"/>
      <point x="525.361" y="696.726"/>
      <point x="451.826" y="640"/>
      <point x="351.376" y="640" type="curve" smooth="yes" name="av03"/>
      <point x="252.376" y="640"/>
      <point x="195.563" y="698"/>
      <point x="209.344" y="785" type="curve" name="av02"/>
      <point x="278.344" y="785" type="line"/>
      <point x="269.91" y="731.752"/>
      <point x="301.25" y="699"/>
    </contour>
  </outline>
</glyph>
<glyph name="dotaccent" format="2">
  <advance width="600" height="975"/>
  <unicode hex="02D9"/>
  <outline>
    <contour>
      <point x="350.542" y="761" type="curve" smooth="yes"/>
      <point x="370.542" y="761" type="line" smooth="yes"/>
      <point x="408.946" y="761"/>
      <point x="431.589" y="736.04"/>
      <point x="425.88" y="700" type="curve" smooth="yes"/>
      <point x="420.353" y="665.107"/>
      <point x="389.976" y="641"/>
      <point x="351.534" y="641" type="curve" smooth="yes"/>
      <point x="331.534" y="641" type="line" smooth="yes"/>
      <point x="293.391" y="641"/>
      <point x="270.396" y="665.378"/>
      <point x="275.88" y="700" type="curve" smooth="yes"/>
      <point x="281.538" y="735.719"/>
      <point x="312.482" y="761"/>
    </contour>
  </outline>
</glyph>
<glyph name="ring" format="2">
  <advance width="600" height="975"/>
  <unicode hex="02DA"/>
  <outline>
    <contour>
      <point x="241.672" y="705" type="curve" smooth="yes"/>
      <point x="251.176" y="765"/>
      <point x="305.512" y="805"/>
      <point x="377.512" y="805" type="curve" smooth="yes"/>
      <point x="449.512" y="805"/>
      <point x="491.176" y="765"/>
      <point x="481.672" y="705" type="curve" smooth="yes"/>
      <point x="472.168" y="645"/>
      <point x="417.832" y="605"/>
      <point x="345.832" y="605" type="curve" smooth="yes"/>
      <point x="273.832" y="605"/>
      <point x="232.168" y="645"/>
    </contour>
    <contour>
      <point x="301.672" y="705" type="curve" smooth="yes"/>
      <point x="297.078" y="676"/>
      <point x="317.91" y="656"/>
      <point x="352.91" y="656" type="curve" smooth="yes"/>
      <point x="389.91" y="656"/>
      <point x="417.078" y="676"/>
      <point x="421.672" y="705" type="curve" smooth="yes"/>
      <point x="427.058" y="739"/>
      <point x="406.592" y="755"/>
      <point x="368.592" y="755" type="curve" smooth="yes"/>
      <point x="333.592" y="755"/>
      <point x="306.424" y="735"/>
    </contour>
  </outline>
</glyph>
<glyph name="tilde" format="2">
  <advance width="600" height="975"/>
  <unicode hex="02DC"/>
  <outline>
    <contour>
      <point x="429.048" y="710" type="curve" smooth="yes"/>
      <point x="384.048" y="710"/>
      <point x="385.136" y="780"/>
      <point x="305.136" y="780" type="curve" smooth="yes"/>
      <point x="251.136" y="780"/>
      <point x="209.592" y="745"/>
      <point x="200.088" y="685" type="curve" smooth="yes"/>
      <point x="195.336" y="655" type="line"/>
      <point x="260.336" y="655" type="line"/>
      <point x="265.088" y="685" type="line" smooth="yes"/>
      <point x="268.89" y="709"/>
      <point x="282.632" y="720"/>
      <point x="300.632" y="720" type="curve" smooth="yes"/>
      <point x="345.632" y="720"/>
      <point x="344.544" y="650"/>
      <point x="424.544" y="650" type="curve" smooth="yes"/>
      <point x="478.544" y="650"/>
      <point x="520.088" y="685"/>
      <point x="529.592" y="745" type="curve" smooth="yes"/>
      <point x="534.344" y="775" type="line"/>
      <point x="469.344" y="775" type="line"/>
      <point x="464.592" y="745" type="line" smooth="yes"/>
      <point x="460.79" y="721"/>
      <point x="447.048" y="710"/>
    </contour>
  </outline>
</glyph>
<glyph name="hungarumlaut" format="2">
  <advance width="600" height="975"/>
  <unicode hex="02DD"/>
  <outline>
    <contour>
      <point x="435.344" y="785" type="line" name="av01"/>
      <point x="342.344" y="785" type="line"/>
      <point x="215.168" y="645" type="line" name="av02"/>
      <point x="298.168" y="645" type="line"/>
    </contour>
    <contour>
      <point x="611.344" y="785" type="line" name="av01"/>
      <point x="518.344" y="785" type="line"/>
      <point x="391.168" y="645" type="line" name="av02"/>
      <point x="474.168" y="645" type="line"/>
    </contour>
  </outline>
</glyph>
<glyph name="hookabovecomb" format="2">
  <advance width="600"/>
  <unicode hex="0309"/>
  <outline>
    <contour>
      <point x="328.968" y="645" type="line"/>
      <point x="392.013" y="718" type="line" smooth="yes"/>
      <point x="399.57" y="726.749"/>
      <point x="402.861" y="732.709"/>
      <point x="403.957" y="739.625" type="curve" smooth="yes"/>
      <point x="406.045" y="752.807"/>
      <point x="398.654" y="760"/>
      <point x="383.014" y="760" type="curve" smooth="yes"/>
      <point x="300.184" y="760" type="line"/>
      <point x="310.48" y="825" type="line"/>
      <point x="400.015" y="825" type="line" smooth="yes"/>
      <point x="460.34" y="825"/>
      <point x="493.841" y="795.71"/>
      <point x="486.498" y="749.356" type="curve" smooth="yes"/>
      <point x="483.827" y="732.491"/>
      <point x="476.028" y="715.127"/>
      <point x="465.305" y="702.176" type="curve" smooth="yes"/>
      <point x="417.968" y="645" type="line"/>
    </contour>
  </outline>
</glyph>
<glyph name="uni031B" format="2">
  <advance width="600"/>
  <unicode hex="031B"/>
  <outline>
    <contour>
      <point x="589.544" y="660" type="line"/>
      <point x="664.544" y="660" type="line"/>
      <point x="651.872" y="580" type="line" smooth="yes"/>
      <point x="642.843" y="523"/>
      <point x="594.653" y="485"/>
      <point x="531.395" y="485" type="curve" smooth="yes"/>
      <point x="506.824" y="485" type="line"/>
      <point x="517.12" y="550" type="line"/>
      <point x="537.12" y="550" type="line" smooth="yes"/>
      <point x="560.016" y="550"/>
      <point x="574.037" y="562.104"/>
      <point x="577.664" y="585" type="curve" smooth="yes"/>
    </contour>
  </outline>
</glyph>
<glyph name="dotbelowcomb" format="2">
  <advance width="600"/>
  <unicode hex="0323"/>
  <outline>
    <contour>
      <point x="225.16" y="-100" type="curve" smooth="yes"/>
      <point x="245.16" y="-100" type="line" smooth="yes"/>
      <point x="283.563" y="-100"/>
      <point x="306.206" y="-124.96"/>
      <point x="300.498" y="-161" type="curve" smooth="yes"/>
      <point x="294.971" y="-195.893"/>
      <point x="264.593" y="-220"/>
      <point x="226.152" y="-220" type="curve" smooth="yes"/>
      <point x="206.152" y="-220" type="line" smooth="yes"/>
      <point x="168.009" y="-220"/>
      <point x="145.013" y="-195.622"/>
      <point x="150.498" y="-161" type="curve" smooth="yes"/>
      <point x="156.155" y="-125.281"/>
      <point x="187.099" y="-100"/>
    </contour>
  </outline>
</glyph>
<glyph name="commaaccent" format="2">
  <advance width="600" height="975"/>
  <unicode hex="0326"/>
  <outline>
    <contour>
      <point x="230.11" y="-94" type="line"/>
      <point x="335.11" y="-94" type="line"/>
      <point x="206.984" y="-240" type="line"/>
      <point x="111.984" y="-240" type="line"/>
    </contour>
  </outline>
</glyph>
<glyph name="uni0336" format="2">
  <unicode hex="0336"/>
  <outline>
    <contour>
      <point x="-617.352" y="360" type="line"/>
      <point x="42.648" y="360" type="line"/>
      <point x="31.56" y="290" type="line"/>
      <point x="-628.44" y="290" type="line"/>
    </contour>
  </outline>
</glyph>
<glyph name="uni0374" format="2">
  <advance width="600"/>
  <unicode hex="0374"/>
  <outline>
    <contour>
      <point x="489.206" y="721" type="line"/>
      <point x="309.944" y="410" type="line"/>
      <point x="229.944" y="410" type="line"/>
      <point x="359.206" y="721" type="line"/>
    </contour>
  </outline>
</glyph>
<glyph name="Delta" format="2">
  <advance width="600" height="985"/>
  <unicode hex="0394"/>
  <outline>
    <contour>
      <point x="299.048" y="720" type="line"/>
      <point x="425.048" y="720" type="line"/>
      <point x="496.88" y="75" type="line"/>
      <point x="485" y="0" type="line"/>
      <point x="5" y="0" type="line"/>
      <point x="16.88" y="75" type="line"/>
    </contour>
    <contour>
      <point x="110.88" y="75" type="line"/>
      <point x="410.88" y="75" type="line"/>
      <point x="360.179" y="563" type="line" smooth="yes"/>
      <point x="354.891" y="618"/>
      <point x="356.544" y="660"/>
      <point x="356.544" y="660" type="curve"/>
      <point x="352.544" y="660" type="line"/>
      <point x="352.544" y="660"/>
      <point x="341.05" y="619"/>
      <point x="317.179" y="563" type="curve" smooth="yes"/>
    </contour>
  </outline>
</glyph>
<glyph name="Omega" format="2">
  <advance width="600" height="985"/>
  <unicode hex="03A9"/>
  <outline>
    <contour>
      <point x="365.632" y="730" type="curve" smooth="yes"/>
      <point x="500.632" y="730"/>
      <point x="572.326" y="646"/>
      <point x="551.576" y="515" type="curve" smooth="yes"/>
      <point x="508.808" y="245" type="line" smooth="yes"/>
      <point x="485.84" y="100"/>
      <point x="368.622" y="86"/>
      <point x="368.622" y="86" type="curve"/>
      <point x="367.672" y="80" type="line"/>
      <point x="513.672" y="80" type="line"/>
      <point x="501" y="0" type="line"/>
      <point x="290" y="0" type="line"/>
      <point x="307.424" y="110" type="line"/>
      <point x="360.424" y="110"/>
      <point x="405.978" y="164"/>
      <point x="418.016" y="240" type="curve" smooth="yes"/>
      <point x="461.576" y="515" type="line" smooth="yes"/>
      <point x="474.565" y="597"/>
      <point x="431.96" y="650"/>
      <point x="352.96" y="650" type="curve" smooth="yes"/>
      <point x="273.96" y="650"/>
      <point x="214.565" y="597"/>
      <point x="201.576" y="515" type="curve" smooth="yes"/>
      <point x="158.016" y="240" type="line" smooth="yes"/>
      <point x="145.978" y="164"/>
      <point x="174.424" y="110"/>
      <point x="227.424" y="110" type="curve"/>
      <point x="210" y="0" type="line"/>
      <point x="0" y="0" type="line"/>
      <point x="12.672" y="80" type="line"/>
      <point x="157.672" y="80" type="line"/>
      <point x="158.464" y="85" type="line"/>
      <point x="158.464" y="85"/>
      <point x="45.84" y="100"/>
      <point x="68.808" y="245" type="curve" smooth="yes"/>
      <point x="111.576" y="515" type="line" smooth="yes"/>
      <point x="132.326" y="646"/>
      <point x="230.632" y="730"/>
    </contour>
  </outline>
</glyph>
<glyph name="uni0402" format="2">
  <advance width="600" height="985"/>
  <unicode hex="0402"/>
  <outline>
    <contour>
      <point x="64.048" y="720" type="line"/>
      <point x="384.048" y="720" type="line"/>
      <point x="371.534" y="641" type="line"/>
      <point x="251.534" y="641" type="line"/>
      <point x="212.885" y="397" type="line"/>
      <point x="231.894" y="416" type="line" smooth="yes"/>
      <point x="281.814" y="466"/>
      <point x="340.408" y="495"/>
      <point x="393.408" y="495" type="curve" smooth="yes"/>
      <point x="494.408" y="495"/>
      <point x="552.003" y="423"/>
      <point x="535.054" y="316" type="curve" smooth="yes"/>
      <point x="488.96" y="25" type="line" smooth="yes"/>
      <point x="470.269" y="-93"/>
      <point x="377.072" y="-170"/>
      <point x="253.072" y="-170" type="curve" smooth="yes"/>
      <point x="183.072" y="-170" type="line"/>
      <point x="196.061" y="-88" type="line"/>
      <point x="266.061" y="-88" type="line" smooth="yes"/>
      <point x="337.061" y="-88"/>
      <point x="387.872" y="-45"/>
      <point x="398.96" y="25" type="curve" smooth="yes"/>
      <point x="441.886" y="296" type="line" smooth="yes"/>
      <point x="454.717" y="377"/>
      <point x="430.37" y="419"/>
      <point x="370.37" y="419" type="curve" smooth="yes"/>
      <point x="331.37" y="419"/>
      <point x="290.36" y="400"/>
      <point x="251.341" y="362" type="curve" smooth="yes"/>
      <point x="199.262" y="311" type="line"/>
      <point x="150" y="0" type="line"/>
      <point x="60" y="0" type="line"/>
      <point x="161.534" y="641" type="line"/>
      <point x="51.5344" y="641" type="line"/>
    </contour>
  </outline>
</glyph>
<glyph name="uni0404" format="2">
  <advance width="600" height="985"/>
  <unicode hex="0404"/>
  <outline>
    <contour>
      <point x="359.632" y="730" type="curve" smooth="yes"/>
      <point x="483.632" y="730"/>
      <point x="554.069" y="657"/>
      <point x="548.744" y="535" type="curve"/>
      <point x="458.744" y="535" type="line"/>
      <point x="462.149" y="607"/>
      <point x="419.96" y="650"/>
      <point x="346.96" y="650" type="curve" smooth="yes"/>
      <point x="266.96" y="650"/>
      <point x="208.882" y="599"/>
      <point x="195.576" y="515" type="curve" smooth="yes"/>
      <point x="146.472" y="205" type="line" smooth="yes"/>
      <point x="133.166" y="121"/>
      <point x="174.088" y="70"/>
      <point x="255.088" y="70" type="curve" smooth="yes"/>
      <point x="328.088" y="70"/>
      <point x="383.899" y="113"/>
      <point x="403.304" y="185" type="curve"/>
      <point x="493.304" y="185" type="line"/>
      <point x="459.979" y="63"/>
      <point x="366.416" y="-10"/>
      <point x="242.416" y="-10" type="curve" smooth="yes"/>
      <point x="106.416" y="-10"/>
      <point x="35.088" y="70"/>
      <point x="55.68" y="200" type="curve" smooth="yes"/>
      <point x="106.368" y="520" type="line" smooth="yes"/>
      <point x="126.96" y="650"/>
      <point x="223.632" y="730"/>
    </contour>
    <contour>
      <point x="413.48" y="325" type="line"/>
      <point x="135.48" y="325" type="line"/>
      <point x="148.152" y="405" type="line"/>
      <point x="426.152" y="405" type="line"/>
    </contour>
  </outline>
</glyph>
<glyph name="uni0409" format="2">
  <advance width="600" height="985"/>
  <unicode hex="0409"/>
  <outline>
    <contour>
      <point x="138.048" y="720" type="line"/>
      <point x="424.048" y="720" type="line"/>
      <point x="378.112" y="430" type="line"/>
      <point x="438.112" y="430" type="line" smooth="yes"/>
      <point x="534.112" y="430"/>
      <point x="588.291" y="368"/>
      <point x="573.56" y="275" type="curve" smooth="yes"/>
      <point x="554.552" y="155" type="line" smooth="yes"/>
      <point x="539.821" y="62"/>
      <point x="466" y="0"/>
      <point x="370" y="0" type="curve" smooth="yes"/>
      <point x="230" y="0" type="line"/>
      <point x="332.168" y="645" type="line"/>
      <point x="205.168" y="645" type="line"/>
      <point x="128.73" y="194" type="line" smooth="yes"/>
      <point x="108.563" y="73"/>
      <point x="45.208" y="-5"/>
      <point x="-40.792" y="-5" type="curve" smooth="yes"/>
      <point x="-55.792" y="-5" type="line"/>
      <point x="-43.12" y="75" type="line"/>
      <point x="-25.12" y="75" type="line" smooth="yes"/>
      <point x="7.88" y="75"/>
      <point x="37.8" y="125"/>
      <point x="49.7296" y="194" type="curve" smooth="yes"/>
    </contour>
    <contour>
      <point x="366.232" y="355" type="line"/>
      <point x="321.88" y="75" type="line"/>
      <point x="381.88" y="75" type="line" smooth="yes"/>
      <point x="429.88" y="75"/>
      <point x="466.949" y="107"/>
      <point x="474.552" y="155" type="curve" smooth="yes"/>
      <point x="493.56" y="275" type="line" smooth="yes"/>
      <point x="501.163" y="323"/>
      <point x="474.232" y="355"/>
      <point x="426.232" y="355" type="curve" smooth="yes"/>
    </contour>
  </outline>
</glyph>
<glyph name="uni040A" format="2">
  <advance width="600" height="985"/>
  <unicode hex="040A"/>
  <outline>
    <contour>
      <point x="117.048" y="720" type="line"/>
      <point x="3" y="0" type="line"/>
      <point x="83" y="0" type="line"/>
      <point x="139.232" y="355" type="line"/>
      <point x="286.232" y="355" type="line"/>
      <point x="230" y="0" type="line"/>
      <point x="370" y="0" type="line" smooth="yes"/>
      <point x="466" y="0"/>
      <point x="539.821" y="62"/>
      <point x="554.552" y="155" type="curve" smooth="yes"/>
      <point x="573.56" y="275" type="line" smooth="yes"/>
      <point x="588.291" y="368"/>
      <point x="534.112" y="430"/>
      <point x="438.112" y="430" type="curve" smooth="yes"/>
      <point x="378.112" y="430" type="line"/>
      <point x="424.048" y="720" type="line"/>
      <point x="344.048" y="720" type="line"/>
      <point x="298.112" y="430" type="line"/>
      <point x="151.112" y="430" type="line"/>
      <point x="197.048" y="720" type="line"/>
    </contour>
    <contour>
      <point x="366.232" y="355" type="line"/>
      <point x="426.232" y="355" type="line" smooth="yes"/>
      <point x="474.232" y="355"/>
      <point x="501.163" y="323"/>
      <point x="493.56" y="275" type="curve" smooth="yes"/>
      <point x="474.552" y="155" type="line" smooth="yes"/>
      <point x="466.949" y="107"/>
      <point x="429.88" y="75"/>
      <point x="381.88" y="75" type="curve" smooth="yes"/>
      <point x="321.88" y="75" type="line"/>
    </contour>
  </outline>
</glyph>
<glyph name="uni040F" format="2">
  <advance width="600" height="985"/>
  <unicode hex="040F"/>
  <outline>
    <contour>
      <point x="205" y="0" type="line"/>
      <point x="185.2" y="-125" type="line"/>
      <point x="275.2" y="-125" type="line"/>
      <point x="295" y="0" type="line"/>
      <point x="460" y="0" type="line"/>
      <point x="574.048" y="720" type="line"/>
      <point x="484.048" y="720" type="line"/>
      <point x="382.989" y="82" type="line"/>
      <point x="142.989" y="82" type="line"/>
      <point x="244.048" y="720" type="line"/>
      <point x="154.048" y="720" type="line"/>
      <point x="40" y="0" type="line"/>
    </contour>
  </outline>
</glyph>
<glyph name="uni0414" format="2">
  <advance width="600" height="985"/>
  <unicode hex="0414"/>
  <outline>
    <contour>
      <point x="128.781" y="87" type="curve"/>
      <point x="127.672" y="80" type="line"/>
      <point x="377.672" y="80" type="line"/>
      <point x="466.059" y="638" type="line"/>
      <point x="269.059" y="638" type="line"/>
      <point x="224.192" y="380" type="line" smooth="yes"/>
      <point x="185.869" y="157"/>
      <point x="128.781" y="87"/>
    </contour>
    <contour>
      <point x="55" y="0" type="line"/>
      <point x="32.824" y="-140" type="line"/>
      <point x="-47.176" y="-140" type="line"/>
      <point x="-12.328" y="80" type="line"/>
      <point x="32.672" y="80" type="line"/>
      <point x="32.672" y="80"/>
      <point x="97.7696" y="169"/>
      <point x="135.192" y="380" type="curve" smooth="yes"/>
      <point x="195.048" y="720" type="line"/>
      <point x="569.048" y="720" type="line"/>
      <point x="467.672" y="80" type="line"/>
      <point x="537.672" y="80" type="line"/>
      <point x="502.824" y="-140" type="line"/>
      <point x="422.824" y="-140" type="line"/>
      <point x="445" y="0" type="line"/>
    </contour>
  </outline>
</glyph>
<glyph name="uni0416" format="2">
  <advance width="600" height="985"/>
  <unicode hex="0416"/>
  <outline>
    <contour>
      <point x="-45" y="0" type="line" name="ab01"/>
      <point x="145.925" y="372" type="line"/>
      <point x="79.048" y="720" type="line" name="at01"/>
      <point x="170.048" y="720" type="line"/>
      <point x="225.677" y="402" type="line" name="sv01"/>
      <point x="274.677" y="402" type="line" name="dh01"/>
      <point x="325.048" y="720" type="line" name="at02"/>
      <point x="403.048" y="720" type="line"/>
      <point x="352.677" y="402" type="line" name="dh02"/>
      <point x="401.677" y="402" type="line" name="dv02"/>
      <point x="557.048" y="720" type="line" name="at03"/>
      <point x="649.048" y="720" type="line"/>
      <point x="473.45" y="369" type="line"/>
      <point x="545" y="0" type="line" name="ab02"/>
      <point x="455" y="0" type="line"/>
      <point x="396.222" y="336" type="line" name="dv01"/>
      <point x="342.222" y="336" type="line" name="sh01"/>
      <point x="289" y="0" type="line" name="ab03"/>
      <point x="211" y="0" type="line" name="sh02"/>
      <point x="264.222" y="336" type="line" name="sv02"/>
      <point x="216.222" y="336" type="line"/>
      <point x="51" y="0" type="line"/>
    </contour>
  </outline>
</glyph>
<glyph name="uni0417" format="2">
  <advance width="600" height="985"/>
  <unicode hex="0417"/>
  <outline>
    <contour>
      <point x="97.16" y="525" type="curve"/>
      <point x="187.16" y="525" type="line"/>
      <point x="199.04" y="600"/>
      <point x="260.96" y="650"/>
      <point x="341.96" y="650" type="curve" smooth="yes"/>
      <point x="423.96" y="650"/>
      <point x="469.515" y="603"/>
      <point x="457.794" y="529" type="curve" smooth="yes"/>
      <point x="446.23" y="456"/>
      <point x="384.469" y="407"/>
      <point x="303.469" y="407" type="curve" smooth="yes"/>
      <point x="209.469" y="407" type="line"/>
      <point x="196.48" y="325" type="line"/>
      <point x="291.48" y="325" type="line" smooth="yes"/>
      <point x="380.48" y="325"/>
      <point x="430.56" y="275"/>
      <point x="418.205" y="197" type="curve" smooth="yes"/>
      <point x="406.008" y="120"/>
      <point x="341.088" y="70"/>
      <point x="251.088" y="70" type="curve" smooth="yes"/>
      <point x="169.088" y="70"/>
      <point x="119.058" y="114"/>
      <point x="122.304" y="185" type="curve"/>
      <point x="32.304" y="185" type="line"/>
      <point x="21.4544" y="66"/>
      <point x="101.416" y="-10"/>
      <point x="238.416" y="-10" type="curve" smooth="yes"/>
      <point x="390.416" y="-10"/>
      <point x="492.613" y="67"/>
      <point x="513.205" y="197" type="curve" smooth="yes"/>
      <point x="529.362" y="299"/>
      <point x="482.974" y="366"/>
      <point x="394.766" y="371" type="curve"/>
      <point x="395.717" y="377" type="line"/>
      <point x="476.667" y="383"/>
      <point x="539.646" y="446"/>
      <point x="553.744" y="535" type="curve" smooth="yes"/>
      <point x="572.594" y="654"/>
      <point x="494.632" y="730"/>
      <point x="354.632" y="730" type="curve" smooth="yes"/>
      <point x="216.632" y="730"/>
      <point x="117.118" y="651"/>
    </contour>
  </outline>
</glyph>
<glyph name="uni0418" format="2">
  <advance width="600" height="985"/>
  <unicode hex="0418"/>
  <outline>
    <contour>
      <point x="149.048" y="720" type="line"/>
      <point x="235.048" y="720" type="line"/>
      <point x="157.432" y="230" type="line" smooth="yes"/>
      <point x="146.344" y="160"/>
      <point x="126.84" y="100"/>
      <point x="127.84" y="100" type="curve"/>
      <point x="134.84" y="100" type="line"/>
      <point x="134.84" y="100"/>
      <point x="171.938" y="189"/>
      <point x="198.541" y="237" type="curve" smooth="yes"/>
      <point x="464.048" y="720" type="line"/>
      <point x="579.048" y="720" type="line"/>
      <point x="465" y="0" type="line"/>
      <point x="379" y="0" type="line"/>
      <point x="456.933" y="492" type="line" smooth="yes"/>
      <point x="468.813" y="567"/>
      <point x="484.366" y="621"/>
      <point x="484.366" y="621" type="curve"/>
      <point x="477.366" y="621" type="line"/>
      <point x="477.366" y="621"/>
      <point x="445.011" y="543"/>
      <point x="412.666" y="484" type="curve" smooth="yes"/>
      <point x="150" y="0" type="line"/>
      <point x="35" y="0" type="line"/>
    </contour>
  </outline>
</glyph>
<glyph name="uni041F" format="2">
  <advance width="600" height="985"/>
  <unicode hex="041F"/>
  <outline>
    <contour>
      <point x="154.048" y="720" type="line"/>
      <point x="40" y="0" type="line"/>
      <point x="130" y="0" type="line"/>
      <point x="231.059" y="638" type="line"/>
      <point x="471.059" y="638" type="line"/>
      <point x="370" y="0" type="line"/>
      <point x="460" y="0" type="line"/>
      <point x="574.048" y="720" type="line"/>
    </contour>
  </outline>
</glyph>
<glyph name="uni0427" format="2">
  <advance width="600" height="985"/>
  <unicode hex="0427"/>
  <outline>
    <contour>
      <point x="139.048" y="720" type="line" name="at01"/>
      <point x="99.6064" y="471" type="line" smooth="yes"/>
      <point x="79.648" y="345"/>
      <point x="148.342" y="261"/>
      <point x="271.342" y="261" type="curve" smooth="yes" name="dv01"/>
      <point x="411.342" y="261" type="line" name="sh01"/>
      <point x="370" y="0" type="line" name="ab01"/>
      <point x="460" y="0" type="line" name="sh02"/>
      <point x="574.048" y="720" type="line" name="at02"/>
      <point x="484.048" y="720" type="line" name="sh03"/>
      <point x="424.014" y="341" type="line"/>
      <point x="299.014" y="341" type="line" smooth="yes" name="dv02"/>
      <point x="216.014" y="341"/>
      <point x="176.459" y="388"/>
      <point x="189.606" y="471" type="curve" smooth="yes"/>
      <point x="229.048" y="720" type="line" name="sh04"/>
    </contour>
  </outline>
</glyph>
<glyph name="uni0428" format="2">
  <advance width="600" height="985"/>
  <unicode hex="0428"/>
  <outline>
    <contour>
      <point x="126.048" y="720" type="line" name="at01"/>
      <point x="14" y="0" type="line" name="ab01"/>
      <point x="488" y="0" type="line"/>
      <point x="602.048" y="720" type="line" name="at02"/>
      <point x="519.048" y="720" type="line" name="dh03"/>
      <point x="415.771" y="68" type="line" name="sv01"/>
      <point x="297.771" y="68" type="line"/>
      <point x="401.048" y="720" type="line" name="at03"/>
      <point x="329.048" y="720" type="line" name="dh02"/>
      <point x="225.771" y="68" type="line" name="sv02"/>
      <point x="106.771" y="68" type="line" name="sv03"/>
      <point x="210.048" y="720" type="line" name="dh01"/>
    </contour>
  </outline>
</glyph>
<glyph name="uni042B" format="2">
  <advance width="600" height="985"/>
  <unicode hex="042B"/>
  <outline>
    <contour>
      <point x="109.048" y="720" type="line"/>
      <point x="-5" y="0" type="line"/>
      <point x="150" y="0" type="line" smooth="yes"/>
      <point x="276" y="0"/>
      <point x="372.672" y="80"/>
      <point x="391.522" y="199" type="curve" smooth="yes"/>
      <point x="396.115" y="228" type="line" smooth="yes"/>
      <point x="415.123" y="348"/>
      <point x="343.795" y="428"/>
      <point x="217.795" y="428" type="curve" smooth="yes"/>
      <point x="152.795" y="428" type="line"/>
      <point x="199.048" y="720" type="line"/>
    </contour>
    <contour>
      <point x="140.123" y="348" type="line"/>
      <point x="205.123" y="348" type="line" smooth="yes"/>
      <point x="277.123" y="348"/>
      <point x="317.52" y="300"/>
      <point x="306.115" y="228" type="curve" smooth="yes"/>
      <point x="301.68" y="200" type="line" smooth="yes"/>
      <point x="290.275" y="128"/>
      <point x="234.672" y="80"/>
      <point x="162.672" y="80" type="curve" smooth="yes"/>
      <point x="97.672" y="80" type="line"/>
    </contour>
    <contour>
      <point x="529.048" y="720" type="line"/>
      <point x="415" y="0" type="line"/>
      <point x="505" y="0" type="line"/>
      <point x="619.048" y="720" type="line"/>
    </contour>
  </outline>
</glyph>
<glyph name="uni042C" format="2">
  <advance width="600" height="985"/>
  <unicode hex="042C"/>
  <outline>
    <contour>
      <point x="441.056" y="215" type="curve" smooth="yes" name="ah01"/>
      <point x="453.728" y="295"/>
      <point x="409.123" y="348"/>
      <point x="330.123" y="348" type="curve" smooth="yes" name="dv01"/>
      <point x="185.123" y="348" type="line"/>
      <point x="142.989" y="82" type="line" name="sv01"/>
      <point x="287.989" y="82" type="line" smooth="yes"/>
      <point x="366.989" y="82"/>
      <point x="428.384" y="135"/>
    </contour>
    <contour>
      <point x="244.048" y="720" type="line" name="at01"/>
      <point x="198.112" y="430" type="line"/>
      <point x="348.112" y="430" type="line" smooth="yes" name="dv02"/>
      <point x="479.112" y="430"/>
      <point x="554.49" y="344"/>
      <point x="534.056" y="215" type="curve" smooth="yes" name="sh02"/>
      <point x="513.781" y="87"/>
      <point x="411" y="0"/>
      <point x="280" y="0" type="curve" smooth="yes" name="ab01"/>
      <point x="40" y="0" type="line" name="sh01"/>
      <point x="154.048" y="720" type="line"/>
    </contour>
  </outline>
</glyph>
<glyph name="uni042E" format="2">
  <advance width="600" height="985"/>
  <unicode hex="042E"/>
  <outline>
    <contour>
      <point x="-30" y="0" type="line" name="dh01"/>
      <point x="56" y="0" type="line" name="dh02"/>
      <point x="109.064" y="335" type="line" name="dv01"/>
      <point x="215.064" y="335" type="line"/>
      <point x="190.512" y="180" type="line" smooth="yes" name="dh03"/>
      <point x="172.454" y="66"/>
      <point x="233.416" y="-10"/>
      <point x="344.416" y="-10" type="curve" smooth="yes" name="ab01"/>
      <point x="455.416" y="-10"/>
      <point x="540.454" y="66"/>
      <point x="558.512" y="180" type="curve" smooth="yes"/>
      <point x="615.536" y="540" type="line" smooth="yes" name="dh06"/>
      <point x="633.594" y="654"/>
      <point x="572.632" y="730"/>
      <point x="461.632" y="730" type="curve" smooth="yes" name="at01"/>
      <point x="350.632" y="730"/>
      <point x="265.594" y="654"/>
      <point x="247.536" y="540" type="curve" smooth="yes" name="sh01"/>
      <point x="227.736" y="415" type="line"/>
      <point x="121.736" y="415" type="line" name="dv02"/>
      <point x="170.048" y="720" type="line"/>
      <point x="84.048" y="720" type="line"/>
    </contour>
    <contour>
      <point x="449.277" y="652" type="curve" smooth="yes" name="sv01"/>
      <point x="509.277" y="652"/>
      <point x="540.307" y="608"/>
      <point x="529.536" y="540" type="curve" smooth="yes" name="dh05"/>
      <point x="472.512" y="180" type="line" smooth="yes"/>
      <point x="461.741" y="112"/>
      <point x="416.771" y="68"/>
      <point x="356.771" y="68" type="curve" smooth="yes" name="sv02"/>
      <point x="296.771" y="68"/>
      <point x="265.741" y="112"/>
      <point x="276.512" y="180" type="curve" smooth="yes" name="dh04"/>
      <point x="333.536" y="540" type="line" smooth="yes"/>
      <point x="344.307" y="608"/>
      <point x="389.277" y="652"/>
    </contour>
  </outline>
</glyph>
<glyph name="uni0433" format="2">
  <advance width="600" height="985"/>
  <unicode hex="0433"/>
  <outline>
    <contour>
      <point x="258.416" y="-10" type="line" smooth="yes"/>
      <point x="373.416" y="-10"/>
      <point x="465.603" y="48"/>
      <point x="489.384" y="135" type="curve"/>
      <point x="394.384" y="135" type="line"/>
      <point x="380.206" y="96"/>
      <point x="330.088" y="70"/>
      <point x="271.088" y="70" type="curve" smooth="yes"/>
      <point x="243.088" y="70" type="line" smooth="yes"/>
      <point x="172.088" y="70"/>
      <point x="134.157" y="102"/>
      <point x="142.295" y="153.377" type="curve" smooth="yes"/>
      <point x="149.205" y="197"/>
      <point x="184.323" y="223"/>
      <point x="246.749" y="232" type="curve" smooth="yes"/>
      <point x="331.65" y="244" type="line" smooth="yes"/>
      <point x="442.184" y="260"/>
      <point x="503.262" y="311"/>
      <point x="517.994" y="404" type="curve" smooth="yes"/>
      <point x="533.517" y="502"/>
      <point x="468.704" y="560"/>
      <point x="343.704" y="560" type="curve" smooth="yes"/>
      <point x="315.704" y="560" type="line" smooth="yes"/>
      <point x="209.704" y="560"/>
      <point x="121.834" y="504"/>
      <point x="95.6864" y="421" type="curve"/>
      <point x="190.686" y="421" type="line"/>
      <point x="204.23" y="456"/>
      <point x="249.032" y="480"/>
      <point x="303.032" y="480" type="curve" smooth="yes"/>
      <point x="331.032" y="480" type="line" smooth="yes"/>
      <point x="399.032" y="480"/>
      <point x="434.755" y="453"/>
      <point x="426.351" y="399.944" type="curve" smooth="yes"/>
      <point x="419.707" y="358"/>
      <point x="391.381" y="337"/>
      <point x="332.114" y="329" type="curve" smooth="yes"/>
      <point x="247.213" y="317" type="line" smooth="yes"/>
      <point x="126.52" y="300"/>
      <point x="66.6" y="250"/>
      <point x="51.3936" y="154" type="curve" smooth="yes"/>
      <point x="35.2368" y="52"/>
      <point x="100.416" y="-10"/>
      <point x="230.416" y="-10" type="curve" smooth="yes"/>
    </contour>
  </outline>
</glyph>
<glyph name="uni0434" format="2">
  <advance width="600" height="985"/>
  <unicode hex="0434"/>
  <outline>
    <contour>
      <point x="152.472" y="205" type="line" smooth="yes"/>
      <point x="139.166" y="121"/>
      <point x="180.088" y="70"/>
      <point x="261.088" y="70" type="curve" smooth="yes"/>
      <point x="341.088" y="70"/>
      <point x="399.166" y="121"/>
      <point x="412.472" y="205" type="curve" smooth="yes"/>
      <point x="425.144" y="285" type="line" smooth="yes"/>
      <point x="438.45" y="369"/>
      <point x="396.528" y="420"/>
      <point x="316.528" y="420" type="curve" smooth="yes"/>
      <point x="235.528" y="420"/>
      <point x="178.45" y="369"/>
      <point x="165.144" y="285" type="curve" smooth="yes"/>
    </contour>
    <contour>
      <point x="169.048" y="720" type="line"/>
      <point x="319.048" y="720" type="line" smooth="yes"/>
      <point x="484.048" y="720"/>
      <point x="567.416" y="615"/>
      <point x="539.696" y="440" type="curve" smooth="yes"/>
      <point x="502.472" y="205" type="line" smooth="yes"/>
      <point x="480.93" y="69"/>
      <point x="387.416" y="-10"/>
      <point x="248.416" y="-10" type="curve" smooth="yes"/>
      <point x="112.416" y="-10"/>
      <point x="41.4048" y="72"/>
      <point x="62.472" y="205" type="curve" smooth="yes"/>
      <point x="75.144" y="285" type="line" smooth="yes"/>
      <point x="96.2112" y="418"/>
      <point x="178.408" y="495"/>
      <point x="298.408" y="495" type="curve" smooth="yes"/>
      <point x="428.408" y="495"/>
      <point x="432.568" y="395"/>
      <point x="432.568" y="395" type="curve"/>
      <point x="442.568" y="395" type="line"/>
      <point x="449.696" y="440" type="line" smooth="yes"/>
      <point x="468.546" y="559"/>
      <point x="413.792" y="630"/>
      <point x="304.792" y="630" type="curve" smooth="yes"/>
      <point x="154.792" y="630" type="line"/>
    </contour>
  </outline>
</glyph>
<glyph name="uni0436" format="2">
  <advance width="600" height="985"/>
  <unicode hex="0436"/>
  <outline>
    <contour>
      <point x="-45" y="0" type="line" name="ab01"/>
      <point x="120.669" y="282" type="line"/>
      <point x="50.12" y="550" type="line" name="at01"/>
      <point x="138.12" y="550" type="line"/>
      <point x="196.421" y="312" type="line" name="sv01"/>
      <point x="260.421" y="312" type="line" name="dh01"/>
      <point x="298.12" y="550" type="line" name="at02"/>
      <point x="376.12" y="550" type="line"/>
      <point x="338.421" y="312" type="line" name="dh02"/>
      <point x="399.421" y="312" type="line" name="dv02"/>
      <point x="532.12" y="550" type="line" name="at03"/>
      <point x="624.12" y="550" type="line"/>
      <point x="469.144" y="285" type="line"/>
      <point x="545" y="0" type="line" name="ab02"/>
      <point x="457" y="0" type="line"/>
      <point x="396.283" y="248" type="line" name="dv01"/>
      <point x="328.283" y="248" type="line" name="sh01"/>
      <point x="289" y="0" type="line" name="ab03"/>
      <point x="211" y="0" type="line" name="sh02"/>
      <point x="250.283" y="248" type="line" name="sv02"/>
      <point x="188.283" y="248" type="line"/>
      <point x="51" y="0" type="line"/>
    </contour>
  </outline>
</glyph>
<glyph name="uni0437" format="2">
  <advance width="600" height="985"/>
  <unicode hex="0437"/>
  <outline>
    <contour>
      <point x="80.736" y="415" type="curve"/>
      <point x="175.736" y="415" type="line"/>
      <point x="189.28" y="450"/>
      <point x="235.557" y="477"/>
      <point x="289.557" y="477" type="curve" smooth="yes"/>
      <point x="349.557" y="477" type="line" smooth="yes"/>
      <point x="409.557" y="477"/>
      <point x="438.122" y="449"/>
      <point x="430.36" y="400" type="curve" smooth="yes"/>
      <point x="422.757" y="352"/>
      <point x="384.688" y="320"/>
      <point x="323.688" y="320" type="curve" smooth="yes"/>
      <point x="184.688" y="320" type="line"/>
      <point x="172.333" y="242" type="line"/>
      <point x="314.333" y="242" type="line" smooth="yes"/>
      <point x="382.333" y="242"/>
      <point x="413.106" y="209"/>
      <point x="404.71" y="156" type="curve" smooth="yes"/>
      <point x="396.949" y="107"/>
      <point x="352.563" y="73"/>
      <point x="287.563" y="73" type="curve" smooth="yes"/>
      <point x="230.563" y="73" type="line" smooth="yes"/>
      <point x="168.563" y="73"/>
      <point x="128.048" y="95"/>
      <point x="124.592" y="130" type="curve"/>
      <point x="31.592" y="130" type="line"/>
      <point x="32.2864" y="46"/>
      <point x="104.891" y="-7"/>
      <point x="217.891" y="-7" type="curve" smooth="yes"/>
      <point x="274.891" y="-7" type="line" smooth="yes"/>
      <point x="397.891" y="-7"/>
      <point x="483.395" y="53"/>
      <point x="499.077" y="152" type="curve" smooth="yes"/>
      <point x="512.066" y="234"/>
      <point x="478.035" y="278"/>
      <point x="385.144" y="285" type="curve"/>
      <point x="385.778" y="289" type="line"/>
      <point x="463.57" y="294"/>
      <point x="515.698" y="339"/>
      <point x="526.152" y="405" type="curve" smooth="yes"/>
      <point x="541.042" y="499"/>
      <point x="478.229" y="557"/>
      <point x="362.229" y="557" type="curve" smooth="yes"/>
      <point x="302.229" y="557" type="line" smooth="yes"/>
      <point x="196.229" y="557"/>
      <point x="106.883" y="498"/>
    </contour>
  </outline>
</glyph>
<glyph name="uni0438" format="2">
  <advance width="600" height="985"/>
  <unicode hex="0438"/>
  <outline>
    <contour>
      <point x="250.454" y="66" type="curve" smooth="yes"/>
      <point x="329.454" y="66"/>
      <point x="386.374" y="116"/>
      <point x="398.888" y="195" type="curve"/>
      <point x="423.888" y="195" type="line"/>
      <point x="408.048" y="95" type="line"/>
      <point x="380.048" y="95" type="line"/>
      <point x="352.594" y="29"/>
      <point x="290.416" y="-10"/>
      <point x="212.416" y="-10" type="curve" smooth="yes"/>
      <point x="104.416" y="-10"/>
      <point x="45.1376" y="64"/>
      <point x="63.3536" y="179" type="curve" smooth="yes"/>
      <point x="122.12" y="550" type="line"/>
      <point x="210.12" y="550" type="line"/>
      <point x="154.522" y="199" type="line" smooth="yes"/>
      <point x="141.216" y="115"/>
      <point x="176.454" y="66"/>
    </contour>
    <contour>
      <point x="455.12" y="550" type="line"/>
      <point x="543.12" y="550" type="line"/>
      <point x="456" y="0" type="line"/>
      <point x="373" y="0" type="line"/>
      <point x="388.206" y="96" type="line"/>
      <point x="383.206" y="96" type="line"/>
    </contour>
  </outline>
</glyph>
<glyph name="uni043A" format="2">
  <advance width="600" height="985"/>
  <unicode hex="043A"/>
  <outline>
    <contour>
      <point x="217.12" y="550" type="line" name="at01"/>
      <point x="180.688" y="320" type="line"/>
      <point x="282.688" y="320" type="line" name="dv02"/>
      <point x="488.12" y="550" type="line" name="at02"/>
      <point x="596.12" y="550" type="line"/>
      <point x="358.51" y="281" type="line"/>
      <point x="512" y="0" type="line" name="ab01"/>
      <point x="409" y="0" type="line"/>
      <point x="280.016" y="240" type="line" name="dv01"/>
      <point x="168.016" y="240" type="line"/>
      <point x="130" y="0" type="line" name="ab02"/>
      <point x="40" y="0" type="line" name="dh01"/>
      <point x="127.12" y="550" type="line"/>
    </contour>
  </outline>
</glyph>
<glyph name="uni043B" format="2">
  <advance width="600" height="985"/>
  <unicode hex="043B"/>
  <outline>
    <contour>
      <point x="110.65" y="244" type="line" smooth="yes"/>
      <point x="89.008" y="120"/>
      <point x="61.5136" y="79"/>
      <point x="0.5136" y="79" type="curve" smooth="yes"/>
      <point x="-17.4864" y="79" type="line"/>
      <point x="-30.792" y="-5" type="line"/>
      <point x="-7.792" y="-5" type="line" smooth="yes"/>
      <point x="109.208" y="-5"/>
      <point x="168.296" y="65"/>
      <point x="200.016" y="240" type="curve" smooth="yes"/>
      <point x="241.131" y="468" type="line"/>
      <point x="444.131" y="468" type="line"/>
      <point x="370" y="0" type="line"/>
      <point x="460" y="0" type="line"/>
      <point x="547.12" y="550" type="line"/>
      <point x="165.12" y="550" type="line"/>
    </contour>
  </outline>
</glyph>
<glyph name="uni043D" format="2">
  <advance width="600" height="985"/>
  <unicode hex="043D"/>
  <outline>
    <contour>
      <point x="457.12" y="550" type="line"/>
      <point x="420.371" y="318" type="line"/>
      <point x="180.371" y="318" type="line"/>
      <point x="217.12" y="550" type="line"/>
      <point x="127.12" y="550" type="line"/>
      <point x="40" y="0" type="line"/>
      <point x="130" y="0" type="line"/>
      <point x="167.382" y="236" type="line"/>
      <point x="407.382" y="236" type="line"/>
      <point x="370" y="0" type="line"/>
      <point x="460" y="0" type="line"/>
      <point x="547.12" y="550" type="line"/>
    </contour>
  </outline>
</glyph>
<glyph name="uni043F" format="2">
  <advance width="600" height="985"/>
  <unicode hex="043F"/>
  <outline>
    <contour>
      <point x="127.12" y="550" type="line"/>
      <point x="40" y="0" type="line"/>
      <point x="130" y="0" type="line"/>
      <point x="204.131" y="468" type="line"/>
      <point x="444.131" y="468" type="line"/>
      <point x="370" y="0" type="line"/>
      <point x="460" y="0" type="line"/>
      <point x="547.12" y="550" type="line"/>
    </contour>
  </outline>
</glyph>
<glyph name="uni0442" format="2">
  <advance width="600" height="985"/>
  <unicode hex="0442"/>
  <outline>
    <contour>
      <point x="82.12" y="550" type="line"/>
      <point x="592.12" y="550" type="line"/>
      <point x="579.606" y="471" type="line"/>
      <point x="370.606" y="471" type="line"/>
      <point x="296" y="0" type="line"/>
      <point x="204" y="0" type="line"/>
      <point x="278.606" y="471" type="line"/>
      <point x="69.6064" y="471" type="line"/>
    </contour>
  </outline>
</glyph>
<glyph name="uni0446" format="2">
  <advance width="600" height="985"/>
  <unicode hex="0446"/>
  <outline>
    <contour>
      <point x="156.928" y="170" type="line" smooth="yes"/>
      <point x="148.374" y="116"/>
      <point x="178.672" y="80"/>
      <point x="232.672" y="80" type="curve" smooth="yes"/>
      <point x="372.672" y="80" type="line"/>
      <point x="447.12" y="550" type="line"/>
      <point x="537.12" y="550" type="line"/>
      <point x="462.672" y="80" type="line"/>
      <point x="537.672" y="80" type="line"/>
      <point x="502.824" y="-140" type="line"/>
      <point x="422.824" y="-140" type="line"/>
      <point x="445" y="0" type="line"/>
      <point x="220" y="0" type="line" smooth="yes"/>
      <point x="112" y="0"/>
      <point x="50.7712" y="68"/>
      <point x="66.928" y="170" type="curve" smooth="yes"/>
      <point x="127.12" y="550" type="line"/>
      <point x="217.12" y="550" type="line"/>
    </contour>
  </outline>
</glyph>
<glyph name="uni0447" format="2">
  <advance width="600" height="985"/>
  <unicode hex="0447"/>
  <outline>
    <contour>
      <point x="287.768" y="270" type="line" smooth="yes" name="dv02"/>
      <point x="206.768" y="270"/>
      <point x="164.421" y="312"/>
      <point x="175.192" y="380" type="curve" smooth="yes"/>
      <point x="202.12" y="550" type="line" name="at01"/>
      <point x="112.12" y="550" type="line" name="sh01"/>
      <point x="85.192" y="380" type="line" smooth="yes"/>
      <point x="65.8672" y="258"/>
      <point x="133.779" y="188"/>
      <point x="269.938" y="189" type="curve" smooth="yes" name="dv01"/>
      <point x="395.096" y="190" type="line" name="sh02"/>
      <point x="365" y="0" type="line" name="ab01"/>
      <point x="455" y="0" type="line" name="sh03"/>
      <point x="542.12" y="550" type="line" name="at02"/>
      <point x="452.12" y="550" type="line" name="sh04"/>
      <point x="407.768" y="270" type="line"/>
    </contour>
  </outline>
</glyph>
<glyph name="uni0448" format="2">
  <advance width="600" height="985"/>
  <unicode hex="0448"/>
  <outline>
    <contour>
      <point x="180" y="0" type="line" smooth="yes"/>
      <point x="77" y="0"/>
      <point x="20.296" y="65"/>
      <point x="35.9776" y="164" type="curve" smooth="yes"/>
      <point x="97.12" y="550" type="line"/>
      <point x="181.12" y="550" type="line"/>
      <point x="119.978" y="164" type="line" smooth="yes"/>
      <point x="111.266" y="109"/>
      <point x="138.722" y="74"/>
      <point x="191.722" y="74" type="curve" smooth="yes"/>
      <point x="225.722" y="74" type="line"/>
      <point x="301.12" y="550" type="line"/>
      <point x="373.12" y="550" type="line"/>
      <point x="297.722" y="74" type="line"/>
      <point x="417.722" y="74" type="line"/>
      <point x="493.12" y="550" type="line"/>
      <point x="577.12" y="550" type="line"/>
      <point x="490" y="0" type="line"/>
    </contour>
  </outline>
</glyph>
<glyph name="uni044A" format="2">
  <advance width="600" height="985"/>
  <unicode hex="044A"/>
  <outline>
    <contour>
      <point x="196.562" y="174" type="line"/>
      <point x="187.058" y="114"/>
      <point x="219.989" y="82"/>
      <point x="288.989" y="82" type="curve" smooth="yes"/>
      <point x="330.989" y="82" type="line" smooth="yes"/>
      <point x="395.989" y="82"/>
      <point x="440.374" y="116"/>
      <point x="449.562" y="174" type="curve" smooth="yes"/>
      <point x="458.749" y="232"/>
      <point x="425.134" y="266"/>
      <point x="360.134" y="266" type="curve" smooth="yes"/>
      <point x="212.134" y="266" type="line"/>
    </contour>
    <contour>
      <point x="106.562" y="174" type="curve"/>
      <point x="154.448" y="470" type="line"/>
      <point x="24.448" y="470" type="line"/>
      <point x="37.12" y="550" type="line"/>
      <point x="257.12" y="550" type="line"/>
      <point x="225.123" y="348" type="line"/>
      <point x="374.123" y="348" type="line" smooth="yes"/>
      <point x="497.123" y="348"/>
      <point x="559.827" y="283"/>
      <point x="542.562" y="174" type="curve" smooth="yes"/>
      <point x="525.138" y="64"/>
      <point x="443" y="0"/>
      <point x="319" y="0" type="curve" smooth="yes"/>
      <point x="274" y="0" type="line" smooth="yes"/>
      <point x="150" y="0"/>
      <point x="89.1376" y="64"/>
    </contour>
  </outline>
</glyph>
<glyph name="uni044B" format="2">
  <advance width="600" height="985"/>
  <unicode hex="044B"/>
  <outline>
    <contour>
      <point x="139.035" y="278" type="line"/>
      <point x="117.651" y="143" type="line" smooth="yes"/>
      <point x="110.206" y="96"/>
      <point x="139.138" y="64"/>
      <point x="186.138" y="64" type="curve" smooth="yes"/>
      <point x="233.138" y="64"/>
      <point x="272.365" y="97"/>
      <point x="279.81" y="144" type="curve" smooth="yes"/>
      <point x="288.363" y="198" type="line" smooth="yes"/>
      <point x="295.966" y="246"/>
      <point x="268.035" y="278"/>
      <point x="219.035" y="278" type="curve" smooth="yes"/>
    </contour>
    <contour>
      <point x="492.12" y="550" type="line"/>
      <point x="575.12" y="550" type="line"/>
      <point x="488" y="0" type="line"/>
      <point x="405" y="0" type="line"/>
    </contour>
    <contour>
      <point x="99.12" y="550" type="line"/>
      <point x="182.12" y="550" type="line"/>
      <point x="150.123" y="348" type="line"/>
      <point x="230.123" y="348" type="line" smooth="yes"/>
      <point x="329.123" y="348"/>
      <point x="385.619" y="288"/>
      <point x="371.363" y="198" type="curve" smooth="yes"/>
      <point x="362.81" y="144" type="line" smooth="yes"/>
      <point x="348.712" y="55"/>
      <point x="272.05" y="-6"/>
      <point x="175.05" y="-6" type="curve" smooth="yes"/>
      <point x="78.0496" y="-6"/>
      <point x="20.5536" y="54"/>
      <point x="34.6512" y="143" type="curve" smooth="yes"/>
    </contour>
  </outline>
</glyph>
<glyph name="uni044D" format="2">
  <advance width="600" height="985"/>
  <unicode hex="044D"/>
  <outline>
    <contour>
      <point x="82.984" y="385" type="curve"/>
      <point x="172.984" y="385" type="line"/>
      <point x="195.33" y="444"/>
      <point x="251.032" y="480"/>
      <point x="318.032" y="480" type="curve" smooth="yes"/>
      <point x="398.032" y="480"/>
      <point x="439.954" y="429"/>
      <point x="426.648" y="345" type="curve" smooth="yes"/>
      <point x="404.472" y="205" type="line" smooth="yes"/>
      <point x="391.166" y="121"/>
      <point x="334.088" y="70"/>
      <point x="253.088" y="70" type="curve" smooth="yes"/>
      <point x="186.088" y="70"/>
      <point x="141.79" y="106"/>
      <point x="138.136" y="165" type="curve"/>
      <point x="48.136" y="165" type="line"/>
      <point x="50.5536" y="54"/>
      <point x="121.416" y="-10"/>
      <point x="240.416" y="-10" type="curve" smooth="yes"/>
      <point x="380.416" y="-10"/>
      <point x="472.454" y="66"/>
      <point x="493.68" y="200" type="curve" smooth="yes"/>
      <point x="517.44" y="350" type="line" smooth="yes"/>
      <point x="537.715" y="478"/>
      <point x="464.704" y="560"/>
      <point x="330.704" y="560" type="curve" smooth="yes"/>
      <point x="209.704" y="560"/>
      <point x="120.883" y="498"/>
    </contour>
    <contour>
      <point x="225.688" y="320" type="line"/>
      <point x="213.016" y="240" type="line"/>
      <point x="500.016" y="240" type="line"/>
      <point x="512.688" y="320" type="line"/>
    </contour>
  </outline>
</glyph>
<glyph name="uni044E" format="2">
  <advance width="600" height="985"/>
  <unicode hex="044E"/>
  <outline>
    <contour>
      <point x="12" y="0" type="line" name="dh01"/>
      <point x="95" y="0" type="line" name="dh02"/>
      <point x="133.491" y="243" type="line" name="dv01"/>
      <point x="221.491" y="243" type="line"/>
      <point x="208.344" y="160" type="line" smooth="yes" name="dh03"/>
      <point x="191.87" y="56"/>
      <point x="239.416" y="-10"/>
      <point x="329.416" y="-10" type="curve" smooth="yes" name="ab01"/>
      <point x="426.416" y="-10"/>
      <point x="498.87" y="56"/>
      <point x="515.344" y="160" type="curve" smooth="yes"/>
      <point x="551.776" y="390" type="line" smooth="yes" name="dh06"/>
      <point x="568.25" y="494"/>
      <point x="516.704" y="560"/>
      <point x="419.704" y="560" type="curve" smooth="yes" name="at01"/>
      <point x="329.704" y="560"/>
      <point x="261.091" y="493"/>
      <point x="244.776" y="390" type="curve" smooth="yes" name="sh01"/>
      <point x="232.896" y="315" type="line"/>
      <point x="144.896" y="315" type="line" name="dv02"/>
      <point x="182.12" y="550" type="line"/>
      <point x="99.12" y="550" type="line" name="at02"/>
    </contour>
    <contour>
      <point x="408.616" y="490" type="curve" smooth="yes" name="sv01"/>
      <point x="456.616" y="490"/>
      <point x="478.755" y="453"/>
      <point x="468.776" y="390" type="curve" smooth="yes" name="dh05"/>
      <point x="432.344" y="160" type="line" smooth="yes"/>
      <point x="422.365" y="97"/>
      <point x="388.504" y="60"/>
      <point x="340.504" y="60" type="curve" smooth="yes" name="sv02"/>
      <point x="294.504" y="60"/>
      <point x="272.365" y="97"/>
      <point x="282.344" y="160" type="curve" smooth="yes" name="dh04"/>
      <point x="318.776" y="390" type="line" smooth="yes"/>
      <point x="328.755" y="453"/>
      <point x="362.616" y="490"/>
    </contour>
  </outline>
</glyph>
<glyph name="uni044F" format="2">
  <advance width="600" height="985"/>
  <unicode hex="044F"/>
  <outline>
    <contour>
      <point x="547.12" y="550" type="line" name="at01"/>
      <point x="302.12" y="550" type="line" smooth="yes"/>
      <point x="176.12" y="550"/>
      <point x="91.9824" y="486"/>
      <point x="74.7168" y="377" type="curve" smooth="yes" name="sh01"/>
      <point x="62.2032" y="298"/>
      <point x="106.432" y="230"/>
      <point x="182.581" y="212" type="curve" name="sv01"/>
      <point x="5" y="0" type="line" name="ab01"/>
      <point x="113" y="0" type="line" name="sh03"/>
      <point x="279.472" y="205" type="line" name="dv01"/>
      <point x="402.472" y="205" type="line"/>
      <point x="370" y="0" type="line" name="ab02"/>
      <point x="460" y="0" type="line" name="sh04"/>
    </contour>
    <contour>
      <point x="166.717" y="377" type="curve" smooth="yes" name="sh02"/>
      <point x="175.746" y="434"/>
      <point x="223.448" y="470"/>
      <point x="289.448" y="470" type="curve" smooth="yes" name="sv02"/>
      <point x="444.448" y="470" type="line" name="sh05"/>
      <point x="415.144" y="285" type="line"/>
      <point x="260.144" y="285" type="line" smooth="yes" name="dv02"/>
      <point x="194.144" y="285"/>
      <point x="157.846" y="321"/>
    </contour>
  </outline>
</glyph>
<glyph name="uni0459" format="2">
  <advance width="600" height="985"/>
  <unicode hex="0459"/>
  <outline>
    <contour>
      <point x="363.718" y="276" type="line"/>
      <point x="433.718" y="276" type="line" smooth="yes"/>
      <point x="475.718" y="276"/>
      <point x="499.283" y="248"/>
      <point x="492.63" y="206" type="curve" smooth="yes"/>
      <point x="481.384" y="135" type="line" smooth="yes"/>
      <point x="474.731" y="93"/>
      <point x="442.296" y="65"/>
      <point x="400.296" y="65" type="curve" smooth="yes"/>
      <point x="358.296" y="65"/>
      <point x="334.731" y="93"/>
      <point x="341.226" y="134" type="curve" smooth="yes"/>
    </contour>
    <contour>
      <point x="120.12" y="550" type="line"/>
      <point x="59.7296" y="194" type="line" smooth="yes"/>
      <point x="47.8" y="125"/>
      <point x="18.672" y="80"/>
      <point x="-14.328" y="80" type="curve" smooth="yes"/>
      <point x="-32.328" y="80" type="line"/>
      <point x="-45.792" y="-5" type="line"/>
      <point x="-30.792" y="-5" type="line" smooth="yes"/>
      <point x="55.208" y="-5"/>
      <point x="120.563" y="73"/>
      <point x="140.73" y="194" type="curve" smooth="yes"/>
      <point x="187.923" y="473" type="line"/>
      <point x="314.923" y="473" type="line"/>
      <point x="261.226" y="134" type="line" smooth="yes"/>
      <point x="248.078" y="51"/>
      <point x="299.208" y="-5"/>
      <point x="389.208" y="-5" type="curve" smooth="yes"/>
      <point x="479.208" y="-5"/>
      <point x="548.078" y="51"/>
      <point x="561.384" y="135" type="curve" smooth="yes"/>
      <point x="572.63" y="206" type="line" smooth="yes"/>
      <point x="586.253" y="292"/>
      <point x="535.44" y="350"/>
      <point x="445.44" y="350" type="curve" smooth="yes"/>
      <point x="375.44" y="350" type="line"/>
      <point x="407.12" y="550" type="line"/>
    </contour>
  </outline>
</glyph>
<glyph name="uni045A" format="2">
  <advance width="600" height="985"/>
  <unicode hex="045A"/>
  <outline>
    <contour>
      <point x="90.12" y="550" type="line"/>
      <point x="3" y="0" type="line"/>
      <point x="83" y="0" type="line"/>
      <point x="126.56" y="275" type="line"/>
      <point x="273.56" y="275" type="line"/>
      <point x="252.81" y="144" type="line" smooth="yes"/>
      <point x="238.712" y="55"/>
      <point x="289.208" y="-5"/>
      <point x="379.208" y="-5" type="curve" smooth="yes"/>
      <point x="469.208" y="-5"/>
      <point x="538.712" y="55"/>
      <point x="552.968" y="145" type="curve" smooth="yes"/>
      <point x="560.888" y="195" type="line" smooth="yes"/>
      <point x="575.619" y="288"/>
      <point x="521.44" y="350"/>
      <point x="425.44" y="350" type="curve" smooth="yes"/>
      <point x="365.44" y="350" type="line"/>
      <point x="397.12" y="550" type="line"/>
      <point x="317.12" y="550" type="line"/>
      <point x="285.44" y="350" type="line"/>
      <point x="138.44" y="350" type="line"/>
      <point x="170.12" y="550" type="line"/>
    </contour>
    <contour>
      <point x="353.56" y="275" type="line"/>
      <point x="413.56" y="275" type="line" smooth="yes"/>
      <point x="461.56" y="275"/>
      <point x="488.491" y="243"/>
      <point x="480.888" y="195" type="curve" smooth="yes"/>
      <point x="472.968" y="145" type="line" smooth="yes"/>
      <point x="465.365" y="97"/>
      <point x="432.296" y="65"/>
      <point x="390.296" y="65" type="curve" smooth="yes"/>
      <point x="348.296" y="65"/>
      <point x="325.365" y="97"/>
      <point x="332.81" y="144" type="curve" smooth="yes"/>
    </contour>
  </outline>
</glyph>
<glyph name="uni045B" format="2">
  <advance width="600" height="985"/>
  <unicode hex="045B"/>
  <outline>
    <contour>
      <point x="215.12" y="550" type="line"/>
      <point x="207.2" y="500" type="line" smooth="yes"/>
      <point x="201.339" y="463"/>
      <point x="187.152" y="405"/>
      <point x="187.152" y="405" type="curve"/>
      <point x="195.152" y="405" type="line"/>
      <point x="222.606" y="471"/>
      <point x="284.784" y="510"/>
      <point x="362.784" y="510" type="curve" smooth="yes"/>
      <point x="471.784" y="510"/>
      <point x="531.587" y="433"/>
      <point x="513.054" y="316" type="curve" smooth="yes"/>
      <point x="463" y="0" type="line"/>
      <point x="373" y="0" type="line"/>
      <point x="420.678" y="301" type="line" smooth="yes"/>
      <point x="433.826" y="384"/>
      <point x="396.746" y="434"/>
      <point x="320.746" y="434" type="curve" smooth="yes"/>
      <point x="244.746" y="434"/>
      <point x="188.192" y="380"/>
      <point x="174.728" y="295" type="curve" smooth="yes"/>
      <point x="128" y="0" type="line"/>
      <point x="38" y="0" type="line"/>
      <point x="125.12" y="550" type="line"/>
      <point x="57.12" y="550" type="line"/>
      <point x="69" y="625" type="line"/>
      <point x="137" y="625" type="line"/>
      <point x="153.632" y="730" type="line"/>
      <point x="243.632" y="730" type="line"/>
      <point x="227" y="625" type="line"/>
      <point x="329" y="625" type="line"/>
      <point x="317.12" y="550" type="line"/>
    </contour>
  </outline>
</glyph>
<glyph name="uni0490" format="2">
  <advance width="600" height="985"/>
  <unicode hex="0490"/>
  <outline>
    <contour>
      <point x="514.048" y="720" type="line"/>
      <point x="530.68" y="825" type="line"/>
      <point x="615.68" y="825" type="line"/>
      <point x="586.059" y="638" type="line"/>
      <point x="246.059" y="638" type="line"/>
      <point x="145" y="0" type="line"/>
      <point x="55" y="0" type="line"/>
      <point x="169.048" y="720" type="line"/>
    </contour>
  </outline>
</glyph>
<glyph name="uni04AE" format="2">
  <advance width="600"/>
  <unicode hex="04AE"/>
  <outline>
    <contour>
      <point x="536.048" y="720" type="line"/>
      <point x="634.048" y="720" type="line"/>
      <point x="334.6" y="250" type="line"/>
      <point x="295" y="0" type="line"/>
      <point x="205" y="0" type="line"/>
      <point x="244.6" y="250" type="line"/>
      <point x="94.048" y="720" type="line"/>
      <point x="187.048" y="720" type="line"/>
      <point x="284.835" y="403" type="line" smooth="yes"/>
      <point x="296.133" y="367"/>
      <point x="299.322" y="324"/>
      <point x="299.322" y="324" type="curve"/>
      <point x="303.322" y="324" type="line"/>
      <point x="303.322" y="324"/>
      <point x="321.133" y="367"/>
      <point x="342.835" y="403" type="curve" smooth="yes"/>
    </contour>
  </outline>
</glyph>
<glyph name="uni04AF" format="2">
  <advance width="600"/>
  <unicode hex="04AF"/>
  <outline>
    <contour>
      <point x="509.12" y="550" type="line"/>
      <point x="607.12" y="550" type="line"/>
      <point x="307.672" y="80" type="line"/>
      <point x="268.072" y="-170" type="line"/>
      <point x="178.072" y="-170" type="line"/>
      <point x="217.672" y="80" type="line"/>
      <point x="67.12" y="550" type="line"/>
      <point x="160.12" y="550" type="line"/>
      <point x="257.907" y="233" type="line" smooth="yes"/>
      <point x="269.205" y="197"/>
      <point x="272.394" y="154"/>
      <point x="272.394" y="154" type="curve"/>
      <point x="276.394" y="154" type="line"/>
      <point x="276.394" y="154"/>
      <point x="294.205" y="197"/>
      <point x="315.907" y="233" type="curve" smooth="yes"/>
    </contour>
  </outline>
</glyph>
<glyph name="uni04E9" format="2">
  <advance width="600"/>
  <unicode hex="04E9"/>
  <outline>
    <contour>
      <point x="248.416" y="-10" type="curve" smooth="yes"/>
      <point x="384.416" y="-10"/>
      <point x="481.405" y="72"/>
      <point x="502.472" y="205" type="curve" smooth="yes"/>
      <point x="524.806" y="346" type="line" smooth="yes"/>
      <point x="545.715" y="478"/>
      <point x="473.704" y="560"/>
      <point x="338.704" y="560" type="curve" smooth="yes"/>
      <point x="203.704" y="560"/>
      <point x="105.557" y="477"/>
      <point x="84.648" y="345" type="curve" smooth="yes"/>
      <point x="62.472" y="205" type="line" smooth="yes"/>
      <point x="41.5632" y="73"/>
      <point x="113.416" y="-10"/>
    </contour>
    <contour>
      <point x="418.016" y="240" type="line"/>
      <point x="412.472" y="205" type="line" smooth="yes"/>
      <point x="399.166" y="121"/>
      <point x="341.088" y="70"/>
      <point x="261.088" y="70" type="curve" smooth="yes"/>
      <point x="180.088" y="70"/>
      <point x="139.166" y="121"/>
      <point x="152.472" y="205" type="curve" smooth="yes"/>
      <point x="158.016" y="240" type="line"/>
    </contour>
    <contour>
      <point x="169.896" y="315" type="line"/>
      <point x="174.648" y="345" type="line" smooth="yes"/>
      <point x="187.795" y="428"/>
      <point x="247.032" y="480"/>
      <point x="326.032" y="480" type="curve" smooth="yes"/>
      <point x="406.032" y="480"/>
      <point x="447.954" y="429"/>
      <point x="434.648" y="345" type="curve" smooth="yes"/>
      <point x="429.896" y="315" type="line"/>
    </contour>
  </outline>
</glyph>
<glyph name="endash" format="2">
  <advance width="600" height="975"/>
  <unicode hex="2013"/>
  <outline>
    <contour>
      <point x="76.232" y="370" type="line"/>
      <point x="536.232" y="370" type="line"/>
      <point x="524.352" y="295" type="line"/>
      <point x="64.352" y="295" type="line"/>
    </contour>
  </outline>
</glyph>
<glyph name="emdash" format="2">
  <advance width="600" height="975"/>
  <unicode hex="2014"/>
  <outline>
    <contour>
      <point x="21.232" y="370" type="line"/>
      <point x="591.232" y="370" type="line"/>
      <point x="579.352" y="295" type="line"/>
      <point x="9.352" y="295" type="line"/>
    </contour>
  </outline>
</glyph>
<glyph name="quoteleft" format="2">
  <advance width="600" height="975"/>
  <unicode hex="2018"/>
  <outline>
    <contour>
      <point x="250" y="464" type="line"/>
      <point x="429" y="775" type="line"/>
      <point x="509" y="775" type="line"/>
      <point x="380" y="464" type="line"/>
    </contour>
  </outline>
</glyph>
<glyph name="quotedblleft" format="2">
  <advance width="600" height="975"/>
  <unicode hex="201C"/>
  <outline>
    <contour>
      <point x="91" y="464" type="line"/>
      <point x="270" y="775" type="line"/>
      <point x="350" y="775" type="line"/>
      <point x="221" y="464" type="line"/>
    </contour>
    <contour>
      <point x="366" y="464" type="line"/>
      <point x="545" y="775" type="line"/>
      <point x="625" y="775" type="line"/>
      <point x="496" y="464" type="line"/>
    </contour>
  </outline>
</glyph>
<glyph name="quotedblbase" format="2">
  <advance width="600" height="975"/>
  <unicode hex="201E"/>
  <outline>
    <contour>
      <point x="509" y="151" type="line"/>
      <point x="330" y="-160" type="line"/>
      <point x="250" y="-160" type="line"/>
      <point x="379" y="151" type="line"/>
    </contour>
    <contour>
      <point x="234" y="151" type="line"/>
      <point x="55" y="-160" type="line"/>
      <point x="-25" y="-160" type="line"/>
      <point x="104" y="151" type="line"/>
    </contour>
  </outline>
</glyph>
<glyph name="dagger" format="2">
  <advance width="600" height="985"/>
  <unicode hex="2020"/>
  <outline>
    <contour>
      <point x="377.368" y="520" type="line"/>
      <point x="277.576" y="-110" type="line" name="av02"/>
      <point x="187.576" y="-110" type="line"/>
      <point x="287.368" y="520" type="line"/>
      <point x="112.368" y="520" type="line"/>
      <point x="125.04" y="600" type="line"/>
      <point x="300.04" y="600" type="line"/>
      <point x="336.472" y="830" type="line" name="av01"/>
      <point x="426.472" y="830" type="line" name="dh01"/>
      <point x="390.04" y="600" type="line"/>
      <point x="565.04" y="600" type="line" name="dv02"/>
      <point x="552.368" y="520" type="line" name="dv01"/>
    </contour>
  </outline>
</glyph>
<glyph name="daggerdbl" format="2">
  <advance width="600" height="985"/>
  <unicode hex="2021"/>
  <outline>
    <contour>
      <point x="187.576" y="-110" type="line"/>
      <point x="277.576" y="-110" type="line" name="av02"/>
      <point x="317.176" y="140" type="line"/>
      <point x="492.176" y="140" type="line" name="dv03"/>
      <point x="504.848" y="220" type="line" name="dv04"/>
      <point x="329.848" y="220" type="line"/>
      <point x="375.784" y="510" type="line"/>
      <point x="550.784" y="510" type="line" name="dv01"/>
      <point x="563.456" y="590" type="line" name="dv02"/>
      <point x="388.456" y="590" type="line"/>
      <point x="426.472" y="830" type="line" name="dh01"/>
      <point x="336.472" y="830" type="line" name="av01"/>
      <point x="298.456" y="590" type="line"/>
      <point x="123.456" y="590" type="line"/>
      <point x="110.784" y="510" type="line"/>
      <point x="285.784" y="510" type="line"/>
      <point x="239.848" y="220" type="line"/>
      <point x="64.848" y="220" type="line"/>
      <point x="52.176" y="140" type="line"/>
      <point x="227.176" y="140" type="line"/>
    </contour>
  </outline>
</glyph>
<glyph name="bullet" format="2">
  <advance width="600" height="975"/>
  <unicode hex="2022"/>
  <outline>
    <contour>
      <point x="187.816" y="365" type="curve" smooth="yes"/>
      <point x="198.872" y="434.8"/>
      <point x="257.024" y="485"/>
      <point x="326.824" y="485" type="curve" smooth="yes"/>
      <point x="396.624" y="485"/>
      <point x="438.872" y="434.8"/>
      <point x="427.816" y="365" type="curve" smooth="yes"/>
      <point x="416.76" y="295.2"/>
      <point x="358.608" y="245"/>
      <point x="288.808" y="245" type="curve" smooth="yes"/>
      <point x="219.008" y="245"/>
      <point x="176.76" y="295.2"/>
    </contour>
  </outline>
</glyph>
<glyph name="perthousand" format="2">
  <advance width="600" height="985"/>
  <unicode hex="2030"/>
  <outline>
    <contour>
      <point x="565.616" y="495" type="line"/>
      <point x="565.587" y="438" type="line"/>
      <point x="11.56" y="280" type="line"/>
      <point x="11.5888" y="337" type="line"/>
    </contour>
    <contour>
      <point x="187.349" y="105" type="curve" smooth="yes"/>
      <point x="201.605" y="195" type="line" smooth="yes"/>
      <point x="212.693" y="265"/>
      <point x="261.029" y="305"/>
      <point x="326.029" y="305" type="curve" smooth="yes"/>
      <point x="401.029" y="305"/>
      <point x="401.891" y="241"/>
      <point x="401.891" y="241" type="curve"/>
      <point x="401.891" y="241"/>
      <point x="424.029" y="305"/>
      <point x="499.029" y="305" type="curve" smooth="yes"/>
      <point x="564.029" y="305"/>
      <point x="599.693" y="265"/>
      <point x="588.605" y="195" type="curve" smooth="yes"/>
      <point x="574.349" y="105" type="line" smooth="yes"/>
      <point x="563.261" y="35"/>
      <point x="514.925" y="-5"/>
      <point x="449.925" y="-5" type="curve" smooth="yes"/>
      <point x="374.925" y="-5"/>
      <point x="374.062" y="59"/>
      <point x="374.062" y="59" type="curve"/>
      <point x="374.062" y="59"/>
      <point x="351.925" y="-5"/>
      <point x="276.925" y="-5" type="curve" smooth="yes"/>
      <point x="211.925" y="-5"/>
      <point x="176.261" y="35"/>
    </contour>
    <contour>
      <point x="422.605" y="195" type="curve" smooth="yes"/>
      <point x="408.349" y="105" type="line" smooth="yes"/>
      <point x="402.171" y="66"/>
      <point x="420.003" y="46"/>
      <point x="454.003" y="46" type="curve" smooth="yes"/>
      <point x="487.003" y="46"/>
      <point x="511.013" y="65"/>
      <point x="517.349" y="105" type="curve" smooth="yes"/>
      <point x="531.605" y="195" type="line" smooth="yes"/>
      <point x="537.941" y="235"/>
      <point x="519.95" y="254"/>
      <point x="486.95" y="254" type="curve" smooth="yes"/>
      <point x="452.95" y="254"/>
      <point x="428.782" y="234"/>
    </contour>
    <contour>
      <point x="289.003" y="46" type="curve" smooth="yes"/>
      <point x="323.003" y="46"/>
      <point x="347.171" y="66"/>
      <point x="353.349" y="105" type="curve" smooth="yes"/>
      <point x="367.605" y="195" type="line" smooth="yes"/>
      <point x="373.782" y="234"/>
      <point x="355.95" y="254"/>
      <point x="321.95" y="254" type="curve" smooth="yes"/>
      <point x="288.95" y="254"/>
      <point x="264.941" y="235"/>
      <point x="258.605" y="195" type="curve" smooth="yes"/>
      <point x="244.349" y="105" type="line" smooth="yes"/>
      <point x="238.013" y="65"/>
      <point x="256.003" y="46"/>
    </contour>
    <contour>
      <point x="171.416" y="670" type="curve" smooth="yes"/>
      <point x="125.416" y="670"/>
      <point x="106.506" y="639"/>
      <point x="100.328" y="600" type="curve" smooth="yes"/>
      <point x="93.2" y="555" type="line" smooth="yes"/>
      <point x="87.0224" y="516"/>
      <point x="96.112" y="485"/>
      <point x="142.112" y="485" type="curve" smooth="yes"/>
      <point x="193.112" y="485"/>
      <point x="207.814" y="521"/>
      <point x="213.2" y="555" type="curve" smooth="yes"/>
      <point x="220.328" y="600" type="line" smooth="yes"/>
      <point x="226.506" y="639"/>
      <point x="217.416" y="670"/>
    </contour>
    <contour>
      <point x="133.4" y="430" type="curve" smooth="yes"/>
      <point x="49.4" y="430"/>
      <point x="21.4784" y="481"/>
      <point x="33.2" y="555" type="curve" smooth="yes"/>
      <point x="40.328" y="600" type="line" smooth="yes"/>
      <point x="52.0496" y="674"/>
      <point x="96.128" y="725"/>
      <point x="180.128" y="725" type="curve" smooth="yes"/>
      <point x="264.128" y="725"/>
      <point x="292.05" y="674"/>
      <point x="280.328" y="600" type="curve" smooth="yes"/>
      <point x="273.2" y="555" type="line" smooth="yes"/>
      <point x="261.478" y="481"/>
      <point x="217.4" y="430"/>
    </contour>
  </outline>
</glyph>
<glyph name="second" format="2">
  <advance width="600"/>
  <unicode hex="2033"/>
  <outline>
    <contour>
      <point x="520" y="776" type="line"/>
      <point x="390" y="465" type="line"/>
      <point x="310" y="465" type="line"/>
      <point x="390" y="776" type="line"/>
    </contour>
    <contour>
      <point x="245" y="776" type="line"/>
      <point x="115" y="465" type="line"/>
      <point x="35" y="465" type="line"/>
      <point x="115" y="776" type="line"/>
    </contour>
  </outline>
</glyph>
<glyph name="fraction" format="2">
  <advance width="600" height="985"/>
  <unicode hex="2044"/>
  <outline>
    <contour>
      <point x="42" y="0" type="line"/>
      <point x="111" y="0" type="line"/>
      <point x="570.048" y="720" type="line"/>
      <point x="502.048" y="720" type="line"/>
    </contour>
  </outline>
</glyph>
<glyph name="uni2070" format="2">
  <advance width="600" height="985"/>
  <unicode hex="2070"/>
  <outline>
    <contour>
      <point x="353.752" y="715" type="curve" smooth="yes"/>
      <point x="307.752" y="715"/>
      <point x="278.842" y="684"/>
      <point x="271.08" y="635" type="curve" smooth="yes"/>
      <point x="260.784" y="570" type="line" smooth="yes"/>
      <point x="253.022" y="521"/>
      <point x="272.112" y="490"/>
      <point x="318.112" y="490" type="curve" smooth="yes"/>
      <point x="369.112" y="490"/>
      <point x="393.814" y="526"/>
      <point x="400.784" y="570" type="curve" smooth="yes"/>
      <point x="411.08" y="635" type="line" smooth="yes"/>
      <point x="418.842" y="684"/>
      <point x="399.752" y="715"/>
    </contour>
    <contour>
      <point x="309.4" y="435" type="curve" smooth="yes"/>
      <point x="225.4" y="435"/>
      <point x="187.478" y="486"/>
      <point x="200.784" y="570" type="curve" smooth="yes"/>
      <point x="211.08" y="635" type="line" smooth="yes"/>
      <point x="224.386" y="719"/>
      <point x="278.464" y="770"/>
      <point x="362.464" y="770" type="curve" smooth="yes"/>
      <point x="446.464" y="770"/>
      <point x="484.386" y="719"/>
      <point x="471.08" y="635" type="curve" smooth="yes"/>
      <point x="460.784" y="570" type="line" smooth="yes"/>
      <point x="447.478" y="486"/>
      <point x="393.4" y="435"/>
    </contour>
  </outline>
</glyph>
<glyph name="dong" format="2">
  <advance width="600"/>
  <unicode hex="20AB"/>
  <outline>
    <contour>
      <point x="491.048" y="720" type="line"/>
      <point x="576.048" y="720" type="line"/>
      <point x="564.96" y="650" type="line"/>
      <point x="642.96" y="650" type="line"/>
      <point x="632.664" y="585" type="line"/>
      <point x="554.664" y="585" type="line"/>
      <point x="471.504" y="60" type="line"/>
      <point x="391.504" y="60" type="line"/>
      <point x="406.552" y="155" type="line"/>
      <point x="398.552" y="155" type="line"/>
      <point x="371.098" y="89"/>
      <point x="303.92" y="50"/>
      <point x="222.92" y="50" type="curve" smooth="yes"/>
      <point x="111.92" y="50"/>
      <point x="50.9088" y="132"/>
      <point x="71.976" y="265" type="curve" smooth="yes"/>
      <point x="78.312" y="305" type="line" smooth="yes"/>
      <point x="99.3792" y="438"/>
      <point x="186.368" y="520"/>
      <point x="297.368" y="520" type="curve" smooth="yes"/>
      <point x="378.368" y="520"/>
      <point x="433.19" y="481"/>
      <point x="439.736" y="415" type="curve"/>
      <point x="447.736" y="415" type="line"/>
      <point x="447.736" y="415"/>
      <point x="452.24" y="475"/>
      <point x="457.784" y="510" type="curve" smooth="yes"/>
      <point x="469.664" y="585" type="line"/>
      <point x="327.664" y="585" type="line"/>
      <point x="337.96" y="650" type="line"/>
      <point x="479.96" y="650" type="line"/>
    </contour>
    <contour>
      <point x="319.805" y="447" type="curve" smooth="yes"/>
      <point x="236.198" y="447"/>
      <point x="177.346" y="393.598"/>
      <point x="163.312" y="305" type="curve" smooth="yes"/>
      <point x="156.976" y="265" type="line" smooth="yes"/>
      <point x="143.02" y="176.897"/>
      <point x="184.912" y="124"/>
      <point x="268.642" y="124" type="curve" smooth="yes"/>
      <point x="347.963" y="124"/>
      <point x="405.135" y="177.622"/>
      <point x="418.976" y="265" type="curve" smooth="yes"/>
      <point x="425.312" y="305" type="line" smooth="yes"/>
      <point x="439.198" y="392.667"/>
      <point x="398.828" y="447"/>
    </contour>
    <contour>
      <point x="40" y="0" type="line"/>
      <point x="460" y="0" type="line"/>
      <point x="447.328" y="-80" type="line"/>
      <point x="27.328" y="-80" type="line"/>
    </contour>
  </outline>
</glyph>
<glyph name="uni2116" format="2">
  <advance width="600" height="985"/>
  <unicode hex="2116"/>
  <outline>
    <contour>
      <point x="404.048" y="720" type="line"/>
      <point x="290" y="0" type="line"/>
      <point x="195" y="0" type="line"/>
      <point x="150.33" y="444" type="line" smooth="yes"/>
      <point x="143.834" y="504"/>
      <point x="142.95" y="631"/>
      <point x="142.95" y="631" type="curve"/>
      <point x="130.95" y="631" type="line"/>
      <point x="130.95" y="631"/>
      <point x="124.992" y="505"/>
      <point x="113.112" y="430" type="curve" smooth="yes"/>
      <point x="45" y="0" type="line"/>
      <point x="-25" y="0" type="line"/>
      <point x="89.048" y="720" type="line"/>
      <point x="184.048" y="720" type="line"/>
      <point x="231.877" y="277" type="line" smooth="yes"/>
      <point x="237.274" y="229"/>
      <point x="238.256" y="90"/>
      <point x="238.256" y="90" type="curve"/>
      <point x="250.256" y="90" type="line"/>
      <point x="251.256" y="90"/>
      <point x="254.848" y="220"/>
      <point x="265.936" y="290" type="curve" smooth="yes"/>
      <point x="334.048" y="720" type="line"/>
    </contour>
    <contour>
      <point x="536.92" y="675" type="curve" smooth="yes"/>
      <point x="518.92" y="675"/>
      <point x="499.386" y="659"/>
      <point x="495.584" y="635" type="curve" smooth="yes"/>
      <point x="457.568" y="395" type="line" smooth="yes"/>
      <point x="452.816" y="365"/>
      <point x="468.232" y="355"/>
      <point x="486.232" y="355" type="curve" smooth="yes"/>
      <point x="504.232" y="355"/>
      <point x="522.816" y="365"/>
      <point x="527.568" y="395" type="curve" smooth="yes"/>
      <point x="565.584" y="635" type="line" smooth="yes"/>
      <point x="569.386" y="659"/>
      <point x="554.92" y="675"/>
    </contour>
    <contour>
      <point x="477.52" y="300" type="curve" smooth="yes"/>
      <point x="423.52" y="300"/>
      <point x="389.173" y="342"/>
      <point x="399.152" y="405" type="curve" smooth="yes"/>
      <point x="434" y="625" type="line" smooth="yes"/>
      <point x="443.979" y="688"/>
      <point x="491.632" y="730"/>
      <point x="545.632" y="730" type="curve" smooth="yes"/>
      <point x="599.632" y="730"/>
      <point x="633.979" y="688"/>
      <point x="624" y="625" type="curve" smooth="yes"/>
      <point x="589.152" y="405" type="line" smooth="yes"/>
      <point x="579.173" y="342"/>
      <point x="531.52" y="300"/>
    </contour>
  </outline>
</glyph>
<glyph name="suchthat" format="2">
  <advance width="600"/>
  <unicode hex="220B"/>
  <outline>
    <contour>
      <point x="75.288" y="570" type="line" name="dh02"/>
      <point x="87.96" y="650" type="line" name="dh01"/>
      <point x="392.96" y="650" type="line" smooth="yes"/>
      <point x="517.96" y="650"/>
      <point x="608.07" y="556"/>
      <point x="588.429" y="432" type="curve" smooth="yes" name="dv01"/>
      <point x="565.619" y="288" type="line" smooth="yes" name="sv01"/>
      <point x="545.978" y="164"/>
      <point x="426.088" y="70"/>
      <point x="301.088" y="70" type="curve" smooth="yes"/>
      <point x="-3.912" y="70" type="line" name="dh04"/>
      <point x="8.76" y="150" type="line" name="dh03"/>
      <point x="313.76" y="150" type="line" smooth="yes"/>
      <point x="392.76" y="150"/>
      <point x="464.214" y="216"/>
      <point x="475.936" y="290" type="curve" smooth="yes" name="sv03"/>
      <point x="480.688" y="320" type="line"/>
      <point x="35.688" y="320" type="line" name="dv03"/>
      <point x="48.36" y="400" type="line" name="sv04"/>
      <point x="493.36" y="400" type="line"/>
      <point x="498.112" y="430" type="line" smooth="yes"/>
      <point x="509.834" y="504"/>
      <point x="459.288" y="570"/>
      <point x="380.288" y="570" type="curve" smooth="yes"/>
    </contour>
  </outline>
</glyph>
<glyph name="uni220C" format="2">
  <advance width="600"/>
  <unicode hex="220C"/>
  <outline>
    <contour>
      <point x="460.552" y="780" type="line"/>
      <point x="521.552" y="780" type="line"/>
      <point x="83.496" y="-60" type="line"/>
      <point x="22.496" y="-60" type="line"/>
    </contour>
    <contour>
      <point x="82.96" y="650" type="line" name="dh01"/>
      <point x="387.96" y="650" type="line" smooth="yes"/>
      <point x="512.96" y="650"/>
      <point x="603.07" y="556"/>
      <point x="583.429" y="432" type="curve" smooth="yes" name="dv01"/>
      <point x="560.619" y="288" type="line" smooth="yes" name="sv01"/>
      <point x="540.978" y="164"/>
      <point x="421.088" y="70"/>
      <point x="296.088" y="70" type="curve" smooth="yes"/>
      <point x="-8.912" y="70" type="line" name="dh04"/>
      <point x="3.76" y="150" type="line" name="dh03"/>
      <point x="308.76" y="150" type="line" smooth="yes"/>
      <point x="387.76" y="150"/>
      <point x="459.214" y="216"/>
      <point x="470.936" y="290" type="curve" smooth="yes" name="sv03"/>
      <point x="475.688" y="320" type="line"/>
      <point x="30.688" y="320" type="line" name="dv03"/>
      <point x="43.36" y="400" type="line" name="sv04"/>
      <point x="488.36" y="400" type="line"/>
      <point x="493.112" y="430" type="line" smooth="yes"/>
      <point x="504.834" y="504"/>
      <point x="454.288" y="570"/>
      <point x="375.288" y="570" type="curve" smooth="yes"/>
      <point x="70.288" y="570" type="line" name="dh02"/>
    </contour>
  </outline>
</glyph>
<glyph name="product" format="2">
  <advance width="600" height="985"/>
  <unicode hex="220F"/>
  <outline>
    <contour>
      <point x="104.048" y="720" type="line" name="at01"/>
      <point x="91.0592" y="638" type="line"/>
      <point x="151.059" y="638" type="line"/>
      <point x="23.072" y="-170" type="line" name="ab01"/>
      <point x="113.072" y="-170" type="line"/>
      <point x="241.059" y="638" type="line" name="sv01"/>
      <point x="461.059" y="638" type="line" name="ah01"/>
      <point x="333.072" y="-170" type="line" name="ab02"/>
      <point x="423.072" y="-170" type="line"/>
      <point x="551.059" y="638" type="line"/>
      <point x="611.059" y="638" type="line"/>
      <point x="624.048" y="720" type="line" name="sh01"/>
    </contour>
  </outline>
</glyph>
<glyph name="uni2210" format="2">
  <advance width="600"/>
  <unicode hex="2210"/>
  <outline>
    <contour>
      <point x="-36.928" y="-170" type="line" name="at01"/>
      <point x="483.072" y="-170" type="line" name="sh01"/>
      <point x="496.061" y="-88" type="line"/>
      <point x="436.061" y="-88" type="line"/>
      <point x="564.048" y="720" type="line"/>
      <point x="474.048" y="720" type="line" name="ab02"/>
      <point x="346.061" y="-88" type="line" name="ah01"/>
      <point x="126.061" y="-88" type="line" name="sv01"/>
      <point x="254.048" y="720" type="line"/>
      <point x="164.048" y="720" type="line" name="ab01"/>
      <point x="36.0608" y="-88" type="line"/>
      <point x="-23.9392" y="-88" type="line"/>
    </contour>
  </outline>
</glyph>
<glyph name="uni2225" format="2">
  <advance width="600"/>
  <unicode hex="2225"/>
  <outline>
    <contour>
      <point x="299.048" y="720" type="line"/>
      <point x="185" y="0" type="line" name="sv02"/>
      <point x="95" y="0" type="line" name="sv04"/>
      <point x="209.048" y="720" type="line" name="sv05"/>
    </contour>
    <contour>
      <point x="499.048" y="720" type="line"/>
      <point x="385" y="0" type="line" name="sv02"/>
      <point x="295" y="0" type="line" name="sv04"/>
      <point x="409.048" y="720" type="line" name="sv05"/>
    </contour>
  </outline>
</glyph>
<glyph name="integral" format="2">
  <advance width="600" height="985"/>
  <unicode hex="222B"/>
  <outline>
    <contour>
      <point x="634.048" y="720" type="line"/>
      <point x="621.059" y="638" type="line"/>
      <point x="511.059" y="638" type="line" smooth="yes"/>
      <point x="440.059" y="638"/>
      <point x="389.406" y="596"/>
      <point x="378.16" y="525" type="curve" smooth="yes"/>
      <point x="298.96" y="25" type="line" smooth="yes"/>
      <point x="280.269" y="-93"/>
      <point x="187.072" y="-170"/>
      <point x="63.072" y="-170" type="curve" smooth="yes"/>
      <point x="-46.928" y="-170" type="line"/>
      <point x="-33.9392" y="-88" type="line"/>
      <point x="76.0608" y="-88" type="line" smooth="yes"/>
      <point x="147.061" y="-88"/>
      <point x="197.872" y="-45"/>
      <point x="208.96" y="25" type="curve" smooth="yes"/>
      <point x="288.318" y="526" type="line" smooth="yes"/>
      <point x="307.01" y="644"/>
      <point x="400.048" y="720"/>
      <point x="524.048" y="720" type="curve" smooth="yes"/>
    </contour>
  </outline>
</glyph>
<glyph name="uni2237" format="2">
  <advance width="600"/>
  <unicode hex="2237"/>
  <outline>
    <contour>
      <point x="77.9536" y="429" type="curve" smooth="yes" name="dh01.1"/>
      <point x="85.5568" y="477"/>
      <point x="124.784" y="510"/>
      <point x="172.784" y="510" type="curve" smooth="yes" name="at01.1"/>
      <point x="220.784" y="510"/>
      <point x="249.557" y="477"/>
      <point x="241.954" y="429" type="curve" smooth="yes" name="dh02.1"/>
      <point x="234.35" y="381"/>
      <point x="195.123" y="348"/>
      <point x="147.123" y="348" type="curve" smooth="yes" name="sv01.1"/>
      <point x="99.1232" y="348"/>
      <point x="70.3504" y="381"/>
    </contour>
    <contour>
      <point x="21.2464" y="71" type="curve" smooth="yes" name="sh01.1"/>
      <point x="28.8496" y="119"/>
      <point x="68.0768" y="152"/>
      <point x="116.077" y="152" type="curve" smooth="yes" name="sv02.1"/>
      <point x="164.077" y="152"/>
      <point x="192.85" y="119"/>
      <point x="185.246" y="71" type="curve" smooth="yes" name="sh02.1"/>
      <point x="177.643" y="23"/>
      <point x="138.416" y="-10"/>
      <point x="90.416" y="-10" type="curve" smooth="yes" name="ab01.1"/>
      <point x="42.416" y="-10"/>
      <point x="13.6432" y="23"/>
    </contour>
    <contour>
      <point x="413.954" y="429" type="curve" smooth="yes" name="dh01"/>
      <point x="421.557" y="477"/>
      <point x="460.784" y="510"/>
      <point x="508.784" y="510" type="curve" smooth="yes" name="at01"/>
      <point x="556.784" y="510"/>
      <point x="585.557" y="477"/>
      <point x="577.954" y="429" type="curve" smooth="yes" name="dh02"/>
      <point x="570.35" y="381"/>
      <point x="531.123" y="348"/>
      <point x="483.123" y="348" type="curve" smooth="yes" name="sv01"/>
      <point x="435.123" y="348"/>
      <point x="406.35" y="381"/>
    </contour>
    <contour>
      <point x="357.246" y="71" type="curve" smooth="yes" name="sh01"/>
      <point x="364.85" y="119"/>
      <point x="404.077" y="152"/>
      <point x="452.077" y="152" type="curve" smooth="yes" name="sv02"/>
      <point x="500.077" y="152"/>
      <point x="528.85" y="119"/>
      <point x="521.246" y="71" type="curve" smooth="yes" name="sh02"/>
      <point x="513.643" y="23"/>
      <point x="474.416" y="-10"/>
      <point x="426.416" y="-10" type="curve" smooth="yes" name="ab01"/>
      <point x="378.416" y="-10"/>
      <point x="349.643" y="23"/>
    </contour>
  </outline>
</glyph>
<glyph name="uni2249" format="2">
  <advance width="600"/>
  <unicode hex="2249"/>
  <outline>
    <component base="approxequal" yOffset="30"/>
    <contour>
      <point x="497.552" y="780" type="line"/>
      <point x="558.552" y="780" type="line"/>
      <point x="116.496" y="-60" type="line"/>
      <point x="55.496" y="-60" type="line"/>
    </contour>
  </outline>
</glyph>
<glyph name="notequal" format="2">
  <advance width="600" height="985"/>
  <unicode hex="2260"/>
  <outline>
    <component base="equal"/>
    <contour>
      <point x="497.552" y="780" type="line"/>
      <point x="558.552" y="780" type="line"/>
      <point x="116.496" y="-60" type="line"/>
      <point x="55.496" y="-60" type="line"/>
    </contour>
  </outline>
</glyph>
<glyph name="equivalence" format="2">
  <advance width="600"/>
  <unicode hex="2261"/>
  <outline>
    <contour>
      <point x="80" y="180" type="line" name="iv03"/>
      <point x="520" y="180" type="line" name="dv02"/>
      <point x="520" y="110" type="line" name="dv01"/>
      <point x="80" y="110" type="line" name="av01"/>
    </contour>
    <contour>
      <point x="80" y="365" type="line" name="mv02"/>
      <point x="520" y="365" type="line" name="dv06"/>
      <point x="520" y="295" type="line" name="dv05"/>
      <point x="80" y="295" type="line" name="mv01"/>
    </contour>
    <contour>
      <point x="80" y="550" type="line" name="iv02"/>
      <point x="520" y="550" type="line" name="dv04"/>
      <point x="520" y="480" type="line" name="dv03"/>
      <point x="80" y="480" type="line" name="iv01"/>
    </contour>
  </outline>
</glyph>
<glyph name="greaterequal" format="2">
  <advance width="600" height="985"/>
  <unicode hex="2265"/>
  <outline>
    <component base="greater" xOffset="15" yOffset="125"/>
    <contour>
      <point x="47.232" y="80" type="line"/>
      <point x="477.232" y="80" type="line"/>
      <point x="464.56" y="0" type="line"/>
      <point x="34.56" y="0" type="line"/>
    </contour>
  </outline>
</glyph>
<glyph name="propersubset" format="2">
  <advance width="600"/>
  <unicode hex="2282"/>
  <outline>
    <contour>
      <point x="615.04" y="600" type="line" name="dh01"/>
      <point x="602.051" y="518" type="line" name="dh02"/>
      <point x="297.051" y="518" type="line" smooth="yes"/>
      <point x="208.212" y="518"/>
      <point x="149.063" y="467.57"/>
      <point x="135.192" y="380" type="curve" smooth="yes"/>
      <point x="128.856" y="340" type="line" smooth="yes" name="sv03"/>
      <point x="114.985" y="252.43"/>
      <point x="158.158" y="202"/>
      <point x="246.997" y="202" type="curve" smooth="yes"/>
      <point x="551.997" y="202" type="line" name="dh03"/>
      <point x="539.008" y="120" type="line" name="dh04"/>
      <point x="234.008" y="120" type="line" smooth="yes"/>
      <point x="96.008" y="120"/>
      <point x="17.8205" y="207.2"/>
      <point x="38.5392" y="338" type="curve" smooth="yes" name="sv01"/>
      <point x="45.5088" y="382" type="line" smooth="yes" name="dv01"/>
      <point x="66.2275" y="512.8"/>
      <point x="172.04" y="600"/>
      <point x="310.04" y="600" type="curve" smooth="yes"/>
    </contour>
  </outline>
</glyph>
<glyph name="propersuperset" format="2">
  <advance width="600"/>
  <unicode hex="2283"/>
  <outline>
    <contour>
      <point x="75.04" y="600" type="line" name="dh01"/>
      <point x="380.04" y="600" type="line" smooth="yes"/>
      <point x="518.04" y="600"/>
      <point x="596.228" y="512.8"/>
      <point x="575.509" y="382" type="curve" smooth="yes" name="dv01"/>
      <point x="568.539" y="338" type="line" smooth="yes" name="sv01"/>
      <point x="547.82" y="207.2"/>
      <point x="442.008" y="120"/>
      <point x="304.008" y="120" type="curve" smooth="yes"/>
      <point x="-0.992" y="120" type="line" name="dh04"/>
      <point x="11.9968" y="202" type="line" name="dh03"/>
      <point x="316.997" y="202" type="line" smooth="yes"/>
      <point x="405.836" y="202"/>
      <point x="464.985" y="252.43"/>
      <point x="478.856" y="340" type="curve" smooth="yes" name="sv03"/>
      <point x="485.192" y="380" type="line" smooth="yes"/>
      <point x="499.063" y="467.57"/>
      <point x="455.89" y="518"/>
      <point x="367.051" y="518" type="curve" smooth="yes"/>
      <point x="62.0512" y="518" type="line" name="dh02"/>
    </contour>
  </outline>
</glyph>
<glyph name="notsubset" format="2">
  <advance width="600"/>
  <unicode hex="2284"/>
  <outline>
    <component base="propersubset"/>
    <contour>
      <point x="530.552" y="780" type="line"/>
      <point x="591.552" y="780" type="line"/>
      <point x="153.496" y="-60" type="line"/>
      <point x="92.496" y="-60" type="line"/>
    </contour>
  </outline>
</glyph>
<glyph name="reflexsubset" format="2">
  <advance width="600"/>
  <unicode hex="2286"/>
  <outline>
    <component base="propersubset" yOffset="80"/>
    <contour>
      <point x="-13.0234" y="0" type="line"/>
      <point x="507" y="0" type="line"/>
      <point x="519.92" y="81.5649" type="line"/>
      <point x="-0.103556" y="81.5649" type="line"/>
    </contour>
  </outline>
</glyph>
<glyph name="reflexsuperset" format="2">
  <advance width="600"/>
  <unicode hex="2287"/>
  <outline>
    <component base="propersuperset" yOffset="80"/>
    <contour>
      <point x="-32.0234" y="0" type="line"/>
      <point x="488" y="0" type="line"/>
      <point x="500.92" y="81.5649" type="line"/>
      <point x="-19.1036" y="81.5649" type="line"/>
    </contour>
  </outline>
</glyph>
